<?xml version="1.0"?>
<svg id="_レイヤー_2" data-name="レイヤー 2" xmlns="http://www.w3.org/2000/svg" viewBox="0 0 432.32 346.25">
  <defs>
    
  </defs>
  <g id="_1" data-name="1">
    <g>
      <g>
        <g>
          <polygon class="cls-3" points="275.7 167.23 254.53 179.46 102.5 267.23 102.5 291.69 102.61 291.75 275.82 191.75 275.7 191.68 275.7 167.23"></polygon>
          <polygon class="cls-1" points="2.5 209.5 2.61 209.56 23.78 221.79 102.5 267.23 254.53 179.46 275.7 167.23 175.7 109.5 2.5 209.5"></polygon>
          <path class="cls-2" d="M121.1,159.76c-8.44.11-16.02,1.69-21.57,4.9-5.47,3.16-8.54,7.54-8.93,12.71l-56.31,32.51,67.55,39,55.28-31.91c8.43-.11,16.01-1.69,21.55-4.89,5.47-3.16,8.54-7.54,8.93-12.71l56.31-32.51-67.55-39-55.26,31.9Z"></path>
          <path class="cls-6" d="M165.67,173.02c-21.44-12.38-50.71-15.54-65.39-7.07-14.67,8.47-9.19,25.37,12.25,37.75,21.44,12.38,50.71,15.54,65.39,7.07,14.67-8.47,9.19-25.37-12.25-37.75Z"></path>
          <path class="cls-4" d="M38.78,214.11l-13.85-8-2.61,1.51c-.15.53-.38,1.03-.7,1.5-.32.47-.79.98-1.4,1.53l2.53,1.46,2.73-1.58,9.75,5.63-3.15,1.82,3.32,1.92,9.38-5.41-3.32-1.92-2.67,1.54Z"></path>
          <path class="cls-4" d="M48.16,202.52c-1.92-1.11-3.75-1.92-5.5-2.43-1.75-.51-3.34-.73-4.79-.66-1.45.07-2.7.41-3.76,1.03-1.06.61-1.66,1.34-1.79,2.17-.13.83.24,1.75,1.12,2.77.88,1.02,2.28,2.08,4.2,3.19,1.92,1.11,3.78,1.93,5.57,2.45,1.79.53,3.42.76,4.9.7,1.48-.06,2.74-.4,3.79-1,1.05-.61,1.63-1.34,1.74-2.19.11-.85-.3-1.79-1.22-2.82-.92-1.03-2.34-2.1-4.26-3.21ZM48.72,208.9c-.6.35-1.49.37-2.67.08-1.18-.29-2.87-1.07-5.05-2.33-2.17-1.25-3.48-2.21-3.95-2.87-.47-.66-.4-1.17.2-1.51.6-.35,1.47-.38,2.61-.11,1.14.27,2.79,1.04,4.96,2.29,2.18,1.26,3.53,2.23,4.04,2.91.51.68.47,1.19-.13,1.54Z"></path>
          <path class="cls-4" d="M59.81,195.79c-1.92-1.11-3.75-1.92-5.5-2.43-1.75-.51-3.34-.73-4.79-.66-1.45.07-2.7.41-3.76,1.03-1.06.61-1.66,1.34-1.79,2.17-.13.83.24,1.75,1.12,2.77.88,1.02,2.28,2.08,4.2,3.19,1.92,1.11,3.78,1.93,5.57,2.45,1.79.53,3.42.76,4.9.7,1.48-.06,2.74-.4,3.79-1s1.63-1.34,1.74-2.19c.11-.85-.3-1.79-1.22-2.82-.92-1.03-2.34-2.1-4.26-3.21ZM60.37,202.17c-.6.35-1.49.37-2.67.08-1.18-.29-2.87-1.07-5.05-2.33-2.17-1.25-3.48-2.21-3.95-2.87-.47-.66-.4-1.17.2-1.51.6-.35,1.47-.38,2.61-.11,1.14.27,2.79,1.04,4.96,2.29,2.18,1.26,3.53,2.23,4.04,2.91.51.68.47,1.19-.13,1.54Z"></path>
          <path class="cls-4" d="M71.47,189.06c-1.92-1.11-3.75-1.92-5.5-2.43-1.75-.51-3.34-.73-4.79-.66-1.45.07-2.7.41-3.76,1.03-1.06.61-1.66,1.34-1.79,2.17-.13.83.24,1.75,1.12,2.77.88,1.02,2.28,2.08,4.2,3.19,1.92,1.11,3.78,1.93,5.57,2.45,1.79.53,3.42.76,4.9.7,1.48-.06,2.74-.4,3.79-1,1.05-.61,1.63-1.34,1.74-2.19.11-.85-.3-1.79-1.22-2.82-.92-1.03-2.34-2.1-4.26-3.21ZM72.03,195.44c-.6.35-1.49.37-2.67.08-1.18-.29-2.87-1.07-5.05-2.33-2.17-1.25-3.48-2.21-3.95-2.87-.47-.66-.4-1.17.2-1.51.6-.35,1.47-.38,2.61-.11,1.14.27,2.79,1.04,4.96,2.29,2.18,1.26,3.53,2.23,4.04,2.91.51.68.47,1.19-.13,1.54Z"></path>
          <path class="cls-4" d="M83.12,182.33c-1.92-1.11-3.75-1.92-5.5-2.43-1.75-.51-3.34-.73-4.79-.66-1.45.07-2.7.41-3.76,1.03-1.06.61-1.66,1.34-1.79,2.17-.13.83.24,1.75,1.12,2.77.88,1.02,2.28,2.08,4.2,3.19,1.92,1.11,3.78,1.93,5.57,2.45,1.79.53,3.42.76,4.9.7,1.48-.06,2.74-.4,3.79-1,1.05-.61,1.63-1.34,1.74-2.19.11-.85-.3-1.79-1.22-2.82-.92-1.03-2.34-2.1-4.26-3.21ZM83.68,188.72c-.6.35-1.49.37-2.67.08-1.18-.29-2.87-1.07-5.05-2.33-2.17-1.25-3.48-2.21-3.95-2.87-.47-.66-.4-1.17.2-1.51.6-.35,1.47-.38,2.61-.11,1.14.27,2.79,1.04,4.96,2.29,2.18,1.26,3.53,2.23,4.04,2.91.51.68.47,1.19-.13,1.54Z"></path>
          <polygon class="cls-2" points="2.61 209.56 2.61 234.01 102.5 291.69 102.5 267.23 23.78 221.79 2.61 209.56"></polygon>
          <path class="cls-4" d="M278.2,167.23c0-.89-.48-1.72-1.25-2.17l-100-57.73c-.77-.45-1.73-.45-2.5,0L1.25,207.33C.47,207.78,0,208.62,0,209.52c0,.24.04.48.11.71v23.78c0,.89.48,1.72,1.25,2.17l99.89,57.68,1.23-2.13h0l-1.18,2.17.11.06c.37.2.78.3,1.2.3.43,0,.86-.11,1.25-.33l173.21-100c.77-.44,1.25-1.26,1.25-2.15,0-.27-.04-.53-.12-.77v-23.76ZM273.2,190.37l-170.59,98.49L5.11,232.57v-21.69l170.59-98.49,97.5,56.29v21.7Z"></path>
        </g>
        <g>
          <polygon class="cls-5" points="185.92 200.59 185.7 200.46 118.15 161.46 117.91 161.33 101.93 152.09 98.68 150.22 73.03 165.03 76.28 166.9 92.28 176.15 92.5 176.27 160.05 215.27 160.28 215.4 176.27 224.64 178.77 226.08 204.42 211.27 201.92 209.83 185.92 200.59"></polygon>
          <polygon class="cls-7" points="178.77 251.31 204.42 236.38 204.42 211.27 178.77 226.08 178.77 251.31"></polygon>
        </g>
        <path class="cls-4" d="M204.92,210.4l-86.29-49.82-19.45-11.23c-.31-.18-.69-.18-1,0l-25.65,14.81c-.31.18-.5.51-.5.87s.19.69.5.87l87.03,50.24,18.21,10.52v24.65c0,.36.19.69.5.87.15.09.33.13.5.13s.35-.04.5-.14l25.65-14.93c.31-.18.5-.51.5-.86v-25.11c0-.36-.19-.69-.5-.87ZM203.42,235.8l-23.65,13.77v-23.49c0-.36-.19-.69-.5-.87l-86.29-49.82-17.95-10.36,23.65-13.65,86.51,49.95,18.23,10.53v23.96Z"></path>
      </g>
      <g>
        <g>
          <polygon class="cls-3" points="290.7 124.23 269.53 136.46 117.5 224.23 117.5 248.69 117.61 248.75 290.82 148.75 290.7 148.68 290.7 124.23"></polygon>
          <polygon class="cls-1" points="17.5 166.5 17.61 166.56 38.78 178.79 117.5 224.23 269.53 136.46 290.7 124.23 190.7 66.5 17.5 166.5"></polygon>
          <path class="cls-2" d="M136.1,116.76c-8.44.11-16.02,1.69-21.57,4.9-5.47,3.16-8.54,7.54-8.93,12.71l-56.31,32.51,67.55,39,55.28-31.91c8.43-.11,16.01-1.69,21.55-4.89,5.47-3.16,8.54-7.54,8.93-12.71l56.31-32.51-67.55-39-55.26,31.9Z"></path>
          <path class="cls-6" d="M180.67,130.02c-21.44-12.38-50.71-15.54-65.39-7.07-14.67,8.47-9.19,25.37,12.25,37.75,21.44,12.38,50.71,15.54,65.39,7.07,14.67-8.47,9.19-25.37-12.25-37.75Z"></path>
          <path class="cls-4" d="M53.78,171.11l-13.85-8-2.61,1.51c-.15.53-.38,1.03-.7,1.5-.32.47-.79.98-1.4,1.53l2.53,1.46,2.73-1.58,9.75,5.63-3.15,1.82,3.32,1.92,9.38-5.41-3.32-1.92-2.67,1.54Z"></path>
          <path class="cls-4" d="M63.16,159.52c-1.92-1.11-3.75-1.92-5.5-2.43-1.75-.51-3.34-.73-4.79-.66-1.45.07-2.7.41-3.76,1.03-1.06.61-1.66,1.34-1.79,2.17-.13.83.24,1.75,1.12,2.77.88,1.02,2.28,2.08,4.2,3.19,1.92,1.11,3.78,1.93,5.57,2.45,1.79.53,3.42.76,4.9.7,1.48-.06,2.74-.4,3.79-1,1.05-.61,1.63-1.34,1.74-2.19.11-.85-.3-1.79-1.22-2.82-.92-1.03-2.34-2.1-4.26-3.21ZM63.72,165.9c-.6.35-1.49.37-2.67.08-1.18-.29-2.87-1.07-5.05-2.33-2.17-1.25-3.48-2.21-3.95-2.87-.47-.66-.4-1.17.2-1.51.6-.35,1.47-.38,2.61-.11,1.14.27,2.79,1.04,4.96,2.29,2.18,1.26,3.53,2.23,4.04,2.91.51.68.47,1.19-.13,1.54Z"></path>
          <path class="cls-4" d="M74.81,152.79c-1.92-1.11-3.75-1.92-5.5-2.43-1.75-.51-3.34-.73-4.79-.66-1.45.07-2.7.41-3.76,1.03-1.06.61-1.66,1.34-1.79,2.17-.13.83.24,1.75,1.12,2.77.88,1.02,2.28,2.08,4.2,3.19,1.92,1.11,3.78,1.93,5.57,2.45,1.79.53,3.42.76,4.9.7,1.48-.06,2.74-.4,3.79-1s1.63-1.34,1.74-2.19c.11-.85-.3-1.79-1.22-2.82-.92-1.03-2.34-2.1-4.26-3.21ZM75.37,159.17c-.6.35-1.49.37-2.67.08-1.18-.29-2.87-1.07-5.05-2.33-2.17-1.25-3.48-2.21-3.95-2.87-.47-.66-.4-1.17.2-1.51.6-.35,1.47-.38,2.61-.11,1.14.27,2.79,1.04,4.96,2.29,2.18,1.26,3.53,2.23,4.04,2.91.51.68.47,1.19-.13,1.54Z"></path>
          <path class="cls-4" d="M86.47,146.06c-1.92-1.11-3.75-1.92-5.5-2.43-1.75-.51-3.34-.73-4.79-.66-1.45.07-2.7.41-3.76,1.03-1.06.61-1.66,1.34-1.79,2.17-.13.83.24,1.75,1.12,2.77.88,1.02,2.28,2.08,4.2,3.19,1.92,1.11,3.78,1.93,5.57,2.45,1.79.53,3.42.76,4.9.7,1.48-.06,2.74-.4,3.79-1,1.05-.61,1.63-1.34,1.74-2.19.11-.85-.3-1.79-1.22-2.82-.92-1.03-2.34-2.1-4.26-3.21ZM87.03,152.44c-.6.35-1.49.37-2.67.08-1.18-.29-2.87-1.07-5.05-2.33-2.17-1.25-3.48-2.21-3.95-2.87-.47-.66-.4-1.17.2-1.51.6-.35,1.47-.38,2.61-.11,1.14.27,2.79,1.04,4.96,2.29,2.18,1.26,3.53,2.23,4.04,2.91.51.68.47,1.19-.13,1.54Z"></path>
          <path class="cls-4" d="M98.12,139.33c-1.92-1.11-3.75-1.92-5.5-2.43-1.75-.51-3.34-.73-4.79-.66-1.45.07-2.7.41-3.76,1.03-1.06.61-1.66,1.34-1.79,2.17-.13.83.24,1.75,1.12,2.77.88,1.02,2.28,2.08,4.2,3.19,1.92,1.11,3.78,1.93,5.57,2.45,1.79.53,3.42.76,4.9.7,1.48-.06,2.74-.4,3.79-1,1.05-.61,1.63-1.34,1.74-2.19.11-.85-.3-1.79-1.22-2.82-.92-1.03-2.34-2.1-4.26-3.21ZM98.68,145.72c-.6.35-1.49.37-2.67.08-1.18-.29-2.87-1.07-5.05-2.33-2.17-1.25-3.48-2.21-3.95-2.87-.47-.66-.4-1.17.2-1.51.6-.35,1.47-.38,2.61-.11,1.14.27,2.79,1.04,4.96,2.29,2.18,1.26,3.53,2.23,4.04,2.91.51.68.47,1.19-.13,1.54Z"></path>
          <polygon class="cls-2" points="17.61 166.56 17.61 191.01 117.5 248.69 117.5 224.23 38.78 178.79 17.61 166.56"></polygon>
          <path class="cls-4" d="M293.2,124.23c0-.89-.48-1.72-1.25-2.17l-100-57.73c-.77-.45-1.73-.45-2.5,0L16.25,164.33c-.78.45-1.26,1.29-1.25,2.19,0,.24.04.48.11.71v23.78c0,.89.48,1.72,1.25,2.17l99.89,57.68,1.23-2.13h0l-1.18,2.17.11.06c.37.2.78.3,1.2.3.43,0,.86-.11,1.25-.33l173.21-100c.77-.44,1.25-1.26,1.25-2.15,0-.27-.04-.53-.12-.77v-23.76ZM288.2,147.37l-170.59,98.49-97.5-56.3v-21.69l170.59-98.49,97.5,56.29v21.7Z"></path>
        </g>
        <g>
          <polygon class="cls-5" points="200.92 157.59 200.7 157.46 133.15 118.46 132.91 118.33 116.93 109.09 113.68 107.22 88.03 122.03 91.28 123.9 107.28 133.15 107.5 133.27 175.05 172.27 175.28 172.4 191.27 181.64 193.77 183.08 219.42 168.27 216.92 166.83 200.92 157.59"></polygon>
          <polygon class="cls-7" points="193.77 208.31 219.42 193.38 219.42 168.27 193.77 183.08 193.77 208.31"></polygon>
        </g>
        <path class="cls-4" d="M219.92,167.4l-86.29-49.82-19.45-11.23c-.31-.18-.69-.18-1,0l-25.65,14.81c-.31.18-.5.51-.5.87s.19.69.5.87l87.03,50.24,18.21,10.52v24.65c0,.36.19.69.5.87.15.09.33.13.5.13s.35-.04.5-.14l25.65-14.93c.31-.18.5-.51.5-.86v-25.11c0-.36-.19-.69-.5-.87ZM218.42,192.8l-23.65,13.77v-23.49c0-.36-.19-.69-.5-.87l-86.29-49.82-17.95-10.36,23.65-13.65,86.51,49.95,18.23,10.53v23.96Z"></path>
      </g>
      <g>
        <g>
          <polygon class="cls-3" points="305.7 81.23 284.53 93.46 132.5 181.23 132.5 205.69 132.61 205.75 305.82 105.75 305.7 105.68 305.7 81.23"></polygon>
          <polygon class="cls-1" points="32.5 123.5 32.61 123.56 53.78 135.79 132.5 181.23 284.53 93.46 305.7 81.23 205.7 23.5 32.5 123.5"></polygon>
          <path class="cls-2" d="M151.1,73.76c-8.44.11-16.02,1.69-21.57,4.9-5.47,3.16-8.54,7.54-8.93,12.71l-56.31,32.51,67.55,39,55.28-31.91c8.43-.11,16.01-1.69,21.55-4.89,5.47-3.16,8.54-7.54,8.93-12.71l56.31-32.51-67.55-39-55.26,31.9Z"></path>
          <path class="cls-6" d="M195.67,87.02c-21.44-12.38-50.71-15.54-65.39-7.07-14.67,8.47-9.19,25.37,12.25,37.75,21.44,12.38,50.71,15.54,65.39,7.07,14.67-8.47,9.19-25.37-12.25-37.75Z"></path>
          <path class="cls-4" d="M68.78,128.11l-13.85-8-2.61,1.51c-.15.53-.38,1.03-.7,1.5-.32.47-.79.98-1.4,1.53l2.53,1.46,2.73-1.58,9.75,5.63-3.15,1.82,3.32,1.92,9.38-5.41-3.32-1.92-2.67,1.54Z"></path>
          <path class="cls-4" d="M78.16,116.52c-1.92-1.11-3.75-1.92-5.5-2.43-1.75-.51-3.34-.73-4.79-.66-1.45.07-2.7.41-3.76,1.03-1.06.61-1.66,1.34-1.79,2.17-.13.83.24,1.75,1.12,2.77.88,1.02,2.28,2.08,4.2,3.19,1.92,1.11,3.78,1.93,5.57,2.45,1.79.53,3.42.76,4.9.7,1.48-.06,2.74-.4,3.79-1,1.05-.61,1.63-1.34,1.74-2.19.11-.85-.3-1.79-1.22-2.82-.92-1.03-2.34-2.1-4.26-3.21ZM78.72,122.9c-.6.35-1.49.37-2.67.08-1.18-.29-2.87-1.07-5.05-2.33-2.17-1.25-3.48-2.21-3.95-2.87-.47-.66-.4-1.17.2-1.51.6-.35,1.47-.38,2.61-.11,1.14.27,2.79,1.04,4.96,2.29,2.18,1.26,3.53,2.23,4.04,2.91.51.68.47,1.19-.13,1.54Z"></path>
          <path class="cls-4" d="M89.81,109.79c-1.92-1.11-3.75-1.92-5.5-2.43-1.75-.51-3.34-.73-4.79-.66-1.45.07-2.7.41-3.76,1.03-1.06.61-1.66,1.34-1.79,2.17-.13.83.24,1.75,1.12,2.77.88,1.02,2.28,2.08,4.2,3.19,1.92,1.11,3.78,1.93,5.57,2.45,1.79.53,3.42.76,4.9.7,1.48-.06,2.74-.4,3.79-1s1.63-1.34,1.74-2.19c.11-.85-.3-1.79-1.22-2.82-.92-1.03-2.34-2.1-4.26-3.21ZM90.37,116.17c-.6.35-1.49.37-2.67.08-1.18-.29-2.87-1.07-5.05-2.33-2.17-1.25-3.48-2.21-3.95-2.87-.47-.66-.4-1.17.2-1.51.6-.35,1.47-.38,2.61-.11,1.14.27,2.79,1.04,4.96,2.29,2.18,1.26,3.53,2.23,4.04,2.91.51.68.47,1.19-.13,1.54Z"></path>
          <path class="cls-4" d="M101.47,103.06c-1.92-1.11-3.75-1.92-5.5-2.43-1.75-.51-3.34-.73-4.79-.66-1.45.07-2.7.41-3.76,1.03-1.06.61-1.66,1.34-1.79,2.17-.13.83.24,1.75,1.12,2.77.88,1.02,2.28,2.08,4.2,3.19,1.92,1.11,3.78,1.93,5.57,2.45,1.79.53,3.42.76,4.9.7,1.48-.06,2.74-.4,3.79-1,1.05-.61,1.63-1.34,1.74-2.19.11-.85-.3-1.79-1.22-2.82-.92-1.03-2.34-2.1-4.26-3.21ZM102.03,109.44c-.6.35-1.49.37-2.67.08-1.18-.29-2.87-1.07-5.05-2.33-2.17-1.25-3.48-2.21-3.95-2.87-.47-.66-.4-1.17.2-1.51.6-.35,1.47-.38,2.61-.11,1.14.27,2.79,1.04,4.96,2.29,2.18,1.26,3.53,2.23,4.04,2.91.51.68.47,1.19-.13,1.54Z"></path>
          <path class="cls-4" d="M113.12,96.33c-1.92-1.11-3.75-1.92-5.5-2.43-1.75-.51-3.34-.73-4.79-.66-1.45.07-2.7.41-3.76,1.03-1.06.61-1.66,1.34-1.79,2.17-.13.83.24,1.75,1.12,2.77.88,1.02,2.28,2.08,4.2,3.19,1.92,1.11,3.78,1.93,5.57,2.45,1.79.53,3.42.76,4.9.7,1.48-.06,2.74-.4,3.79-1,1.05-.61,1.63-1.34,1.74-2.19.11-.85-.3-1.79-1.22-2.82-.92-1.03-2.34-2.1-4.26-3.21ZM113.68,102.72c-.6.35-1.49.37-2.67.08-1.18-.29-2.87-1.07-5.05-2.33-2.17-1.25-3.48-2.21-3.95-2.87-.47-.66-.4-1.17.2-1.51.6-.35,1.47-.38,2.61-.11,1.14.27,2.79,1.04,4.96,2.29,2.18,1.26,3.53,2.23,4.04,2.91.51.68.47,1.19-.13,1.54Z"></path>
          <polygon class="cls-2" points="32.61 123.56 32.61 148.01 132.5 205.69 132.5 181.23 53.78 135.79 32.61 123.56"></polygon>
          <path class="cls-4" d="M308.2,81.23c0-.89-.48-1.72-1.25-2.17l-100-57.73c-.77-.45-1.73-.45-2.5,0L31.25,121.33c-.78.45-1.26,1.29-1.25,2.19,0,.24.04.48.11.7v23.78c0,.89.48,1.72,1.25,2.17l99.89,57.68,1.23-2.13h0l-1.18,2.17.11.06c.37.2.78.3,1.2.3.43,0,.86-.11,1.25-.33l173.21-100c.77-.45,1.25-1.27,1.25-2.16,0-.27-.04-.53-.12-.77v-23.76ZM303.2,104.38l-170.59,98.49-97.5-56.3v-21.69L205.7,26.39l97.5,56.29v21.7Z"></path>
        </g>
        <g>
          <polygon class="cls-5" points="215.92 114.59 215.7 114.46 148.15 75.46 147.91 75.33 131.93 66.09 128.68 64.22 103.03 79.03 106.28 80.9 122.28 90.15 122.5 90.27 190.05 129.27 190.28 129.4 206.27 138.64 208.77 140.08 234.42 125.27 231.92 123.83 215.92 114.59"></polygon>
          <polygon class="cls-7" points="208.77 165.31 234.42 150.38 234.42 125.27 208.77 140.08 208.77 165.31"></polygon>
        </g>
        <path class="cls-4" d="M234.92,124.4l-86.29-49.82-19.45-11.23c-.31-.18-.69-.18-1,0l-25.65,14.81c-.31.18-.5.51-.5.87s.19.69.5.87l87.03,50.24,18.21,10.52v24.65c0,.36.19.69.5.87.15.09.33.13.5.13s.35-.04.5-.14l25.65-14.93c.31-.18.5-.51.5-.86v-25.11c0-.36-.19-.69-.5-.87ZM233.42,149.8l-23.65,13.77v-23.49c0-.36-.19-.69-.5-.87l-86.29-49.82-17.95-10.36,23.65-13.65,86.51,49.95,18.23,10.53v23.96Z"></path>
      </g>
      <g>
        <g>
          <polygon class="cls-3" points="399.7 219.23 378.53 231.46 226.5 319.23 226.5 343.69 226.61 343.75 399.82 243.75 399.7 243.68 399.7 219.23"></polygon>
          <polygon class="cls-1" points="126.5 261.5 126.61 261.56 147.78 273.79 226.5 319.23 378.53 231.46 399.7 219.23 299.7 161.5 126.5 261.5"></polygon>
          <path class="cls-2" d="M245.1,211.76c-8.44.11-16.02,1.69-21.57,4.9-5.47,3.16-8.54,7.54-8.93,12.71l-56.31,32.51,67.55,39,55.28-31.91c8.43-.11,16.01-1.69,21.55-4.89,5.47-3.16,8.54-7.54,8.93-12.71l56.31-32.51-67.55-39-55.26,31.9Z"></path>
          <path class="cls-6" d="M289.67,225.02c-21.44-12.38-50.71-15.54-65.39-7.07-14.67,8.47-9.19,25.37,12.25,37.75,21.44,12.38,50.71,15.54,65.39,7.07,14.67-8.47,9.19-25.37-12.25-37.75Z"></path>
          <path class="cls-4" d="M162.78,266.11l-13.85-8-2.61,1.51c-.15.53-.38,1.03-.7,1.5-.32.47-.79.98-1.4,1.53l2.53,1.46,2.73-1.58,9.75,5.63-3.15,1.82,3.32,1.92,9.38-5.41-3.32-1.92-2.67,1.54Z"></path>
          <path class="cls-4" d="M172.16,254.52c-1.92-1.11-3.75-1.92-5.5-2.43-1.75-.51-3.34-.73-4.79-.66-1.45.07-2.7.41-3.76,1.03-1.06.61-1.66,1.34-1.79,2.17-.13.83.24,1.75,1.12,2.77.88,1.02,2.28,2.08,4.2,3.19,1.92,1.11,3.78,1.93,5.57,2.45,1.79.53,3.42.76,4.9.7,1.48-.06,2.74-.4,3.79-1,1.05-.61,1.63-1.34,1.74-2.19.11-.85-.3-1.79-1.22-2.82-.92-1.03-2.34-2.1-4.26-3.21ZM172.72,260.9c-.6.35-1.49.37-2.67.08-1.18-.29-2.87-1.07-5.05-2.33-2.17-1.25-3.48-2.21-3.95-2.87-.47-.66-.4-1.17.2-1.51.6-.35,1.47-.38,2.61-.11,1.14.27,2.79,1.04,4.96,2.29,2.18,1.26,3.53,2.23,4.04,2.91.51.68.47,1.19-.13,1.54Z"></path>
          <path class="cls-4" d="M183.81,247.79c-1.92-1.11-3.75-1.92-5.5-2.43-1.75-.51-3.34-.73-4.79-.66-1.45.07-2.7.41-3.76,1.03-1.06.61-1.66,1.34-1.79,2.17-.13.83.24,1.75,1.12,2.77.88,1.02,2.28,2.08,4.2,3.19,1.92,1.11,3.78,1.93,5.57,2.45,1.79.53,3.42.76,4.9.7,1.48-.06,2.74-.4,3.79-1s1.63-1.34,1.74-2.19c.11-.85-.3-1.79-1.22-2.82-.92-1.03-2.34-2.1-4.26-3.21ZM184.37,254.17c-.6.35-1.49.37-2.67.08-1.18-.29-2.87-1.07-5.05-2.33-2.17-1.25-3.48-2.21-3.95-2.87-.47-.66-.4-1.17.2-1.51.6-.35,1.47-.38,2.61-.11,1.14.27,2.79,1.04,4.96,2.29,2.18,1.26,3.53,2.23,4.04,2.91.51.68.47,1.19-.13,1.54Z"></path>
          <path class="cls-4" d="M195.47,241.06c-1.92-1.11-3.75-1.92-5.5-2.43-1.75-.51-3.34-.73-4.79-.66-1.45.07-2.7.41-3.76,1.03-1.06.61-1.66,1.34-1.79,2.17-.13.83.24,1.75,1.12,2.77.88,1.02,2.28,2.08,4.2,3.19,1.92,1.11,3.78,1.93,5.57,2.45,1.79.53,3.42.76,4.9.7,1.48-.06,2.74-.4,3.79-1,1.05-.61,1.63-1.34,1.74-2.19.11-.85-.3-1.79-1.22-2.82-.92-1.03-2.34-2.1-4.26-3.21ZM196.03,247.44c-.6.35-1.49.37-2.67.08-1.18-.29-2.87-1.07-5.05-2.33-2.17-1.25-3.48-2.21-3.95-2.87-.47-.66-.4-1.17.2-1.51.6-.35,1.47-.38,2.61-.11,1.14.27,2.79,1.04,4.96,2.29,2.18,1.26,3.53,2.23,4.04,2.91.51.68.47,1.19-.13,1.54Z"></path>
          <path class="cls-4" d="M207.12,234.33c-1.92-1.11-3.75-1.92-5.5-2.43-1.75-.51-3.34-.73-4.79-.66-1.45.07-2.7.41-3.76,1.03-1.06.61-1.66,1.34-1.79,2.17-.13.83.24,1.75,1.12,2.77.88,1.02,2.28,2.08,4.2,3.19,1.92,1.11,3.78,1.93,5.57,2.45,1.79.53,3.42.76,4.9.7,1.48-.06,2.74-.4,3.79-1,1.05-.61,1.63-1.34,1.74-2.19.11-.85-.3-1.79-1.22-2.82-.92-1.03-2.34-2.1-4.26-3.21ZM207.68,240.72c-.6.35-1.49.37-2.67.08-1.18-.29-2.87-1.07-5.05-2.33-2.17-1.25-3.48-2.21-3.95-2.87-.47-.66-.4-1.17.2-1.51.6-.35,1.47-.38,2.61-.11,1.14.27,2.79,1.04,4.96,2.29,2.18,1.26,3.53,2.23,4.04,2.91.51.68.47,1.19-.13,1.54Z"></path>
          <polygon class="cls-2" points="126.61 261.56 126.61 286.01 226.5 343.69 226.5 319.23 147.78 273.79 126.61 261.56"></polygon>
          <path class="cls-4" d="M402.2,219.23c0-.89-.48-1.72-1.25-2.17l-100-57.73c-.77-.45-1.73-.45-2.5,0l-173.2,100c-.78.45-1.26,1.29-1.25,2.19,0,.24.04.48.11.71v23.78c0,.89.48,1.72,1.25,2.17l99.89,57.68,1.23-2.13h0l-1.18,2.17.11.06c.37.2.78.3,1.2.3.43,0,.86-.11,1.25-.33l173.21-100c.77-.44,1.25-1.26,1.25-2.15,0-.27-.04-.53-.12-.77v-23.76ZM397.2,242.37l-170.59,98.49-97.5-56.3v-21.69l170.59-98.49,97.5,56.29v21.7Z"></path>
        </g>
        <g>
          <polygon class="cls-5" points="309.92 252.59 309.7 252.46 242.15 213.46 241.91 213.33 225.93 204.09 222.68 202.22 197.03 217.03 200.28 218.9 216.28 228.15 216.5 228.27 284.05 267.27 284.28 267.4 300.27 276.64 302.77 278.08 328.42 263.27 325.92 261.83 309.92 252.59"></polygon>
          <polygon class="cls-7" points="302.77 303.31 328.42 288.38 328.42 263.27 302.77 278.08 302.77 303.31"></polygon>
        </g>
        <path class="cls-4" d="M328.92,262.4l-86.29-49.82-19.45-11.23c-.31-.18-.69-.18-1,0l-25.65,14.81c-.31.18-.5.51-.5.87s.19.69.5.87l87.03,50.24,18.21,10.52v24.65c0,.36.19.69.5.87.15.09.33.13.5.13s.35-.04.5-.14l25.65-14.93c.31-.18.5-.51.5-.86v-25.11c0-.36-.19-.69-.5-.87ZM327.42,287.8l-23.65,13.77v-23.49c0-.36-.19-.69-.5-.87l-86.29-49.82-17.95-10.36,23.65-13.65,86.51,49.95,18.23,10.53v23.96Z"></path>
      </g>
      <g>
        <g>
          <polygon class="cls-3" points="414.7 176.23 393.53 188.46 241.5 276.23 241.5 300.69 241.61 300.75 414.82 200.75 414.7 200.68 414.7 176.23"></polygon>
          <polygon class="cls-1" points="141.5 218.5 141.61 218.56 162.78 230.79 241.5 276.23 393.53 188.46 414.7 176.23 314.7 118.5 141.5 218.5"></polygon>
          <path class="cls-2" d="M260.1,168.76c-8.44.11-16.02,1.69-21.57,4.9-5.47,3.16-8.54,7.54-8.93,12.71l-56.31,32.51,67.55,39,55.28-31.91c8.43-.11,16.01-1.69,21.55-4.89,5.47-3.16,8.54-7.54,8.93-12.71l56.31-32.51-67.55-39-55.26,31.9Z"></path>
          <path class="cls-6" d="M304.67,182.02c-21.44-12.38-50.71-15.54-65.39-7.07-14.67,8.47-9.19,25.37,12.25,37.75,21.44,12.38,50.71,15.54,65.39,7.07,14.67-8.47,9.19-25.37-12.25-37.75Z"></path>
          <path class="cls-4" d="M177.78,223.11l-13.85-8-2.61,1.51c-.15.53-.38,1.03-.7,1.5-.32.47-.79.98-1.4,1.53l2.53,1.46,2.73-1.58,9.75,5.63-3.15,1.82,3.32,1.92,9.38-5.41-3.32-1.92-2.67,1.54Z"></path>
          <path class="cls-4" d="M187.16,211.52c-1.92-1.11-3.75-1.92-5.5-2.43-1.75-.51-3.34-.73-4.79-.66-1.45.07-2.7.41-3.76,1.03-1.06.61-1.66,1.34-1.79,2.17-.13.83.24,1.75,1.12,2.77.88,1.02,2.28,2.08,4.2,3.19,1.92,1.11,3.78,1.93,5.57,2.45,1.79.53,3.42.76,4.9.7,1.48-.06,2.74-.4,3.79-1,1.05-.61,1.63-1.34,1.74-2.19.11-.85-.3-1.79-1.22-2.82-.92-1.03-2.34-2.1-4.26-3.21ZM187.72,217.9c-.6.35-1.49.37-2.67.08-1.18-.29-2.87-1.07-5.05-2.33-2.17-1.25-3.48-2.21-3.95-2.87-.47-.66-.4-1.17.2-1.51.6-.35,1.47-.38,2.61-.11,1.14.27,2.79,1.04,4.96,2.29,2.18,1.26,3.53,2.23,4.04,2.91.51.68.47,1.19-.13,1.54Z"></path>
          <path class="cls-4" d="M198.81,204.79c-1.92-1.11-3.75-1.92-5.5-2.43-1.75-.51-3.34-.73-4.79-.66-1.45.07-2.7.41-3.76,1.03-1.06.61-1.66,1.34-1.79,2.17-.13.83.24,1.75,1.12,2.77.88,1.02,2.28,2.08,4.2,3.19,1.92,1.11,3.78,1.93,5.57,2.45,1.79.53,3.42.76,4.9.7,1.48-.06,2.74-.4,3.79-1s1.63-1.34,1.74-2.19c.11-.85-.3-1.79-1.22-2.82-.92-1.03-2.34-2.1-4.26-3.21ZM199.37,211.17c-.6.35-1.49.37-2.67.08-1.18-.29-2.87-1.07-5.05-2.33-2.17-1.25-3.48-2.21-3.95-2.87-.47-.66-.4-1.17.2-1.51.6-.35,1.47-.38,2.61-.11,1.14.27,2.79,1.04,4.96,2.29,2.18,1.26,3.53,2.23,4.04,2.91.51.68.47,1.19-.13,1.54Z"></path>
          <path class="cls-4" d="M210.47,198.06c-1.92-1.11-3.75-1.92-5.5-2.43-1.75-.51-3.34-.73-4.79-.66-1.45.07-2.7.41-3.76,1.03-1.06.61-1.66,1.34-1.79,2.17-.13.83.24,1.75,1.12,2.77.88,1.02,2.28,2.08,4.2,3.19,1.92,1.11,3.78,1.93,5.57,2.45,1.79.53,3.42.76,4.9.7,1.48-.06,2.74-.4,3.79-1,1.05-.61,1.63-1.34,1.74-2.19.11-.85-.3-1.79-1.22-2.82-.92-1.03-2.34-2.1-4.26-3.21ZM211.03,204.44c-.6.35-1.49.37-2.67.08-1.18-.29-2.87-1.07-5.05-2.33-2.17-1.25-3.48-2.21-3.95-2.87-.47-.66-.4-1.17.2-1.51.6-.35,1.47-.38,2.61-.11,1.14.27,2.79,1.04,4.96,2.29,2.18,1.26,3.53,2.23,4.04,2.91.51.68.47,1.19-.13,1.54Z"></path>
          <path class="cls-4" d="M222.12,191.33c-1.92-1.11-3.75-1.92-5.5-2.43-1.75-.51-3.34-.73-4.79-.66-1.45.07-2.7.41-3.76,1.03-1.06.61-1.66,1.34-1.79,2.17-.13.83.24,1.75,1.12,2.77.88,1.02,2.28,2.08,4.2,3.19,1.92,1.11,3.78,1.93,5.57,2.45,1.79.53,3.42.76,4.9.7,1.48-.06,2.74-.4,3.79-1,1.05-.61,1.63-1.34,1.74-2.19.11-.85-.3-1.79-1.22-2.82-.92-1.03-2.34-2.1-4.26-3.21ZM222.68,197.72c-.6.35-1.49.37-2.67.08-1.18-.29-2.87-1.07-5.05-2.33-2.17-1.25-3.48-2.21-3.95-2.87-.47-.66-.4-1.17.2-1.51.6-.35,1.47-.38,2.61-.11,1.14.27,2.79,1.04,4.96,2.29,2.18,1.26,3.53,2.23,4.04,2.91.51.68.47,1.19-.13,1.54Z"></path>
          <polygon class="cls-2" points="141.61 218.56 141.61 243.01 241.5 300.69 241.5 276.23 162.78 230.79 141.61 218.56"></polygon>
          <path class="cls-4" d="M417.2,176.23c0-.89-.48-1.72-1.25-2.17l-100-57.73c-.77-.45-1.73-.45-2.5,0l-173.2,100c-.78.45-1.26,1.29-1.25,2.19,0,.24.04.48.11.71v23.78c0,.89.48,1.72,1.25,2.17l99.89,57.68,1.23-2.13h0l-1.18,2.17.11.06c.37.2.78.3,1.2.3.43,0,.86-.11,1.25-.33l173.21-100c.77-.44,1.25-1.26,1.25-2.15,0-.27-.04-.53-.12-.77v-23.76ZM412.2,199.37l-170.59,98.49-97.5-56.3v-21.69l170.59-98.49,97.5,56.29v21.7Z"></path>
        </g>
        <g>
          <polygon class="cls-5" points="324.92 209.59 324.7 209.46 257.15 170.46 256.91 170.33 240.93 161.09 237.68 159.22 212.03 174.03 215.28 175.9 231.28 185.15 231.5 185.27 299.05 224.27 299.28 224.4 315.27 233.64 317.77 235.08 343.42 220.27 340.92 218.83 324.92 209.59"></polygon>
          <polygon class="cls-7" points="317.77 260.31 343.42 245.38 343.42 220.27 317.77 235.08 317.77 260.31"></polygon>
        </g>
        <path class="cls-4" d="M343.92,219.4l-86.29-49.82-19.45-11.23c-.31-.18-.69-.18-1,0l-25.65,14.81c-.31.18-.5.51-.5.87s.19.69.5.87l87.03,50.24,18.21,10.52v24.65c0,.36.19.69.5.87.15.09.33.13.5.13s.35-.04.5-.14l25.65-14.93c.31-.18.5-.51.5-.86v-25.11c0-.36-.19-.69-.5-.87ZM342.42,244.8l-23.65,13.77v-23.49c0-.36-.19-.69-.5-.87l-86.29-49.82-17.95-10.36,23.65-13.65,86.51,49.95,18.23,10.53v23.96Z"></path>
      </g>
      <g>
        <g>
          <polygon class="cls-3" points="429.7 133.23 408.53 145.46 256.5 233.23 256.5 257.69 256.61 257.75 429.82 157.75 429.7 157.68 429.7 133.23"></polygon>
          <polygon class="cls-1" points="156.5 175.5 156.61 175.56 177.78 187.79 256.5 233.23 408.53 145.46 429.7 133.23 329.7 75.5 156.5 175.5"></polygon>
          <path class="cls-2" d="M275.1,125.76c-8.44.11-16.02,1.69-21.57,4.9-5.47,3.16-8.54,7.54-8.93,12.71l-56.31,32.51,67.55,39,55.28-31.91c8.43-.11,16.01-1.69,21.55-4.89,5.47-3.16,8.54-7.54,8.93-12.71l56.31-32.51-67.55-39-55.26,31.9Z"></path>
          <path class="cls-6" d="M319.67,139.02c-21.44-12.38-50.71-15.54-65.39-7.07-14.67,8.47-9.19,25.37,12.25,37.75,21.44,12.38,50.71,15.54,65.39,7.07,14.67-8.47,9.19-25.37-12.25-37.75Z"></path>
          <path class="cls-4" d="M192.78,180.11l-13.85-8-2.61,1.51c-.15.53-.38,1.03-.7,1.5-.32.47-.79.98-1.4,1.53l2.53,1.46,2.73-1.58,9.75,5.63-3.15,1.82,3.32,1.92,9.38-5.41-3.32-1.92-2.67,1.54Z"></path>
          <path class="cls-4" d="M202.16,168.52c-1.92-1.11-3.75-1.92-5.5-2.43-1.75-.51-3.34-.73-4.79-.66-1.45.07-2.7.41-3.76,1.03-1.06.61-1.66,1.34-1.79,2.17-.13.83.24,1.75,1.12,2.77.88,1.02,2.28,2.08,4.2,3.19,1.92,1.11,3.78,1.93,5.57,2.45,1.79.53,3.42.76,4.9.7,1.48-.06,2.74-.4,3.79-1,1.05-.61,1.63-1.34,1.74-2.19.11-.85-.3-1.79-1.22-2.82-.92-1.03-2.34-2.1-4.26-3.21ZM202.72,174.9c-.6.35-1.49.37-2.67.08-1.18-.29-2.87-1.07-5.05-2.33-2.17-1.25-3.48-2.21-3.95-2.87-.47-.66-.4-1.17.2-1.51.6-.35,1.47-.38,2.61-.11,1.14.27,2.79,1.04,4.96,2.29,2.18,1.26,3.53,2.23,4.04,2.91.51.68.47,1.19-.13,1.54Z"></path>
          <path class="cls-4" d="M213.81,161.79c-1.92-1.11-3.75-1.92-5.5-2.43-1.75-.51-3.34-.73-4.79-.66-1.45.07-2.7.41-3.76,1.03-1.06.61-1.66,1.34-1.79,2.17-.13.83.24,1.75,1.12,2.77.88,1.02,2.28,2.08,4.2,3.19,1.92,1.11,3.78,1.93,5.57,2.45,1.79.53,3.42.76,4.9.7,1.48-.06,2.74-.4,3.79-1s1.63-1.34,1.74-2.19c.11-.85-.3-1.79-1.22-2.82-.92-1.03-2.34-2.1-4.26-3.21ZM214.37,168.17c-.6.35-1.49.37-2.67.08-1.18-.29-2.87-1.07-5.05-2.33-2.17-1.25-3.48-2.21-3.95-2.87-.47-.66-.4-1.17.2-1.51.6-.35,1.47-.38,2.61-.11,1.14.27,2.79,1.04,4.96,2.29,2.18,1.26,3.53,2.23,4.04,2.91.51.68.47,1.19-.13,1.54Z"></path>
          <path class="cls-4" d="M225.47,155.06c-1.92-1.11-3.75-1.92-5.5-2.43-1.75-.51-3.34-.73-4.79-.66-1.45.07-2.7.41-3.76,1.03-1.06.61-1.66,1.34-1.79,2.17-.13.83.24,1.75,1.12,2.77.88,1.02,2.28,2.08,4.2,3.19,1.92,1.11,3.78,1.93,5.57,2.45,1.79.53,3.42.76,4.9.7,1.48-.06,2.74-.4,3.79-1,1.05-.61,1.63-1.34,1.74-2.19.11-.85-.3-1.79-1.22-2.82-.92-1.03-2.34-2.1-4.26-3.21ZM226.03,161.44c-.6.35-1.49.37-2.67.08-1.18-.29-2.87-1.07-5.05-2.33-2.17-1.25-3.48-2.21-3.95-2.87-.47-.66-.4-1.17.2-1.51.6-.35,1.47-.38,2.61-.11,1.14.27,2.79,1.04,4.96,2.29,2.18,1.26,3.53,2.23,4.04,2.91.51.68.47,1.19-.13,1.54Z"></path>
          <path class="cls-4" d="M237.12,148.33c-1.92-1.11-3.75-1.92-5.5-2.43-1.75-.51-3.34-.73-4.79-.66-1.45.07-2.7.41-3.76,1.03-1.06.61-1.66,1.34-1.79,2.17-.13.83.24,1.75,1.12,2.77.88,1.02,2.28,2.08,4.2,3.19,1.92,1.11,3.78,1.93,5.57,2.45,1.79.53,3.42.76,4.9.7,1.48-.06,2.74-.4,3.79-1,1.05-.61,1.63-1.34,1.74-2.19.11-.85-.3-1.79-1.22-2.82-.92-1.03-2.34-2.1-4.26-3.21ZM237.68,154.72c-.6.35-1.49.37-2.67.08-1.18-.29-2.87-1.07-5.05-2.33-2.17-1.25-3.48-2.21-3.95-2.87-.47-.66-.4-1.17.2-1.51.6-.35,1.47-.38,2.61-.11,1.14.27,2.79,1.04,4.96,2.29,2.18,1.26,3.53,2.23,4.04,2.91.51.68.47,1.19-.13,1.54Z"></path>
          <polygon class="cls-2" points="156.61 175.56 156.61 200.01 256.5 257.69 256.5 233.23 177.78 187.79 156.61 175.56"></polygon>
          <path class="cls-4" d="M432.2,133.23c0-.89-.48-1.72-1.25-2.17l-100-57.73c-.77-.45-1.73-.45-2.5,0l-173.2,100c-.78.45-1.26,1.29-1.25,2.19,0,.24.04.48.11.71v23.78c0,.89.48,1.72,1.25,2.17l99.89,57.68,1.23-2.13h0l-1.18,2.17.11.06c.37.2.78.3,1.2.3.43,0,.86-.11,1.25-.33l173.21-100c.77-.44,1.25-1.26,1.25-2.15,0-.27-.04-.53-.12-.77v-23.76ZM427.2,156.37l-170.59,98.49-97.5-56.3v-21.69l170.59-98.49,97.5,56.29v21.7Z"></path>
        </g>
        <g>
          <polygon class="cls-5" points="339.92 166.59 339.7 166.46 272.15 127.46 271.91 127.33 255.93 118.09 252.68 116.22 227.03 131.03 230.28 132.9 246.28 142.15 246.5 142.27 314.05 181.27 314.28 181.4 330.27 190.64 332.77 192.08 358.42 177.27 355.92 175.83 339.92 166.59"></polygon>
          <polygon class="cls-7" points="332.77 217.31 358.42 202.38 358.42 177.27 332.77 192.08 332.77 217.31"></polygon>
        </g>
        <path class="cls-4" d="M358.92,176.4l-86.29-49.82-19.45-11.23c-.31-.18-.69-.18-1,0l-25.65,14.81c-.31.18-.5.51-.5.87s.19.69.5.87l87.03,50.24,18.21,10.52v24.65c0,.36.19.69.5.87.15.09.33.13.5.13s.35-.04.5-.14l25.65-14.93c.31-.18.5-.51.5-.86v-25.11c0-.36-.19-.69-.5-.87ZM357.42,201.8l-23.65,13.77v-23.49c0-.36-.19-.69-.5-.87l-86.29-49.82-17.95-10.36,23.65-13.65,86.51,49.95,18.23,10.53v23.96Z"></path>
      </g>
      <g>
        <g>
          <polygon class="cls-3" points="392.7 60.23 371.53 72.46 219.5 160.23 219.5 184.69 219.61 184.75 392.82 84.75 392.7 84.68 392.7 60.23"></polygon>
          <polygon class="cls-1" points="119.5 102.5 119.61 102.56 140.78 114.79 219.5 160.23 371.53 72.46 392.7 60.23 292.7 2.5 119.5 102.5"></polygon>
          <path class="cls-2" d="M238.1,52.76c-8.44.11-16.02,1.69-21.57,4.9-5.47,3.16-8.54,7.54-8.93,12.71l-56.31,32.51,67.55,39,55.28-31.91c8.43-.11,16.01-1.69,21.55-4.89,5.47-3.16,8.54-7.54,8.93-12.71l56.31-32.51-67.55-39-55.26,31.9Z"></path>
          <path class="cls-6" d="M282.67,66.02c-21.44-12.38-50.71-15.54-65.39-7.07-14.67,8.47-9.19,25.37,12.25,37.75,21.44,12.38,50.71,15.54,65.39,7.07,14.67-8.47,9.19-25.37-12.25-37.75Z"></path>
          <path class="cls-4" d="M155.78,107.11l-13.85-8-2.61,1.51c-.15.53-.38,1.03-.7,1.5-.32.47-.79.98-1.4,1.53l2.53,1.46,2.73-1.58,9.75,5.63-3.15,1.82,3.32,1.92,9.38-5.41-3.32-1.92-2.67,1.54Z"></path>
          <path class="cls-4" d="M165.16,95.52c-1.92-1.11-3.75-1.92-5.5-2.43-1.75-.51-3.34-.73-4.79-.66-1.45.07-2.7.41-3.76,1.03-1.06.61-1.66,1.34-1.79,2.17-.13.83.24,1.75,1.12,2.77.88,1.02,2.28,2.08,4.2,3.19,1.92,1.11,3.78,1.93,5.57,2.45,1.79.53,3.42.76,4.9.7,1.48-.06,2.74-.4,3.79-1,1.05-.61,1.63-1.34,1.74-2.19.11-.85-.3-1.79-1.22-2.82-.92-1.03-2.34-2.1-4.26-3.21ZM165.72,101.9c-.6.35-1.49.37-2.67.08-1.18-.29-2.87-1.07-5.05-2.33-2.17-1.25-3.48-2.21-3.95-2.87-.47-.66-.4-1.17.2-1.51.6-.35,1.47-.38,2.61-.11,1.14.27,2.79,1.04,4.96,2.29,2.18,1.26,3.53,2.23,4.04,2.91.51.68.47,1.19-.13,1.54Z"></path>
          <path class="cls-4" d="M176.81,88.79c-1.92-1.11-3.75-1.92-5.5-2.43-1.75-.51-3.34-.73-4.79-.66-1.45.07-2.7.41-3.76,1.03-1.06.61-1.66,1.34-1.79,2.17-.13.83.24,1.75,1.12,2.77.88,1.02,2.28,2.08,4.2,3.19,1.92,1.11,3.78,1.93,5.57,2.45,1.79.53,3.42.76,4.9.7,1.48-.06,2.74-.4,3.79-1s1.63-1.34,1.74-2.19c.11-.85-.3-1.79-1.22-2.82-.92-1.03-2.34-2.1-4.26-3.21ZM177.37,95.17c-.6.35-1.49.37-2.67.08-1.18-.29-2.87-1.07-5.05-2.33-2.17-1.25-3.48-2.21-3.95-2.87-.47-.66-.4-1.17.2-1.51.6-.35,1.47-.38,2.61-.11,1.14.27,2.79,1.04,4.96,2.29,2.18,1.26,3.53,2.23,4.04,2.91.51.68.47,1.19-.13,1.54Z"></path>
          <path class="cls-4" d="M188.47,82.06c-1.92-1.11-3.75-1.92-5.5-2.43-1.75-.51-3.34-.73-4.79-.66-1.45.07-2.7.41-3.76,1.03-1.06.61-1.66,1.34-1.79,2.17-.13.83.24,1.75,1.12,2.77.88,1.02,2.28,2.08,4.2,3.19,1.92,1.11,3.78,1.93,5.57,2.45,1.79.53,3.42.76,4.9.7,1.48-.06,2.74-.4,3.79-1,1.05-.61,1.63-1.34,1.74-2.19.11-.85-.3-1.79-1.22-2.82-.92-1.03-2.34-2.1-4.26-3.21ZM189.03,88.44c-.6.35-1.49.37-2.67.08-1.18-.29-2.87-1.07-5.05-2.33-2.17-1.25-3.48-2.21-3.95-2.87-.47-.66-.4-1.17.2-1.51.6-.35,1.47-.38,2.61-.11,1.14.27,2.79,1.04,4.96,2.29,2.18,1.26,3.53,2.23,4.04,2.91.51.68.47,1.19-.13,1.54Z"></path>
          <path class="cls-4" d="M200.12,75.33c-1.92-1.11-3.75-1.92-5.5-2.43-1.75-.51-3.34-.73-4.79-.66-1.45.07-2.7.41-3.76,1.03-1.06.61-1.66,1.34-1.79,2.17-.13.83.24,1.75,1.12,2.77.88,1.02,2.28,2.08,4.2,3.19,1.92,1.11,3.78,1.93,5.57,2.45,1.79.53,3.42.76,4.9.7,1.48-.06,2.74-.4,3.79-1,1.05-.61,1.63-1.34,1.74-2.19.11-.85-.3-1.79-1.22-2.82-.92-1.03-2.34-2.1-4.26-3.21ZM200.68,81.72c-.6.35-1.49.37-2.67.08-1.18-.29-2.87-1.07-5.05-2.33-2.17-1.25-3.48-2.21-3.95-2.87-.47-.66-.4-1.17.2-1.51.6-.35,1.47-.38,2.61-.11,1.14.27,2.79,1.04,4.96,2.29,2.18,1.26,3.53,2.23,4.04,2.91.51.68.47,1.19-.13,1.54Z"></path>
          <polygon class="cls-2" points="119.61 102.56 119.61 127.01 219.5 184.69 219.5 160.23 140.78 114.79 119.61 102.56"></polygon>
          <path class="cls-4" d="M395.2,60.23c0-.89-.48-1.72-1.25-2.17L293.95.33c-.77-.45-1.73-.45-2.5,0L118.25,100.33c-.78.45-1.26,1.29-1.25,2.19,0,.24.04.48.11.7v23.78c0,.89.48,1.72,1.25,2.17l99.89,57.68,1.23-2.13h0l-1.18,2.17.11.06c.37.2.78.3,1.2.3.43,0,.86-.11,1.25-.33l173.21-100c.77-.45,1.25-1.27,1.25-2.16,0-.27-.04-.53-.12-.77v-23.76ZM390.2,83.38l-170.59,98.49-97.5-56.3v-21.69L292.7,5.39l97.5,56.29v21.7Z"></path>
        </g>
        <g>
          <polygon class="cls-5" points="302.92 93.59 302.7 93.46 235.15 54.46 234.91 54.33 218.93 45.09 215.68 43.22 190.03 58.03 193.28 59.9 209.28 69.15 209.5 69.27 277.05 108.27 277.28 108.4 293.27 117.64 295.77 119.08 321.42 104.27 318.92 102.83 302.92 93.59"></polygon>
          <polygon class="cls-7" points="295.77 144.31 321.42 129.38 321.42 104.27 295.77 119.08 295.77 144.31"></polygon>
        </g>
        <path class="cls-4" d="M321.92,103.4l-86.29-49.82-19.45-11.23c-.31-.18-.69-.18-1,0l-25.65,14.81c-.31.18-.5.51-.5.87s.19.69.5.87l87.03,50.24,18.21,10.52v24.65c0,.36.19.69.5.87.15.09.33.13.5.13s.35-.04.5-.14l25.65-14.93c.31-.18.5-.51.5-.86v-25.11c0-.36-.19-.69-.5-.87ZM320.42,128.8l-23.65,13.77v-23.49c0-.36-.19-.69-.5-.87l-86.29-49.82-17.95-10.36,23.65-13.65,86.51,49.95,18.23,10.53v23.96Z"></path>
      </g>
    </g>
  </g>
</svg>