<?xml version="1.0"?>
<svg id="_レイヤー_2" data-name="レイヤー 2" xmlns="http://www.w3.org/2000/svg" viewBox="0 0 258.53 249.95">
  <defs>
    
  </defs>
  <g id="_1" data-name="1">
    <g>
      <g>
        <g>
          <rect class="cls-1" x="13.57" y="116.26" width="200" height="100" transform="translate(-50.02 48.87) rotate(-20)"></rect>
          <path class="cls-3" d="M192.79,84.22c-.23-.62-.69-1.13-1.29-1.41-.6-.28-1.29-.31-1.91-.08L1.64,151.13c-.62.23-1.13.69-1.41,1.29-.28.6-.31,1.29-.08,1.91l34.2,93.97c.37,1.01,1.33,1.65,2.35,1.65.28,0,.57-.05.86-.15l187.94-68.4c.62-.23,1.13-.69,1.41-1.29s.31-1.29.08-1.91l-34.2-93.97ZM38.2,244.24L5.7,154.97l183.24-66.69,32.49,89.27L38.2,244.24Z"></path>
        </g>
        <rect class="cls-2" x="31.55" y="132.49" width="164.05" height="67.55" transform="translate(-50.02 48.87) rotate(-20)"></rect>
        <g>
          <ellipse class="cls-4" cx="113.57" cy="166.26" rx="30.68" ry="38.82" transform="translate(-50.01 48.87) rotate(-20)"></ellipse>
          <path class="cls-2" d="M99.78,128.37c-16.67,6.07-24.05,28-16.45,48.89,6.27,17.23,20.8,28.45,35.06,28.45,3.03,0,6.05-.51,8.97-1.57,16.67-6.07,24.05-28,16.45-48.89-7.6-20.89-27.36-32.95-44.03-26.88ZM126.34,201.33c-15.12,5.5-33.15-5.75-40.18-25.09-7.04-19.34-.46-39.55,14.66-45.05,2.6-.95,5.28-1.4,7.98-1.4,13.01,0,26.37,10.47,32.2,26.48,7.04,19.34.46,39.55-14.66,45.05Z"></path>
        </g>
        <g>
          <path class="cls-3" d="M25.42,168.69l-4.74-13.01-2.84,1.03c-.45.57-.93,1.08-1.46,1.54-.53.45-1.19.92-1.98,1.38l.87,2.38,2.97-1.08,3.33,9.16-3.42,1.25,1.13,3.12,10.18-3.7-1.13-3.12-2.9,1.06Z"></path>
          <path class="cls-3" d="M37.21,153.55c-.92-1.06-1.92-1.75-2.99-2.06-1.08-.31-2.19-.26-3.35.16-1.16.42-2.05,1.09-2.67,2.02-.63.92-.95,2.09-.98,3.51-.02,1.42.29,3.02.95,4.83.66,1.8,1.45,3.26,2.39,4.35.94,1.1,1.95,1.81,3.05,2.14,1.09.33,2.21.29,3.35-.13,1.14-.41,2.02-1.1,2.65-2.06.63-.95.94-2.15.95-3.59,0-1.44-.32-3.06-.97-4.87-.66-1.8-1.44-3.24-2.36-4.3ZM35.87,165.38c-.65.24-1.3.02-1.96-.64-.66-.66-1.36-2.01-2.1-4.06-.74-2.04-1.07-3.5-.97-4.39.09-.89.46-1.46,1.11-1.69.65-.24,1.29-.04,1.93.59.64.63,1.33,1.96,2.07,3.99.75,2.05,1.08,3.54,1.01,4.46-.07.93-.43,1.51-1.08,1.74Z"></path>
          <path class="cls-3" d="M49.86,148.95c-.92-1.06-1.92-1.75-2.99-2.06-1.08-.31-2.19-.26-3.35.16-1.16.42-2.05,1.09-2.67,2.02-.63.92-.95,2.09-.98,3.51-.02,1.42.29,3.02.95,4.83.66,1.8,1.45,3.26,2.39,4.35.94,1.1,1.95,1.81,3.05,2.14,1.09.33,2.21.29,3.35-.13,1.14-.41,2.02-1.1,2.65-2.06.63-.95.94-2.15.95-3.59,0-1.44-.32-3.06-.97-4.87-.66-1.8-1.44-3.24-2.36-4.3ZM48.51,160.78c-.65.24-1.3.02-1.96-.64-.66-.66-1.36-2.01-2.1-4.06-.74-2.04-1.07-3.5-.97-4.39.09-.89.46-1.46,1.11-1.69.65-.24,1.29-.04,1.93.59.64.63,1.33,1.96,2.07,3.99.75,2.05,1.08,3.54,1.01,4.46-.07.93-.43,1.51-1.08,1.74Z"></path>
          <path class="cls-3" d="M62.5,144.34c-.92-1.06-1.92-1.75-2.99-2.06-1.08-.31-2.19-.26-3.35.16-1.16.42-2.05,1.09-2.67,2.02-.63.92-.95,2.09-.98,3.51-.02,1.42.29,3.02.95,4.83.66,1.8,1.45,3.26,2.39,4.35.94,1.1,1.95,1.81,3.05,2.14,1.09.33,2.21.29,3.35-.13,1.14-.42,2.02-1.1,2.65-2.06.63-.95.94-2.15.95-3.59,0-1.44-.32-3.06-.97-4.87-.66-1.8-1.44-3.24-2.36-4.3ZM61.16,156.17c-.65.24-1.3.02-1.96-.64-.66-.66-1.36-2.01-2.1-4.06-.74-2.04-1.07-3.5-.97-4.39.09-.89.46-1.46,1.11-1.69.65-.24,1.29-.04,1.93.59.64.63,1.33,1.96,2.07,3.99.75,2.05,1.08,3.54,1.01,4.46-.07.93-.43,1.51-1.08,1.74Z"></path>
          <path class="cls-3" d="M75.15,139.74c-.92-1.06-1.92-1.75-2.99-2.06-1.08-.31-2.19-.26-3.35.16-1.16.42-2.05,1.09-2.67,2.02-.63.92-.95,2.09-.98,3.51-.02,1.42.29,3.02.95,4.83.66,1.8,1.45,3.26,2.39,4.35.94,1.1,1.95,1.81,3.05,2.14,1.09.33,2.21.29,3.35-.13,1.14-.41,2.02-1.1,2.65-2.06.63-.95.94-2.15.95-3.59,0-1.44-.32-3.06-.97-4.87-.66-1.8-1.44-3.24-2.36-4.3ZM73.8,151.57c-.65.24-1.3.02-1.96-.64-.66-.66-1.36-2.01-2.1-4.06-.74-2.04-1.07-3.5-.97-4.39.09-.89.46-1.46,1.11-1.69.65-.24,1.29-.04,1.93.59.64.63,1.33,1.96,2.07,3.99.75,2.05,1.08,3.54,1.01,4.46-.07.93-.43,1.51-1.08,1.74Z"></path>
        </g>
      </g>
      <g>
        <g>
          <rect class="cls-1" x="15.59" y="98.14" width="200" height="100" transform="translate(-12.47 10.64) rotate(-5)"></rect>
          <path class="cls-3" d="M210.63,87.12L11.4,104.55c-1.38.12-2.39,1.33-2.27,2.71l8.71,99.62c.06.66.38,1.27.88,1.7.45.38,1.02.58,1.61.58.07,0,.15,0,.22,0l199.24-17.43c.66-.06,1.27-.38,1.7-.88.43-.51.63-1.17.58-1.83l-8.72-99.62c-.12-1.38-1.34-2.4-2.71-2.27ZM22.6,203.95l-8.28-94.64,194.26-17,8.28,94.64-194.26,17Z"></path>
        </g>
        <rect class="cls-2" x="33.57" y="114.36" width="164.05" height="67.55" transform="translate(-12.47 10.64) rotate(-5)"></rect>
        <g>
          <ellipse class="cls-4" cx="115.59" cy="148.14" rx="30.68" ry="38.82" transform="translate(-12.47 10.64) rotate(-5)"></ellipse>
          <path class="cls-2" d="M135.9,117.87c-6.73-7.14-15.19-10.66-23.82-9.9-17.68,1.55-30.48,20.82-28.54,42.97.93,10.66,5.1,20.42,11.75,27.46,6.13,6.5,13.7,10,21.52,10,.76,0,1.53-.03,2.3-.1,8.63-.75,16.35-5.69,21.74-13.89,5.32-8.09,7.73-18.42,6.8-29.08-.93-10.66-5.1-20.42-11.75-27.46ZM138.34,172.77c-4.88,7.42-11.8,11.87-19.5,12.55-7.7.66-15.29-2.51-21.38-8.97-6.18-6.55-10.07-15.67-10.94-25.66-1.79-20.5,9.79-38.32,25.82-39.72.68-.06,1.35-.09,2.02-.09,6.99,0,13.8,3.17,19.36,9.06,6.18,6.55,10.07,15.67,10.94,25.66.88,9.99-1.37,19.64-6.32,27.17Z"></path>
        </g>
        <g>
          <path class="cls-3" d="M29.82,127.67l-1.21-13.8-3.01.26c-.58.44-1.18.81-1.81,1.11-.63.3-1.39.58-2.28.82l.22,2.53,3.14-.28.85,9.71-3.63.32.29,3.31,10.79-.94-.29-3.31-3.08.27Z"></path>
          <path class="cls-3" d="M45.12,116.09c-.61-1.26-1.4-2.19-2.36-2.77-.96-.58-2.05-.82-3.28-.71-1.22.11-2.26.53-3.11,1.25-.85.73-1.46,1.77-1.85,3.13-.39,1.36-.5,3-.33,4.91.17,1.91.56,3.52,1.19,4.82.62,1.3,1.42,2.25,2.39,2.86.97.6,2.06.85,3.27.74,1.21-.11,2.24-.54,3.09-1.3.85-.76,1.47-1.84,1.85-3.23.38-1.39.49-3.04.32-4.95-.17-1.91-.56-3.5-1.17-4.77ZM42.26,125.77c-.31.88-.81,1.34-1.5,1.4-.69.06-1.27-.31-1.73-1.12-.46-.81-.79-2.3-.98-4.47-.19-2.16-.12-3.66.2-4.49.32-.84.82-1.29,1.51-1.35.69-.06,1.26.29,1.71,1.06.45.77.77,2.23.96,4.39.19,2.17.13,3.7-.18,4.57Z"></path>
          <path class="cls-3" d="M58.53,114.92c-.61-1.26-1.4-2.19-2.36-2.77-.96-.58-2.05-.82-3.28-.71-1.22.11-2.26.53-3.11,1.26-.85.73-1.46,1.77-1.85,3.13-.39,1.36-.5,3-.33,4.91.17,1.91.56,3.52,1.19,4.82.62,1.3,1.42,2.25,2.39,2.86.97.6,2.06.85,3.27.74s2.24-.54,3.09-1.3c.85-.76,1.47-1.84,1.85-3.23.38-1.39.49-3.04.32-4.95-.17-1.91-.56-3.5-1.17-4.77ZM55.66,124.6c-.31.88-.81,1.34-1.5,1.4-.69.06-1.27-.31-1.73-1.12-.46-.81-.79-2.3-.98-4.47-.19-2.16-.12-3.66.2-4.49.32-.84.82-1.29,1.51-1.35.69-.06,1.26.29,1.71,1.06.45.77.77,2.23.96,4.39.19,2.17.13,3.7-.18,4.57Z"></path>
          <path class="cls-3" d="M71.93,113.75c-.61-1.26-1.4-2.19-2.36-2.77-.96-.58-2.05-.82-3.28-.71-1.22.11-2.26.53-3.11,1.26-.85.73-1.46,1.77-1.85,3.13-.39,1.36-.5,3-.33,4.91.17,1.91.56,3.52,1.19,4.82.62,1.3,1.42,2.25,2.39,2.86.97.6,2.06.85,3.27.74,1.21-.11,2.24-.54,3.09-1.3.85-.76,1.47-1.84,1.85-3.23.38-1.39.49-3.04.32-4.95-.17-1.91-.56-3.5-1.17-4.77ZM69.07,123.43c-.31.88-.81,1.34-1.5,1.4-.69.06-1.26-.31-1.73-1.12-.46-.81-.79-2.3-.98-4.47-.19-2.16-.12-3.66.2-4.49.32-.84.82-1.29,1.51-1.35.69-.06,1.26.29,1.71,1.06.45.77.77,2.23.96,4.39.19,2.17.13,3.7-.18,4.57Z"></path>
          <path class="cls-3" d="M85.34,112.58c-.61-1.26-1.4-2.19-2.36-2.77-.96-.58-2.05-.82-3.28-.71-1.22.11-2.26.53-3.11,1.25-.85.73-1.46,1.77-1.85,3.13-.39,1.36-.5,3-.33,4.91.17,1.91.56,3.52,1.19,4.82.62,1.3,1.42,2.25,2.39,2.86.97.6,2.06.85,3.27.74,1.21-.11,2.24-.54,3.09-1.3.85-.76,1.47-1.84,1.85-3.23.38-1.39.49-3.04.32-4.95-.17-1.91-.56-3.5-1.17-4.77ZM82.47,122.25c-.31.88-.81,1.34-1.5,1.4-.69.06-1.27-.31-1.73-1.12-.46-.81-.79-2.3-.98-4.47-.19-2.16-.12-3.66.2-4.49.32-.84.82-1.29,1.51-1.35.69-.06,1.26.29,1.71,1.06.45.77.77,2.23.96,4.39.19,2.17.13,3.7-.18,4.57Z"></path>
        </g>
      </g>
      <g>
        <g>
          <rect class="cls-1" x="72.23" y="31.15" width="100" height="200" transform="translate(-28.16 228.75) rotate(-80)"></rect>
          <path class="cls-3" d="M229.83,96.82L32.87,62.09c-.65-.11-1.33.03-1.87.41-.54.38-.91.96-1.03,1.61l-17.36,98.48c-.24,1.36.67,2.66,2.03,2.9l196.96,34.73c.15.03.29.04.44.04,1.19,0,2.25-.85,2.46-2.07l17.37-98.48c.12-.65-.03-1.33-.41-1.87-.38-.54-.96-.91-1.61-1.03ZM210,194.86L17.96,161l16.5-93.56,192.04,33.86-16.5,93.56Z"></path>
        </g>
        <rect class="cls-2" x="88.46" y="49.13" width="67.55" height="164.05" transform="translate(-28.16 228.75) rotate(-80)"></rect>
        <g>
          <ellipse class="cls-4" cx="122.23" cy="131.15" rx="38.82" ry="30.68" transform="translate(-28.16 228.75) rotate(-80)"></ellipse>
          <path class="cls-2" d="M129.23,91.45c-17.48-3.08-34.83,12.23-38.69,34.12-3.86,21.89,7.22,42.21,24.69,45.3,1.52.27,3.04.4,4.57.4,7.03,0,14-2.82,20.03-8.19,7.23-6.44,12.24-15.79,14.1-26.33,1.86-10.54.35-21.04-4.24-29.57-4.66-8.64-11.92-14.23-20.45-15.73ZM150.97,136.22c-1.74,9.88-6.41,18.62-13.14,24.61-6.63,5.9-14.47,8.42-22.08,7.07-15.85-2.79-25.83-21.55-22.26-41.82,3.27-18.56,16.79-32.04,31.21-32.04,1.33,0,2.67.11,4,.35,7.61,1.34,14.12,6.38,18.33,14.2,4.27,7.93,5.67,17.74,3.93,27.62Z"></path>
        </g>
        <g>
          <path class="cls-3" d="M47.08,75.55l-2.97-.52c-.67.27-1.35.47-2.04.6-.69.13-1.49.2-2.41.21l-.44,2.5,3.11.55-1.69,9.6-3.59-.63-.58,3.27,10.67,1.88.58-3.27-3.04-.54,2.4-13.64Z"></path>
          <path class="cls-3" d="M60.9,78.68c-.78-.81-1.77-1.32-2.98-1.53-1.21-.21-2.32-.08-3.32.41-1.01.49-1.87,1.33-2.6,2.55-.73,1.21-1.26,2.77-1.59,4.66-.33,1.89-.37,3.55-.1,4.97.26,1.42.79,2.55,1.57,3.38.78.83,1.77,1.35,2.96,1.56,1.19.21,2.3.06,3.32-.46,1.02-.51,1.89-1.39,2.62-2.64.73-1.24,1.26-2.81,1.59-4.7.33-1.89.37-3.53.1-4.91-.26-1.38-.78-2.47-1.56-3.28ZM58.54,86.2c-.38,2.15-.83,3.61-1.36,4.37-.53.77-1.13,1.09-1.81.97-.68-.12-1.14-.63-1.38-1.53-.24-.9-.17-2.42.21-4.57.38-2.13.83-3.56,1.35-4.29.53-.73,1.13-1.03,1.81-.91s1.14.61,1.38,1.47c.24.86.17,2.36-.21,4.49Z"></path>
          <path class="cls-3" d="M74.15,81.02c-.78-.81-1.77-1.32-2.98-1.53-1.21-.21-2.32-.08-3.32.41-1.01.49-1.87,1.34-2.6,2.55-.73,1.21-1.26,2.77-1.59,4.66-.33,1.89-.37,3.55-.1,4.97.26,1.42.79,2.55,1.57,3.38.78.83,1.77,1.35,2.96,1.56,1.2.21,2.3.06,3.32-.46,1.02-.51,1.89-1.39,2.62-2.64.73-1.24,1.26-2.81,1.59-4.7.33-1.89.37-3.53.1-4.91-.26-1.38-.78-2.47-1.56-3.28ZM71.79,88.54c-.38,2.15-.83,3.61-1.36,4.37-.53.77-1.13,1.09-1.81.97-.68-.12-1.14-.63-1.38-1.53-.24-.9-.17-2.42.21-4.57.38-2.13.83-3.56,1.35-4.29.53-.73,1.13-1.03,1.81-.91.68.12,1.14.61,1.38,1.47.24.86.17,2.36-.21,4.49Z"></path>
          <path class="cls-3" d="M87.4,83.36c-.78-.81-1.77-1.32-2.98-1.53-1.21-.21-2.32-.08-3.32.41-1.01.49-1.87,1.34-2.6,2.55-.73,1.21-1.26,2.77-1.59,4.66-.33,1.89-.37,3.55-.1,4.97.26,1.42.79,2.55,1.57,3.38.78.83,1.77,1.35,2.96,1.56,1.19.21,2.3.06,3.32-.46,1.02-.51,1.89-1.39,2.62-2.64.73-1.24,1.26-2.81,1.59-4.7.33-1.89.37-3.53.1-4.91-.26-1.38-.78-2.47-1.56-3.28ZM85.05,90.87c-.38,2.15-.83,3.61-1.36,4.37-.53.77-1.13,1.09-1.81.97s-1.14-.63-1.38-1.53c-.24-.9-.17-2.42.21-4.57.38-2.13.83-3.56,1.35-4.29.53-.73,1.13-1.03,1.81-.91s1.14.61,1.38,1.47c.24.86.17,2.36-.21,4.49Z"></path>
          <path class="cls-3" d="M100.65,85.69c-.78-.81-1.77-1.32-2.98-1.53-1.21-.21-2.32-.08-3.32.41-1.01.49-1.87,1.33-2.6,2.55-.73,1.21-1.26,2.77-1.59,4.66-.33,1.89-.37,3.55-.1,4.97.26,1.42.79,2.55,1.57,3.38.78.83,1.77,1.35,2.96,1.56,1.19.21,2.3.06,3.32-.46,1.02-.51,1.89-1.39,2.62-2.64.73-1.24,1.26-2.81,1.59-4.7.33-1.89.37-3.53.1-4.91-.26-1.38-.78-2.47-1.56-3.28ZM98.3,93.21c-.38,2.15-.83,3.61-1.36,4.37-.53.77-1.13,1.09-1.81.97s-1.14-.63-1.38-1.53c-.24-.9-.17-2.42.21-4.57.38-2.13.83-3.56,1.35-4.29.53-.73,1.13-1.03,1.81-.91s1.14.61,1.38,1.47c.24.86.17,2.36-.21,4.49Z"></path>
        </g>
      </g>
      <g>
        <g>
          <rect class="cls-1" x="83.04" y="16.47" width="100" height="200" transform="translate(-28.74 187.82) rotate(-65)"></rect>
          <path class="cls-3" d="M245.86,111.15L64.6,26.62c-1.25-.58-2.74-.04-3.32,1.21L19.01,118.46c-.58,1.25-.04,2.74,1.21,3.32l181.26,84.52c.34.16.7.24,1.05.24.94,0,1.84-.54,2.27-1.44l42.26-90.63c.58-1.25.04-2.74-1.21-3.32ZM201.33,200.72L24.6,118.31l40.15-86.1,176.73,82.41-40.15,86.1Z"></path>
        </g>
        <rect class="cls-2" x="99.27" y="34.44" width="67.55" height="164.05" transform="translate(-28.74 187.82) rotate(-65)"></rect>
        <g>
          <ellipse class="cls-4" cx="133.04" cy="116.47" rx="38.82" ry="30.68" transform="translate(-28.74 187.82) rotate(-65)"></ellipse>
          <path class="cls-2" d="M150.08,79.93c-7.85-3.66-17-3.25-25.77,1.16-8.65,4.35-15.91,12.08-20.43,21.79-9.4,20.15-3.96,42.64,12.12,50.14,3.54,1.65,7.35,2.48,11.28,2.48,4.76,0,9.69-1.21,14.5-3.63,8.65-4.35,15.91-12.08,20.43-21.79,4.52-9.7,5.79-20.23,3.56-29.65-2.26-9.55-7.83-16.83-15.68-20.49ZM159.49,128.8c-4.24,9.09-11.01,16.33-19.06,20.37-7.93,3.99-16.16,4.38-23.16,1.12-14.58-6.8-19.37-27.5-10.67-46.16,4.24-9.09,11.01-16.33,19.06-20.37,4.38-2.2,8.85-3.31,13.15-3.31,3.49,0,6.87.73,10.01,2.19,7,3.26,11.98,9.82,14.03,18.46,2.08,8.77.88,18.6-3.36,27.7Z"></path>
        </g>
        <g>
          <path class="cls-3" d="M72.11,42.03c-.72.09-1.43.11-2.12.05-.7-.05-1.49-.19-2.38-.42l-1.07,2.3,2.86,1.33-4.12,8.83-3.3-1.54-1.4,3.01,9.82,4.58,1.4-3.01-2.8-1.3,5.85-12.55-2.74-1.28Z"></path>
          <path class="cls-3" d="M84.89,47.66c-1.11-.52-2.22-.67-3.32-.47-1.1.21-2.16.8-3.17,1.79-1.02.98-1.93,2.34-2.74,4.09-.81,1.74-1.27,3.33-1.39,4.77-.11,1.44.1,2.66.64,3.67.54,1.01,1.36,1.77,2.46,2.28,1.1.51,2.21.65,3.33.42,1.12-.23,2.19-.86,3.21-1.87,1.02-1.01,1.94-2.39,2.75-4.13.81-1.74,1.27-3.31,1.37-4.71.1-1.4-.12-2.59-.66-3.57-.54-.98-1.37-1.73-2.48-2.25ZM83.16,56.56c-.92,1.98-1.74,3.27-2.44,3.87-.71.6-1.37.76-2,.47-.63-.29-.94-.9-.94-1.84,0-.93.46-2.39,1.39-4.36.92-1.96,1.72-3.23,2.42-3.79.7-.57,1.36-.7,1.98-.41.63.29.94.89.95,1.78,0,.89-.45,2.32-1.36,4.28Z"></path>
          <path class="cls-3" d="M97.09,53.35c-1.11-.52-2.22-.67-3.32-.47-1.1.21-2.16.8-3.17,1.79-1.02.98-1.93,2.34-2.74,4.08-.81,1.74-1.27,3.33-1.38,4.77-.11,1.44.1,2.66.64,3.67.54,1.01,1.36,1.77,2.46,2.28,1.1.51,2.21.65,3.33.42,1.12-.23,2.19-.86,3.21-1.87,1.02-1.01,1.94-2.39,2.75-4.13.81-1.74,1.27-3.31,1.37-4.71.1-1.4-.12-2.59-.66-3.57-.54-.98-1.37-1.73-2.48-2.25ZM95.35,62.25c-.92,1.98-1.74,3.27-2.44,3.87-.71.6-1.37.76-2,.47-.63-.29-.94-.9-.94-1.84,0-.93.46-2.39,1.39-4.36.92-1.96,1.72-3.23,2.42-3.79.7-.57,1.36-.7,1.98-.41.63.29.94.89.95,1.78,0,.89-.45,2.32-1.36,4.28Z"></path>
          <path class="cls-3" d="M109.29,59.03c-1.11-.52-2.22-.67-3.32-.47-1.1.21-2.16.8-3.17,1.79-1.02.98-1.93,2.34-2.74,4.09-.81,1.74-1.27,3.33-1.39,4.77-.11,1.44.1,2.66.64,3.67.54,1.01,1.36,1.77,2.46,2.28,1.1.51,2.21.65,3.33.42,1.12-.23,2.19-.86,3.21-1.87,1.02-1.01,1.94-2.39,2.75-4.13.81-1.74,1.27-3.31,1.37-4.71.1-1.4-.12-2.59-.66-3.57-.54-.98-1.37-1.73-2.48-2.25ZM107.55,67.94c-.92,1.98-1.74,3.27-2.44,3.87-.71.6-1.37.76-2,.47-.63-.29-.94-.9-.94-1.84,0-.93.46-2.39,1.39-4.36.92-1.96,1.72-3.23,2.42-3.79.7-.57,1.36-.7,1.98-.41.63.29.94.89.95,1.78,0,.89-.45,2.32-1.36,4.28Z"></path>
          <path class="cls-3" d="M121.48,64.72c-1.11-.52-2.22-.67-3.32-.47-1.1.21-2.16.8-3.17,1.79-1.02.98-1.93,2.34-2.74,4.09-.81,1.74-1.27,3.33-1.39,4.77-.11,1.44.1,2.66.64,3.67.54,1.01,1.36,1.77,2.46,2.28,1.1.51,2.21.65,3.33.42,1.12-.23,2.19-.86,3.21-1.87,1.02-1.01,1.94-2.39,2.75-4.13.81-1.74,1.27-3.31,1.37-4.71.1-1.4-.12-2.59-.66-3.57-.54-.98-1.37-1.73-2.48-2.25ZM119.74,73.62c-.92,1.98-1.74,3.27-2.44,3.87-.71.6-1.37.76-2,.47-.63-.29-.94-.9-.94-1.84,0-.93.46-2.39,1.39-4.36.92-1.96,1.72-3.23,2.42-3.79.7-.57,1.36-.7,1.98-.41s.94.89.95,1.78c0,.89-.45,2.32-1.36,4.28Z"></path>
        </g>
      </g>
      <g>
        <g>
          <rect class="cls-1" x="97.29" y="5.08" width="100" height="200" transform="translate(-27.88 150.36) rotate(-50)"></rect>
          <path class="cls-3" d="M104.43.58c-1.06-.89-2.63-.75-3.52.31L36.63,77.5c-.43.51-.63,1.16-.58,1.83.06.66.38,1.27.88,1.7l153.21,128.56c.47.39,1.04.58,1.61.58.71,0,1.42-.3,1.92-.89l64.28-76.6c.43-.51.63-1.17.58-1.83-.06-.66-.38-1.27-.88-1.7L104.43.58ZM191.44,204.14L42.06,78.8,103.13,6.02l149.38,125.34-61.07,72.77Z"></path>
        </g>
        <rect class="cls-2" x="113.51" y="23.06" width="67.55" height="164.05" transform="translate(-27.88 150.36) rotate(-50)"></rect>
        <g>
          <ellipse class="cls-4" cx="147.29" cy="105.08" rx="38.82" ry="30.68" transform="translate(-27.88 150.36) rotate(-50)"></ellipse>
          <path class="cls-2" d="M173.2,74.19c-13.59-11.4-36.28-6.83-50.57,10.2-14.29,17.03-14.86,40.17-1.26,51.57,5.06,4.24,11.37,6.27,18.05,6.27,11.26,0,23.55-5.78,32.52-16.48,6.88-8.2,10.83-18.05,11.11-27.72.29-9.81-3.21-18.28-9.84-23.85ZM180.05,97.95c-.26,9-3.96,18.2-10.41,25.88-13.23,15.76-34.01,20.17-46.34,9.83-12.33-10.34-11.59-31.58,1.64-47.34,8.39-10,19.81-15.42,30.19-15.42,5.99,0,11.64,1.81,16.15,5.59,5.92,4.97,9.03,12.59,8.77,21.46Z"></path>
        </g>
        <g>
          <path class="cls-3" d="M107.7,17.41c-.72-.1-1.41-.27-2.06-.5-.66-.23-1.39-.57-2.19-1.03l-1.63,1.94,2.42,2.03-6.27,7.47-2.79-2.34-2.13,2.54,8.3,6.96,2.13-2.54-2.37-1.98,8.9-10.61-2.31-1.94Z"></path>
          <path class="cls-3" d="M118.59,26.15c-.94-.79-1.97-1.23-3.08-1.31-1.11-.08-2.29.22-3.53.91-1.24.69-2.47,1.76-3.71,3.24-1.23,1.47-2.09,2.89-2.57,4.25-.48,1.36-.59,2.6-.33,3.71.26,1.11.86,2.06,1.79,2.84.93.78,1.96,1.2,3.1,1.27,1.14.06,2.33-.26,3.59-.98,1.25-.71,2.49-1.81,3.73-3.28,1.23-1.47,2.08-2.87,2.54-4.2.46-1.33.56-2.53.29-3.62-.27-1.09-.88-2.03-1.82-2.82ZM117.03,30.52c-.22.86-1.03,2.13-2.42,3.79-1.4,1.67-2.52,2.71-3.36,3.11-.84.4-1.52.38-2.05-.07-.53-.44-.67-1.12-.43-2.02.24-.9,1.07-2.18,2.47-3.85,1.39-1.66,2.5-2.67,3.32-3.04.82-.37,1.49-.33,2.02.12.53.44.68,1.1.46,1.96Z"></path>
          <path class="cls-3" d="M128.9,34.8c-.94-.79-1.97-1.23-3.08-1.31-1.11-.08-2.29.22-3.53.91-1.24.69-2.47,1.76-3.71,3.24-1.23,1.47-2.09,2.89-2.57,4.25-.48,1.36-.59,2.6-.33,3.71.26,1.11.86,2.06,1.79,2.84.93.78,1.96,1.2,3.1,1.27,1.14.06,2.33-.26,3.59-.98,1.25-.71,2.49-1.81,3.73-3.28,1.23-1.47,2.08-2.87,2.54-4.2.46-1.33.56-2.53.29-3.62-.27-1.09-.88-2.03-1.82-2.82ZM127.34,39.17c-.22.86-1.03,2.13-2.42,3.79-1.4,1.67-2.52,2.71-3.36,3.11-.84.4-1.52.38-2.05-.07-.53-.44-.67-1.12-.43-2.02.24-.9,1.07-2.18,2.47-3.86,1.39-1.66,2.5-2.67,3.32-3.04.82-.37,1.49-.33,2.02.12.53.44.68,1.1.46,1.96Z"></path>
          <path class="cls-3" d="M139.2,43.45c-.94-.79-1.97-1.23-3.08-1.31-1.11-.08-2.29.22-3.53.91-1.24.69-2.47,1.76-3.71,3.24-1.23,1.47-2.09,2.89-2.57,4.25-.48,1.36-.59,2.6-.33,3.71.26,1.11.86,2.06,1.79,2.84.93.78,1.96,1.2,3.1,1.27,1.14.06,2.33-.26,3.59-.98,1.25-.71,2.49-1.81,3.73-3.28,1.23-1.47,2.08-2.87,2.54-4.2.46-1.33.56-2.53.29-3.62-.27-1.09-.88-2.03-1.82-2.82ZM137.65,47.82c-.22.86-1.03,2.13-2.42,3.79-1.4,1.67-2.52,2.71-3.36,3.11-.84.4-1.52.38-2.05-.07s-.67-1.12-.43-2.02c.24-.9,1.07-2.18,2.47-3.85,1.39-1.66,2.5-2.67,3.32-3.04.82-.37,1.49-.33,2.02.12.53.44.68,1.1.46,1.96Z"></path>
          <path class="cls-3" d="M149.51,52.1c-.94-.79-1.97-1.23-3.08-1.31-1.11-.08-2.29.22-3.53.91-1.24.69-2.47,1.76-3.71,3.24-1.23,1.47-2.09,2.89-2.57,4.25-.48,1.36-.59,2.6-.33,3.71.26,1.11.86,2.06,1.79,2.84.93.78,1.96,1.2,3.1,1.27,1.14.06,2.33-.26,3.59-.98,1.25-.71,2.49-1.81,3.73-3.28,1.23-1.47,2.08-2.87,2.54-4.2.46-1.33.56-2.53.29-3.62-.27-1.09-.88-2.03-1.82-2.82ZM147.95,56.47c-.22.86-1.03,2.13-2.42,3.79-1.4,1.67-2.52,2.71-3.36,3.11-.84.4-1.52.38-2.05-.07-.53-.44-.67-1.12-.43-2.02.24-.9,1.07-2.18,2.47-3.86,1.39-1.66,2.5-2.67,3.32-3.04.82-.37,1.49-.33,2.02.12.53.44.68,1.1.46,1.96Z"></path>
        </g>
      </g>
    </g>
  </g>
</svg>