<?xml version="1.0"?>
<svg id="_レイヤー_2" data-name="レイヤー 2" xmlns="http://www.w3.org/2000/svg" viewBox="0 0 278.32 187.25">
  <defs></defs>
  <g id="_1" data-name="1">
    <g>
      <g>
        <polygon class="cls-3" points="275.7 60.23 254.53 72.46 102.5 160.23 102.5 184.69 102.61 184.75 275.82 84.75 275.7 84.68 275.7 60.23"></polygon>
        <polygon class="cls-1" points="2.5 102.5 2.61 102.56 23.78 114.79 102.5 160.23 254.53 72.46 275.7 60.23 175.7 2.5 2.5 102.5"></polygon>
        <path class="cls-2" d="M121.1,52.76c-8.44.11-16.02,1.69-21.57,4.9-5.47,3.16-8.54,7.54-8.93,12.71l-56.31,32.51,67.55,39,55.28-31.91c8.44-.11,16.01-1.69,21.55-4.89,5.47-3.16,8.54-7.54,8.93-12.71l56.31-32.51-67.55-39-55.26,31.9Z"></path>
        <path class="cls-6" d="M165.67,66.03c-21.44-12.38-50.71-15.54-65.39-7.07-14.67,8.47-9.19,25.37,12.25,37.75,21.44,12.38,50.71,15.54,65.39,7.07,14.67-8.47,9.19-25.37-12.25-37.75Z"></path>
        <path class="cls-4" d="M38.78,107.11l-13.85-8-2.61,1.51c-.15.53-.38,1.03-.7,1.5-.32.47-.79.98-1.4,1.53l2.53,1.46,2.73-1.58,9.75,5.63-3.15,1.82,3.32,1.92,9.38-5.41-3.32-1.92-2.67,1.54Z"></path>
        <path class="cls-4" d="M48.16,95.52c-1.92-1.11-3.75-1.92-5.5-2.43-1.75-.51-3.34-.73-4.79-.66-1.45.07-2.7.41-3.76,1.03-1.06.61-1.66,1.34-1.79,2.17-.13.83.24,1.75,1.12,2.77.88,1.02,2.28,2.08,4.2,3.19,1.92,1.11,3.78,1.93,5.57,2.45,1.79.53,3.42.76,4.9.7,1.48-.06,2.74-.4,3.79-1,1.05-.61,1.63-1.34,1.74-2.19.11-.85-.3-1.79-1.22-2.82-.92-1.03-2.34-2.1-4.26-3.21ZM48.72,101.9c-.6.35-1.49.37-2.67.08-1.18-.29-2.87-1.07-5.05-2.33-2.17-1.25-3.48-2.21-3.95-2.87-.47-.66-.4-1.17.2-1.51.6-.35,1.47-.38,2.61-.11,1.14.27,2.79,1.04,4.96,2.29,2.18,1.26,3.53,2.23,4.04,2.91.51.68.47,1.19-.13,1.54Z"></path>
        <path class="cls-4" d="M59.82,88.79c-1.92-1.11-3.75-1.92-5.5-2.43-1.75-.51-3.34-.73-4.79-.66-1.45.07-2.7.41-3.76,1.03-1.06.61-1.66,1.34-1.79,2.17-.13.83.24,1.75,1.12,2.77.88,1.02,2.28,2.08,4.2,3.19,1.92,1.11,3.78,1.93,5.57,2.45,1.79.53,3.42.76,4.9.7,1.48-.06,2.74-.4,3.79-1s1.63-1.34,1.74-2.19c.11-.85-.3-1.79-1.22-2.82-.92-1.03-2.34-2.1-4.26-3.21ZM60.37,95.17c-.6.35-1.49.37-2.67.08-1.18-.29-2.87-1.07-5.05-2.33-2.17-1.25-3.48-2.21-3.95-2.87-.47-.66-.4-1.17.2-1.51.6-.35,1.47-.38,2.61-.11,1.14.27,2.79,1.04,4.96,2.29,2.18,1.26,3.53,2.23,4.04,2.91.51.68.47,1.19-.13,1.54Z"></path>
        <path class="cls-4" d="M71.47,82.06c-1.92-1.11-3.75-1.92-5.5-2.43-1.75-.51-3.34-.73-4.79-.66-1.45.07-2.7.41-3.76,1.03-1.06.61-1.66,1.34-1.79,2.17-.13.83.24,1.75,1.12,2.77.88,1.02,2.28,2.08,4.2,3.19,1.92,1.11,3.78,1.93,5.57,2.45,1.79.53,3.42.76,4.9.7,1.48-.06,2.74-.4,3.79-1,1.05-.61,1.63-1.34,1.74-2.19.11-.85-.3-1.79-1.22-2.82-.92-1.03-2.34-2.1-4.26-3.21ZM72.03,88.44c-.6.35-1.49.37-2.67.08-1.18-.29-2.87-1.07-5.05-2.33-2.17-1.25-3.48-2.21-3.95-2.87-.47-.66-.4-1.17.2-1.51.6-.35,1.47-.38,2.61-.11,1.14.27,2.79,1.04,4.96,2.29,2.18,1.26,3.53,2.23,4.04,2.91.51.68.47,1.19-.13,1.54Z"></path>
        <path class="cls-4" d="M83.12,75.33c-1.92-1.11-3.75-1.92-5.5-2.43-1.75-.51-3.34-.73-4.79-.66-1.45.07-2.7.41-3.76,1.03-1.06.61-1.66,1.34-1.79,2.17-.13.83.24,1.75,1.12,2.77.88,1.02,2.28,2.08,4.2,3.19,1.92,1.11,3.78,1.93,5.57,2.45,1.79.53,3.42.76,4.9.7,1.48-.06,2.74-.4,3.79-1,1.05-.61,1.63-1.34,1.74-2.19.11-.85-.3-1.79-1.22-2.82-.92-1.03-2.34-2.1-4.26-3.21ZM83.68,81.72c-.6.35-1.49.37-2.67.08-1.18-.29-2.87-1.07-5.05-2.33-2.17-1.25-3.48-2.21-3.95-2.87-.47-.66-.4-1.17.2-1.51.6-.35,1.47-.38,2.61-.11,1.14.27,2.79,1.04,4.96,2.29,2.18,1.26,3.53,2.23,4.04,2.91.51.68.47,1.19-.13,1.54Z"></path>
        <polygon class="cls-2" points="2.61 102.56 2.61 127.01 102.5 184.69 102.5 160.23 23.78 114.79 2.61 102.56"></polygon>
        <path class="cls-4" d="M278.2,60.23c0-.89-.48-1.72-1.25-2.17L176.95.34c-.77-.45-1.73-.45-2.5,0L1.25,100.34C.47,100.79-.01,101.63,0,102.53c0,.24.04.48.11.7v23.78c0,.89.48,1.72,1.25,2.17l99.89,57.68,1.23-2.13h0l-1.19,2.16.11.06c.38.21.79.31,1.21.31s.86-.11,1.25-.33l173.21-100c.77-.44,1.25-1.26,1.25-2.15,0-.27-.04-.53-.12-.77v-23.76ZM273.2,83.38l-170.59,98.49L5.11,125.57v-21.69L175.7,5.39l97.5,56.29v21.7Z"></path>
      </g>
      <g>
        <polygon class="cls-5" points="185.92 93.59 185.7 93.46 118.15 54.46 117.91 54.33 101.93 45.09 98.68 43.22 73.03 58.03 76.28 59.9 92.28 69.15 92.5 69.27 160.05 108.27 160.28 108.4 176.27 117.64 178.77 119.08 204.42 104.27 201.92 102.83 185.92 93.59"></polygon>
        <polygon class="cls-7" points="178.77 144.31 204.42 129.38 204.42 104.27 178.77 119.08 178.77 144.31"></polygon>
      </g>
      <path class="cls-4" d="M204.92,103.4l-86.29-49.82-19.45-11.23c-.31-.18-.69-.18-1,0l-25.65,14.81c-.31.18-.5.51-.5.87,0,.36.19.69.5.87l87.03,50.24,18.21,10.52v24.65c0,.36.19.69.5.87.15.09.33.13.5.13s.35-.05.5-.14l25.65-14.93c.31-.18.5-.51.5-.86v-25.11c0-.36-.19-.69-.5-.87ZM203.42,128.81l-23.65,13.77v-23.49c0-.36-.19-.69-.5-.87l-86.29-49.82-17.95-10.36,23.65-13.65,86.51,49.95,18.23,10.53v23.96Z"></path>
    </g>
  </g>
</svg>