<?xml version="1.0"?>
<svg id="_レイヤー_2" data-name="レイヤー 2" xmlns="http://www.w3.org/2000/svg" viewBox="0 0 308.66 186.84">
  <defs></defs>
  <g id="_1" data-name="1">
    <g>
      <g>
        <g>
          <path class="cls-5" d="M286.82,124.59c-.91.13-1.83.34-2.69.57.9-.17,1.79-.37,2.69-.57Z"></path>
          <path class="cls-5" d="M303.31,109.74c-7.33-5.17-17.66-3.94-27.5-1.95-21.74,4.4-56.79,30.68-66.98,45.18,11.55-.3,20.9,1.24,31.99,4.76,4.9,1.55,10.72,4.14,15.91,3.86,1.84-.1,4.08-.78,5.05-2.7,1.51-2.99-1.45-5.23-3.99-6.11,3.78.07,16.46-1.4,18.86-6.7,2.28-5.04-4.2-4.56-6.94-4.17,5.36-.76,10.78-2.4,16.04-4.86,3.9-1.83,8.6-5.89,7.61-9.79-.69-2.71-3.58-3.08-6.53-2.66-.9.21-1.79.4-2.69.57.86-.24,1.78-.44,2.69-.57,4.94-1.14,9.88-2.78,14.73-4.91,1.51-.67,3.16-1.51,4.04-3.07,1.52-2.7-.27-5.46-2.28-6.87Z"></path>
          <path class="cls-4" d="M304.75,107.69c-8.05-5.68-18.91-4.49-29.44-2.36-22.79,4.62-58.31,31.66-68.53,46.19-.54.77-.6,1.79-.16,2.62.45.83,1.29,1.37,2.27,1.32,10.84-.29,19.87,1.06,31.17,4.64,1.02.32,2.08.69,3.17,1.07,3.96,1.38,8.41,2.93,12.7,2.93.31,0,.62,0,.93-.03,3.33-.18,5.93-1.67,7.15-4.07.81-1.6.9-3.27.27-4.84-.06-.15-.13-.3-.2-.44,5.57-.87,12.75-2.98,14.85-7.63.97-2.16.79-3.74.29-4.83,2.55-.81,5.08-1.8,7.58-2.98,5.25-2.46,10.29-7.47,8.97-12.67-.16-.64-.41-1.23-.74-1.76,2.52-.84,5.04-1.81,7.52-2.91,1.99-.88,4-1.98,5.21-4.14,2.21-3.94-.01-8.02-3.02-10.14ZM275.81,107.79h0,0ZM303.4,115.38c-.46.82-1.48,1.4-2.86,2.01-4.64,2.04-9.36,3.62-14.07,4.72-.94.13-1.94.35-3.01.64-1.29.36-2.07,1.67-1.77,2.98.31,1.31,1.59,2.13,2.91,1.89.92-.18,1.84-.37,2.76-.58,1.61-.21,2.66-.06,3.15.23.19.11.32.25.41.59.53,2.1-2.86,5.33-6.25,6.92-5.04,2.36-10.19,3.92-15.31,4.65,0,0,0,0-.01,0-1.37.19-2.32,1.46-2.13,2.83.19,1.37,1.45,2.32,2.83,2.13,2.63-.37,4.02-.14,4.54.05-.03.14-.1.34-.22.62-1.51,3.35-11.71,5.32-16.53,5.23-1.22-.04-2.29.85-2.51,2.06-.22,1.21.48,2.4,1.64,2.8,1.28.45,2.4,1.25,2.67,1.91.04.11.12.3-.09.71-.45.89-1.82,1.27-2.96,1.33-3.6.19-7.72-1.24-11.72-2.63-1.13-.39-2.24-.78-3.3-1.12-10-3.17-18.32-4.67-27.54-4.89,12.5-14.18,42.85-36.29,62.28-40.22,9.43-1.91,19.06-3.04,25.56,1.54.03.02,2.54,1.82,1.54,3.6Z"></path>
        </g>
        <g>
          <path class="cls-5" d="M12.09,24.79c.48.63.94,1.27,1.44,1.88-.43-.63-.92-1.27-1.44-1.88Z"></path>
          <path class="cls-5" d="M8.75,2.53c-2.44-.21-5.59.75-6.16,3.8-.33,1.76.39,3.47,1.12,4.95,2.41,4.87,5.23,9.39,8.38,13.52.52.6,1,1.24,1.44,1.88-.49-.61-.96-1.25-1.44-1.88-2.03-2.37-4.59-4.16-6.96-2.45-3.27,2.35-2.28,8.49-.47,12.39,2.44,5.26,5.54,10.01,9.16,14.03-1.85-2.06-6.51-6.59-8-1.26-1.57,5.6,7.2,14.88,10.14,17.25-2.51-.96-6.22-1.14-6.99,2.12-.49,2.1.79,4.06,2.14,5.32,3.79,3.55,9.92,5.31,14.67,7.27,10.76,4.44,18.91,9.26,27.56,16.92,1.51-17.66-8.44-60.32-22.27-77.67C24.81,10.86,17.68,3.28,8.75,2.53Z"></path>
          <path class="cls-4" d="M8.96.04C5.29-.27.97,1.42.13,5.86c-.46,2.42.37,4.57,1.33,6.52,1.2,2.44,2.5,4.79,3.89,7.06-.59.19-1.16.48-1.7.87C-.69,23.44-.05,30.53,2.39,35.78c1.16,2.51,2.46,4.9,3.9,7.15-1.08.51-2.24,1.61-2.88,3.89-1.38,4.91,2.76,11.14,6.47,15.39-.15.06-.3.13-.44.21-1.49.8-2.5,2.14-2.91,3.88-.61,2.62.43,5.43,2.86,7.71,3.35,3.13,8.11,4.94,12.31,6.54,1.08.41,2.13.81,3.12,1.22,10.96,4.52,18.74,9.29,26.86,16.48.46.41,1.06.63,1.66.63.31,0,.63-.06.93-.18.88-.35,1.48-1.17,1.56-2.11,1.51-17.71-8.31-61.25-22.8-79.44C26.33,8.75,18.78.86,8.96.04ZM26.73,77.15c-1.03-.42-2.13-.84-3.25-1.27-3.95-1.5-8.04-3.06-10.67-5.52-.4-.38-1.7-1.7-1.41-2.92.11-.46.28-.55.39-.6.25-.13.61-.2,1.03-.2.66,0,1.47.15,2.25.45,1.15.43,2.44-.03,3.06-1.09.61-1.07.36-2.42-.6-3.19-3.75-3.03-10.3-11.09-9.3-14.63.08-.3.17-.5.23-.62.51.19,1.73.9,3.5,2.88,0,0,0,0,0,0h0c.92,1.03,2.5,1.11,3.53.19,1.03-.92,1.11-2.5.19-3.53-3.46-3.85-6.41-8.36-8.75-13.41-1.57-3.39-2.1-8.05-.34-9.31.29-.21.48-.23.69-.19.56.1,1.46.65,2.56,1.85.57.75,1.15,1.5,1.74,2.22.85,1.04,2.36,1.23,3.44.42,1.07-.8,1.32-2.31.56-3.42-.63-.91-1.26-1.72-1.89-2.43-2.91-3.87-5.5-8.12-7.75-12.66-.67-1.36-1.08-2.45-.91-3.38.38-2.01,3.46-1.78,3.5-1.77,7.93.67,14.58,7.72,20.58,15.25,12.35,15.5,21.39,51.94,21.85,70.84-7.2-5.76-14.54-9.96-24.24-13.96Z"></path>
        </g>
        <path class="cls-2" d="M175.77,20.81c-10.86-3.95-21.54-6.52-30.07-7.23-10.45-.88-16.64,1.15-18.41,6.01-1.77,4.86,1.68,10.39,10.24,16.44,6.99,4.94,16.83,9.84,27.69,13.79,9.7,3.53,23.86,7.42,34.47,7.42,6.94,0,12.37-1.67,14.02-6.2,4.17-11.45-21.88-24.39-37.93-30.23ZM167.95,42.29c-20.74-7.55-32.23-16.74-33.06-19.94,2.69-1.92,17.4-1.57,38.14,5.97,20.74,7.55,32.23,16.74,33.06,19.94-2.69,1.92-17.4,1.58-38.14-5.97Z"></path>
      </g>
      <g>
        <g>
          <rect class="cls-1" x="89.33" y="6.87" width="97.94" height="195.89" transform="translate(-7.49 198.93) rotate(-70)"></rect>
          <path class="cls-4" d="M247.95,89.95L63.87,22.95c-.62-.23-1.31-.2-1.91.08-.6.28-1.07.79-1.29,1.41L27.17,116.48c-.47,1.3.2,2.73,1.49,3.21l184.07,67c.28.1.57.15.86.15,1.02,0,1.98-.63,2.35-1.65l33.5-92.04c.23-.62.2-1.31-.08-1.91s-.79-1.07-1.41-1.29ZM212.1,181.13L32.72,115.84l31.79-87.34,179.38,65.29-31.79,87.34Z"></path>
        </g>
        <rect class="cls-3" x="105.23" y="24.48" width="66.16" height="160.67" transform="translate(-7.49 198.93) rotate(-70)"></rect>
        <g>
          <ellipse class="cls-5" cx="138.31" cy="104.82" rx="38.02" ry="30.05" transform="translate(-7.49 198.93) rotate(-70)"></ellipse>
          <path class="cls-3" d="M151.82,67.68c-16.34-5.96-35.71,5.87-43.16,26.35-7.45,20.48-.22,41.98,16.13,47.93,2.86,1.04,5.85,1.56,8.87,1.56,5.41,0,10.95-1.65,16.2-4.89,8.08-4.98,14.5-13.16,18.09-23.02,3.59-9.86,3.92-20.25.94-29.26-3.02-9.13-9.09-15.76-17.07-18.67ZM165.13,114.58c-3.36,9.23-9.34,16.86-16.84,21.49-7.39,4.56-15.37,5.65-22.47,3.06-14.79-5.38-21.22-25.16-14.34-44.08,5.71-15.67,18.78-25.92,31.51-25.92,2.64,0,5.27.44,7.81,1.37,7.1,2.58,12.52,8.55,15.25,16.79,2.77,8.37,2.45,18.06-.91,27.29Z"></path>
        </g>
        <g>
          <path class="cls-4" d="M72.5,37.39c-.69.15-1.38.23-2.07.23-.68,0-1.47-.06-2.36-.21l-.85,2.33,2.9,1.06-3.26,8.97-3.35-1.22-1.11,3.05,9.97,3.63,1.11-3.05-2.84-1.03,4.64-12.75-2.78-1.01Z"></path>
          <path class="cls-4" d="M85.45,41.79c-1.13-.41-2.22-.47-3.28-.17-1.05.3-2.03.97-2.94,2.01-.91,1.05-1.69,2.45-2.33,4.22-.64,1.77-.96,3.36-.94,4.77.01,1.41.33,2.59.94,3.52.61.94,1.48,1.61,2.59,2.01s2.21.45,3.28.13c1.07-.32,2.06-1.02,2.97-2.1.91-1.08,1.69-2.5,2.33-4.27.64-1.77.95-3.34.94-4.72-.02-1.38-.34-2.52-.95-3.43-.61-.91-1.48-1.57-2.62-1.98ZM84.52,50.63c-.73,2.01-1.41,3.34-2.05,3.98-.64.65-1.27.86-1.91.63-.64-.23-.99-.8-1.07-1.71-.08-.91.25-2.37.98-4.37.73-1.99,1.4-3.3,2.03-3.91.63-.61,1.26-.8,1.9-.57s1,.78,1.08,1.65c.08.87-.24,2.3-.96,4.3Z"></path>
          <path class="cls-4" d="M97.84,46.3c-1.13-.41-2.22-.47-3.28-.17-1.05.3-2.03.97-2.94,2.01-.91,1.05-1.69,2.45-2.33,4.22-.64,1.77-.96,3.36-.94,4.77.01,1.41.33,2.59.94,3.52.61.94,1.48,1.61,2.59,2.01,1.12.41,2.21.45,3.28.13,1.07-.32,2.06-1.02,2.97-2.1.91-1.08,1.69-2.5,2.33-4.27.64-1.77.95-3.34.94-4.72-.02-1.38-.34-2.52-.95-3.43-.61-.91-1.48-1.57-2.62-1.98ZM96.9,55.13c-.73,2.01-1.41,3.34-2.05,3.98-.64.65-1.27.86-1.91.63-.64-.23-.99-.8-1.07-1.71-.08-.91.25-2.37.98-4.37.73-1.99,1.4-3.3,2.03-3.91.63-.61,1.26-.8,1.9-.57.64.23,1,.78,1.08,1.65.08.87-.24,2.3-.96,4.3Z"></path>
          <path class="cls-4" d="M110.22,50.81c-1.13-.41-2.22-.47-3.28-.17-1.05.3-2.03.97-2.94,2.01-.91,1.05-1.69,2.45-2.33,4.22-.64,1.77-.96,3.36-.94,4.77.01,1.41.33,2.59.94,3.52.61.94,1.48,1.61,2.59,2.01,1.12.41,2.21.45,3.28.12,1.07-.32,2.06-1.02,2.97-2.1.91-1.08,1.69-2.5,2.33-4.27.64-1.77.95-3.34.94-4.72-.02-1.38-.34-2.52-.95-3.43-.61-.91-1.48-1.57-2.62-1.98ZM109.29,59.64c-.73,2.01-1.41,3.34-2.05,3.98-.64.65-1.27.86-1.91.63-.64-.23-.99-.8-1.07-1.71-.08-.91.25-2.37.98-4.37.73-1.99,1.4-3.3,2.03-3.91.63-.61,1.26-.8,1.9-.57.64.23,1,.78,1.08,1.65.08.87-.24,2.3-.96,4.3Z"></path>
          <path class="cls-4" d="M122.61,55.31c-1.13-.41-2.22-.47-3.28-.17-1.05.3-2.03.97-2.94,2.01-.91,1.05-1.69,2.45-2.33,4.22-.64,1.77-.96,3.36-.94,4.77.01,1.41.33,2.59.94,3.52.61.94,1.48,1.61,2.59,2.01,1.12.41,2.21.45,3.28.13,1.07-.32,2.06-1.02,2.97-2.1.91-1.08,1.69-2.5,2.33-4.27.64-1.77.96-3.34.94-4.72-.02-1.38-.34-2.52-.95-3.43-.61-.91-1.48-1.57-2.62-1.98ZM121.67,64.15c-.73,2.01-1.41,3.34-2.05,3.98-.64.65-1.27.86-1.91.63-.64-.23-.99-.8-1.07-1.71-.08-.91.25-2.37.98-4.37.73-1.99,1.4-3.3,2.03-3.91.63-.61,1.26-.8,1.9-.57.64.23,1,.78,1.08,1.65.08.87-.24,2.3-.96,4.3Z"></path>
        </g>
      </g>
    </g>
  </g>
</svg>