<?xml version="1.0"?>
<svg id="_レイヤー_2" data-name="レイヤー 2" xmlns="http://www.w3.org/2000/svg" xmlns:xlink="http://www.w3.org/1999/xlink" viewBox="0 0 110.29 137.16">
  <defs>
    
    <clipPath id="clippath">
      <path class="cls-5" d="M65.52,30.94c2.77-3.93,5.54-7.86,8.32-11.79,1.06-1.5,2.15-3.07,2.53-4.94.38-1.87-.18-4.12-1.72-4.96-2.1-1.16-4.42.74-6.45,2.03-2.03,1.29-5.47,1.35-5.85-1.23-.32-2.14,1.76-5.02.05-6.04-1.94,2.16-3.87,4.31-5.81,6.47-1.45,1.62-3.26,3.37-5.27,2.96-3.91-.79-3.42-7.87-6.66-10.44-4.08,3.77-6.59,9.58-6.67,15.49-2.47-1.24-4.94-2.48-7.41-3.72-1.5-.76-3.62-1.33-4.51.22-.84,1.45.3,3.28,1.38,4.52,3.02,3.46,6.93,8.58,11.27,13.03C18.01,42.17,3,69.37,3,89.19c0,24.47,22.87,35.56,51.08,35.56s51.08-11.09,51.08-35.56c0-21.06-16.93-50.47-39.64-58.25Z"></path>
    </clipPath>
  </defs>
  <g id="_1" data-name="1">
    <g>
      <ellipse class="cls-1" cx="54.39" cy="121.93" rx="53.68" ry="10.57"></ellipse>
      <g>
        <g>
          <path class="cls-5" d="M65.52,30.94c2.77-3.93,5.54-7.86,8.32-11.79,1.06-1.5,2.15-3.07,2.53-4.94.38-1.87-.18-4.12-1.72-4.96-2.1-1.16-4.42.74-6.45,2.03-2.03,1.29-5.47,1.35-5.85-1.23-.32-2.14,1.76-5.02.05-6.04-1.94,2.16-3.87,4.31-5.81,6.47-1.45,1.62-3.26,3.37-5.27,2.96-3.91-.79-3.42-7.87-6.66-10.44-4.08,3.77-6.59,9.58-6.67,15.49-2.47-1.24-4.94-2.48-7.41-3.72-1.5-.76-3.62-1.33-4.51.22-.84,1.45.3,3.28,1.38,4.52,3.02,3.46,6.93,8.58,11.27,13.03C18.01,42.17,3,69.37,3,89.19c0,24.47,22.87,35.56,51.08,35.56s51.08-11.09,51.08-35.56c0-21.06-16.93-50.47-39.64-58.25Z"></path>
          <g class="cls-4">
            <path class="cls-2" d="M99.39,68.16c1.17,14.67-3.33,29.69-14.77,39.45-6.17,5.26-13.94,9.18-21.4,12.25-7.96,3.28-16.33,5.52-24.83,6.87-2.86.46-4.45,4.02-3.74,6.59.84,3.04,3.72,4.2,6.59,3.74,18.23-2.91,37.82-10.11,51.76-22.58,12.82-11.47,18.45-29.47,17.1-46.32-.55-6.82-11.26-6.88-10.71,0Z"></path>
            <path class="cls-2" d="M70.53,25.31c-5.43,3.41-11.07,7.06-17.73,6.85-6.44-.2-12.19-5.81-18.7-3.17-2.68,1.08-4.57,3.57-3.74,6.59.7,2.54,3.89,4.83,6.59,3.74,2.49-1.01,6.12,1.72,8.58,2.44,3.36.98,7.03,1.34,10.51.99,7.39-.74,13.73-4.31,19.9-8.19,5.82-3.66.45-12.93-5.41-9.25Z"></path>
          </g>
        </g>
        <path class="cls-3" d="M54.08,127.74C20.72,127.74,0,112.97,0,89.19c0-19.15,13.44-45.83,33.82-57.49-1.94-2.16-3.75-4.36-5.41-6.36-1.16-1.4-2.26-2.73-3.24-3.85-3.31-3.79-2.5-6.63-1.72-7.99,1.22-2.12,4.08-3.6,8.46-1.4l3.56,1.78c1.01-5.06,3.53-9.75,7.15-13.08,1.08-1,2.74-1.07,3.9-.15,2.14,1.69,3.02,4.27,3.81,6.54.36,1.04,1.1,3.21,1.59,3.3.14.04.7-.07,2.45-2.02l5.81-6.47c.96-1.07,2.54-1.31,3.77-.57,2.97,1.77,2.1,5.05,1.69,6.63-.08.3-.19.74-.26,1.09.35-.03.83-.15,1.22-.4.24-.15.48-.31.73-.48,2.13-1.41,5.35-3.54,8.78-1.65,3.01,1.66,3.77,5.4,3.21,8.18-.51,2.52-1.9,4.49-3.02,6.07l-6.12,8.68c21.98,9.9,37.99,38.69,37.99,59.63,0,23.78-20.72,38.56-54.08,38.56ZM29.93,17.81c.96,1.11,2.01,2.37,3.1,3.7,2.35,2.84,5,6.05,7.82,8.94.68.7.98,1.68.8,2.63-.18.96-.8,1.77-1.69,2.18C19.95,44.57,6,71.16,6,89.19c0,30.21,36.8,32.56,48.08,32.56s48.08-2.35,48.08-32.56c0-20.07-16.09-48.03-37.61-55.41-.89-.31-1.59-1.02-1.88-1.91-.29-.9-.14-1.88.4-2.65l8.32-11.79c.87-1.24,1.78-2.52,2.04-3.8.17-.83-.08-1.6-.26-1.76-.4.01-1.79.93-2.53,1.43-.28.18-.55.36-.82.54-1.88,1.2-4.89,1.9-7.37.77-1.33-.61-2.31-1.68-2.79-3.02l-.83.92c-1.26,1.4-4.21,4.69-8.1,3.89-3.85-.78-5.13-4.51-6.07-7.23-.13-.37-.26-.74-.39-1.11-2.04,2.99-3.22,6.71-3.27,10.5-.01,1.03-.56,1.99-1.44,2.52-.88.54-1.98.58-2.9.12l-6.71-3.37Z"></path>
        <path class="cls-3" d="M68.52,25.77l-33.14,2.92c-1.78.16-3.17,1.53-3.41,3.23-.38.37-.69.83-.89,1.35-.6,1.57-.1,3.34,1.23,4.36,2.51,1.92,5.52,2.39,8.13,2.6,1.48.12,2.97.18,4.46.18,4.1,0,8.22-.44,12.23-1.32,3.11-.38,6.18-1.06,9.14-2.03.62-.2,1.17-.56,1.61-1.04.65-.71,1.01-1.59,1.06-2.49.41-.15.82-.3,1.23-.45,1.77-.66,2.79-2.53,2.37-4.38-.42-1.85-2.14-3.1-4.02-2.93Z"></path>
        <path class="cls-3" d="M62.65,61.99l-4.2,9.53-1.19,2.67-2.84,6.3h-.34l-1.36-3.06c.04.15-.85-1.82-2.67-5.9l-4.31-9.53h-11.92l13.17,21h-8.85v4.88h10.95v3.4h-10.95v4.88h10.95v8.28h10.1v-8.28h10.84v-4.88h-10.84v-3.4h10.84v-4.88h-8.85l13.16-21h-11.69Z"></path>
      </g>
    </g>
  </g>
</svg>