<?xml version="1.0"?>
<svg id="_レイヤー_2" data-name="レイヤー 2" xmlns="http://www.w3.org/2000/svg" viewBox="0 0 209.33 110.91">
  <defs>
    
  </defs>
  <g id="_1" data-name="1">
    <g>
      <g>
        <polygon class="cls-1" points="2.5 4.24 2.5 104.24 6.83 106.74 206.83 106.74 206.83 6.74 203.11 4.32 2.5 4.24"></polygon>
        <path class="cls-3" d="M208.19,4.65l-3.72-2.42c-.41-.26-.88-.4-1.36-.4L2.5,1.74h0c-.66,0-1.3.26-1.77.73-.47.47-.73,1.11-.73,1.77v100c0,.89.48,1.72,1.25,2.17l4.33,2.5c.38.22.81.33,1.25.33h200c1.38,0,2.5-1.12,2.5-2.5V6.74c0-.85-.43-1.63-1.14-2.1ZM204.33,104.24H7.5l-2.5-1.44V6.74l197.36.08,1.97,1.28v96.14Z"></path>
      </g>
      <g>
        <rect class="cls-1" x="2.5" y="4.24" width="200" height="100"></rect>
        <path class="cls-3" d="M202.5,1.74H2.5C1.12,1.74,0,2.86,0,4.24v100c0,1.38,1.12,2.5,2.5,2.5h200c1.38,0,2.5-1.12,2.5-2.5V4.24c0-1.38-1.12-2.5-2.5-2.5ZM200,101.74H5V6.74h195v95Z"></path>
      </g>
      <rect class="cls-2" x="20.48" y="20.47" width="164.05" height="67.55"></rect>
      <g>
        <ellipse class="cls-5" cx="102.5" cy="54.24" rx="30.68" ry="38.82"></ellipse>
        <path class="cls-2" d="M102.5,13.92c-17.74,0-32.18,18.09-32.18,40.32s14.44,40.32,32.18,40.32,32.18-18.09,32.18-40.32-14.44-40.32-32.18-40.32ZM102.5,91.56c-16.09,0-29.18-16.74-29.18-37.32s13.09-37.32,29.18-37.32,29.18,16.74,29.18,37.32-13.09,37.32-29.18,37.32Z"></path>
      </g>
      <g>
        <path class="cls-3" d="M18.84,12.53h-3.02c-.62.38-1.25.7-1.9.94-.65.25-1.43.45-2.34.62v2.53h3.16v9.75h-3.64v3.32h10.83v-3.32h-3.09v-13.85Z"></path>
        <path class="cls-3" d="M32.99,13.22c-.91-.66-1.97-.99-3.2-.99s-2.3.33-3.2.98c-.91.65-1.61,1.64-2.12,2.96-.51,1.32-.76,2.94-.76,4.86s.25,3.56.76,4.91c.51,1.35,1.22,2.37,2.13,3.05.91.68,1.98,1.03,3.19,1.03s2.28-.34,3.19-1.03c.91-.68,1.62-1.7,2.12-3.05.5-1.35.75-2.99.75-4.91s-.25-3.54-.75-4.85c-.5-1.31-1.2-2.3-2.11-2.96ZM31.4,25.57c-.38.85-.92,1.27-1.61,1.27s-1.23-.42-1.62-1.27c-.39-.84-.59-2.36-.59-4.54s.2-3.65.59-4.46c.39-.81.93-1.21,1.62-1.21s1.23.4,1.61,1.21c.38.81.58,2.29.58,4.46s-.19,3.69-.58,4.54Z"></path>
        <path class="cls-3" d="M46.44,13.22c-.91-.66-1.97-.99-3.2-.99s-2.3.33-3.2.98c-.91.65-1.61,1.64-2.12,2.96-.51,1.32-.76,2.94-.76,4.86s.25,3.56.76,4.91c.51,1.35,1.22,2.37,2.13,3.05.91.68,1.98,1.03,3.19,1.03s2.28-.34,3.19-1.03c.91-.68,1.62-1.7,2.12-3.05.5-1.35.75-2.99.75-4.91s-.25-3.54-.75-4.85c-.5-1.31-1.2-2.3-2.11-2.96ZM44.85,25.57c-.38.85-.92,1.27-1.61,1.27s-1.23-.42-1.62-1.27c-.39-.84-.59-2.36-.59-4.54s.2-3.65.59-4.46c.39-.81.93-1.21,1.62-1.21s1.23.4,1.61,1.21c.38.81.58,2.29.58,4.46s-.19,3.69-.58,4.54Z"></path>
        <path class="cls-3" d="M59.9,13.22c-.91-.66-1.97-.99-3.2-.99s-2.3.33-3.2.98c-.91.65-1.61,1.64-2.12,2.96-.51,1.32-.76,2.94-.76,4.86s.25,3.56.76,4.91c.51,1.35,1.22,2.37,2.13,3.05.91.68,1.98,1.03,3.19,1.03s2.28-.34,3.19-1.03c.91-.68,1.62-1.7,2.12-3.05.5-1.35.75-2.99.75-4.91s-.25-3.54-.75-4.85c-.5-1.31-1.2-2.3-2.11-2.96ZM58.31,25.57c-.38.85-.92,1.27-1.61,1.27s-1.23-.42-1.62-1.27c-.39-.84-.59-2.36-.59-4.54s.2-3.65.59-4.46c.39-.81.93-1.21,1.62-1.21s1.23.4,1.61,1.21c.38.81.58,2.29.58,4.46s-.19,3.69-.58,4.54Z"></path>
        <path class="cls-3" d="M73.35,13.22c-.91-.66-1.97-.99-3.2-.99s-2.3.33-3.2.98c-.91.65-1.61,1.64-2.12,2.96-.51,1.32-.76,2.94-.76,4.86s.25,3.56.76,4.91c.51,1.35,1.22,2.37,2.13,3.05.91.68,1.98,1.03,3.19,1.03s2.28-.34,3.19-1.03c.91-.68,1.62-1.7,2.12-3.05.5-1.35.75-2.99.75-4.91s-.25-3.54-.75-4.85c-.5-1.31-1.2-2.3-2.11-2.96ZM71.76,25.57c-.38.85-.92,1.27-1.61,1.27s-1.23-.42-1.62-1.27c-.39-.84-.59-2.36-.59-4.54s.2-3.65.59-4.46c.39-.81.93-1.21,1.62-1.21s1.23.4,1.61,1.21c.38.81.58,2.29.58,4.46s-.19,3.69-.58,4.54Z"></path>
      </g>
      <g>
        <polygon class="cls-4" points="117.31 1 87.69 1 87.69 104.24 90.87 109.91 120.49 109.91 117.31 104.24 117.31 1"></polygon>
        <path class="cls-3" d="M118.31,103.98V1c0-.55-.45-1-1-1h-29.62c-.55,0-1,.45-1,1v103.24c0,.17.04.34.13.49l3.18,5.67c.18.32.51.51.87.51h29.62c.35,0,.68-.19.86-.49.18-.31.18-.68,0-1l-3.05-5.44ZM91.45,108.91l-2.76-4.93V2h27.62v102.24c0,.17.04.34.13.49l2.34,4.18h-27.33Z"></path>
      </g>
    </g>
  </g>
</svg>