<?xml version="1.0"?>
<svg id="_レイヤー_2" data-name="レイヤー 2" xmlns="http://www.w3.org/2000/svg" viewBox="0 0 205 105">
  <defs>
    
  </defs>
  <g id="_1" data-name="1">
    <g>
      <g>
        <rect class="cls-1" x="2.5" y="2.5" width="200" height="100"></rect>
        <path class="cls-3" d="M202.5,0H2.5C1.12,0,0,1.12,0,2.5v100c0,1.38,1.12,2.5,2.5,2.5h200c1.38,0,2.5-1.12,2.5-2.5V2.5c0-1.38-1.12-2.5-2.5-2.5ZM200,100H5V5h195v95Z"></path>
      </g>
      <rect class="cls-2" x="20.48" y="18.73" width="164.05" height="67.55"></rect>
      <g>
        <ellipse class="cls-4" cx="102.5" cy="52.5" rx="30.68" ry="38.82"></ellipse>
        <path class="cls-2" d="M102.5,12.18c-17.74,0-32.18,18.09-32.18,40.32s14.44,40.32,32.18,40.32,32.18-18.09,32.18-40.32-14.44-40.32-32.18-40.32ZM102.5,89.82c-16.09,0-29.18-16.74-29.18-37.32s13.09-37.32,29.18-37.32,29.18,16.74,29.18,37.32-13.09,37.32-29.18,37.32Z"></path>
      </g>
      <g>
        <path class="cls-3" d="M20.48,17.26c-.79-.39-1.68-.59-2.66-.59-.6,0-1.19.11-1.75.34l.25-2.86h6.01v-3.38h-9.47l-.43,8.36,1.77,1.16c.51-.33.93-.55,1.24-.66.31-.11.69-.16,1.14-.16.74,0,1.34.23,1.79.68.45.45.68,1.1.68,1.93s-.23,1.51-.7,1.96c-.47.45-1.12.67-1.95.67-1.18,0-2.33-.54-3.47-1.61l-1.84,2.54c1.59,1.56,3.55,2.33,5.89,2.33,1.1,0,2.12-.24,3.05-.71.93-.48,1.67-1.17,2.22-2.07.55-.91.83-1.97.83-3.2s-.23-2.16-.7-2.96c-.47-.79-1.1-1.39-1.89-1.78Z"></path>
        <path class="cls-3" d="M33.81,11.46c-.89-.65-1.94-.97-3.15-.97s-2.26.32-3.15.96c-.89.64-1.59,1.61-2.09,2.91-.5,1.3-.75,2.89-.75,4.78s.25,3.5.75,4.83c.5,1.33,1.2,2.33,2.1,3,.9.67,1.95,1.01,3.14,1.01s2.24-.34,3.14-1.01c.9-.67,1.59-1.67,2.09-3,.49-1.33.74-2.94.74-4.83s-.25-3.48-.74-4.77c-.49-1.29-1.18-2.26-2.07-2.91ZM32.25,23.61c-.38.83-.91,1.25-1.59,1.25s-1.21-.42-1.6-1.25c-.39-.83-.58-2.32-.58-4.46s.19-3.59.58-4.39c.39-.79.92-1.19,1.6-1.19s1.21.4,1.59,1.19c.38.79.57,2.26.57,4.39s-.19,3.63-.57,4.46Z"></path>
        <path class="cls-3" d="M47.05,11.46c-.89-.65-1.94-.97-3.15-.97s-2.26.32-3.15.96c-.89.64-1.59,1.61-2.09,2.91-.5,1.3-.75,2.89-.75,4.78s.25,3.5.75,4.83c.5,1.33,1.2,2.33,2.1,3,.9.67,1.95,1.01,3.14,1.01s2.24-.34,3.14-1.01c.9-.67,1.59-1.67,2.09-3,.49-1.33.74-2.94.74-4.83s-.25-3.48-.74-4.77c-.49-1.29-1.18-2.26-2.07-2.91ZM45.48,23.61c-.38.83-.91,1.25-1.59,1.25s-1.21-.42-1.6-1.25c-.39-.83-.58-2.32-.58-4.46s.19-3.59.58-4.39c.39-.79.92-1.19,1.6-1.19s1.21.4,1.59,1.19c.38.79.57,2.26.57,4.39s-.19,3.63-.57,4.46Z"></path>
        <path class="cls-3" d="M60.28,11.46c-.89-.65-1.94-.97-3.15-.97s-2.26.32-3.15.96c-.89.64-1.59,1.61-2.09,2.91-.5,1.3-.75,2.89-.75,4.78s.25,3.5.75,4.83c.5,1.33,1.2,2.33,2.1,3,.9.67,1.95,1.01,3.14,1.01s2.24-.34,3.14-1.01c.9-.67,1.59-1.67,2.09-3,.49-1.33.74-2.94.74-4.83s-.25-3.48-.74-4.77c-.49-1.29-1.18-2.26-2.07-2.91ZM58.72,23.61c-.38.83-.91,1.25-1.59,1.25s-1.21-.42-1.6-1.25c-.39-.83-.58-2.32-.58-4.46s.19-3.59.58-4.39c.39-.79.92-1.19,1.6-1.19s1.21.4,1.59,1.19c.38.79.57,2.26.57,4.39s-.19,3.63-.57,4.46Z"></path>
      </g>
    </g>
  </g>
</svg>