<?xml version="1.0"?>
<svg id="_レイヤー_2" data-name="レイヤー 2" xmlns="http://www.w3.org/2000/svg" viewBox="0 0 205 105">
  <defs>
    
  </defs>
  <g id="_1" data-name="1">
    <g>
      <g>
        <rect class="cls-1" x="2.5" y="2.5" width="200" height="100"></rect>
        <path class="cls-3" d="M202.5,0H2.5C1.12,0,0,1.12,0,2.5v100c0,1.38,1.12,2.5,2.5,2.5h200c1.38,0,2.5-1.12,2.5-2.5V2.5c0-1.38-1.12-2.5-2.5-2.5ZM200,100H5V5h195v95Z"></path>
      </g>
      <rect class="cls-2" x="20.48" y="18.73" width="164.05" height="67.55"></rect>
      <g>
        <ellipse class="cls-4" cx="102.5" cy="52.5" rx="30.68" ry="38.82"></ellipse>
        <path class="cls-2" d="M102.5,12.18c-17.74,0-32.18,18.09-32.18,40.32s14.44,40.32,32.18,40.32,32.18-18.09,32.18-40.32-14.44-40.32-32.18-40.32ZM102.5,89.82c-16.09,0-29.18-16.74-29.18-37.32s13.09-37.32,29.18-37.32,29.18,16.74,29.18,37.32-13.09,37.32-29.18,37.32Z"></path>
      </g>
      <g>
        <path class="cls-3" d="M18.84,10.79h-3.02c-.62.38-1.25.7-1.9.94-.65.25-1.43.45-2.34.62v2.53h3.16v9.75h-3.64v3.32h10.83v-3.32h-3.09v-13.85Z"></path>
        <path class="cls-3" d="M32.99,11.48c-.91-.66-1.97-.99-3.2-.99s-2.3.33-3.2.98c-.91.65-1.61,1.64-2.12,2.96-.51,1.32-.76,2.94-.76,4.86s.25,3.56.76,4.91c.51,1.35,1.22,2.37,2.13,3.05.91.68,1.98,1.03,3.19,1.03s2.28-.34,3.19-1.03c.91-.68,1.62-1.7,2.12-3.05.5-1.35.75-2.99.75-4.91s-.25-3.54-.75-4.85c-.5-1.31-1.2-2.3-2.11-2.96ZM31.4,23.83c-.38.85-.92,1.27-1.61,1.27s-1.23-.42-1.62-1.27c-.39-.84-.59-2.36-.59-4.54s.2-3.65.59-4.46c.39-.81.93-1.21,1.62-1.21s1.23.4,1.61,1.21c.38.81.58,2.29.58,4.46s-.19,3.69-.58,4.54Z"></path>
        <path class="cls-3" d="M46.44,11.48c-.91-.66-1.97-.99-3.2-.99s-2.3.33-3.2.98c-.91.65-1.61,1.64-2.12,2.96-.51,1.32-.76,2.94-.76,4.86s.25,3.56.76,4.91c.51,1.35,1.22,2.37,2.13,3.05.91.68,1.98,1.03,3.19,1.03s2.28-.34,3.19-1.03c.91-.68,1.62-1.7,2.12-3.05.5-1.35.75-2.99.75-4.91s-.25-3.54-.75-4.85c-.5-1.31-1.2-2.3-2.11-2.96ZM44.85,23.83c-.38.85-.92,1.27-1.61,1.27s-1.23-.42-1.62-1.27c-.39-.84-.59-2.36-.59-4.54s.2-3.65.59-4.46c.39-.81.93-1.21,1.62-1.21s1.23.4,1.61,1.21c.38.81.58,2.29.58,4.46s-.19,3.69-.58,4.54Z"></path>
        <path class="cls-3" d="M59.9,11.48c-.91-.66-1.97-.99-3.2-.99s-2.3.33-3.2.98c-.91.65-1.61,1.64-2.12,2.96-.51,1.32-.76,2.94-.76,4.86s.25,3.56.76,4.91c.51,1.35,1.22,2.37,2.13,3.05.91.68,1.98,1.03,3.19,1.03s2.28-.34,3.19-1.03c.91-.68,1.62-1.7,2.12-3.05.5-1.35.75-2.99.75-4.91s-.25-3.54-.75-4.85c-.5-1.31-1.2-2.3-2.11-2.96ZM58.31,23.83c-.38.85-.92,1.27-1.61,1.27s-1.23-.42-1.62-1.27c-.39-.84-.59-2.36-.59-4.54s.2-3.65.59-4.46c.39-.81.93-1.21,1.62-1.21s1.23.4,1.61,1.21c.38.81.58,2.29.58,4.46s-.19,3.69-.58,4.54Z"></path>
        <path class="cls-3" d="M73.35,11.48c-.91-.66-1.97-.99-3.2-.99s-2.3.33-3.2.98c-.91.65-1.61,1.64-2.12,2.96-.51,1.32-.76,2.94-.76,4.86s.25,3.56.76,4.91c.51,1.35,1.22,2.37,2.13,3.05.91.68,1.98,1.03,3.19,1.03s2.28-.34,3.19-1.03c.91-.68,1.62-1.7,2.12-3.05.5-1.35.75-2.99.75-4.91s-.25-3.54-.75-4.85c-.5-1.31-1.2-2.3-2.11-2.96ZM71.77,23.83c-.38.85-.92,1.27-1.61,1.27s-1.23-.42-1.62-1.27c-.39-.84-.59-2.36-.59-4.54s.2-3.65.59-4.46c.39-.81.93-1.21,1.62-1.21s1.23.4,1.61,1.21c.38.81.58,2.29.58,4.46s-.19,3.69-.58,4.54Z"></path>
      </g>
    </g>
  </g>
</svg>