<?xml version="1.0"?>
<svg id="_レイヤー_2" data-name="レイヤー 2" xmlns="http://www.w3.org/2000/svg" viewBox="0 0 104.53 260.41">
  <defs>
    
  </defs>
  <g id="_1" data-name="1">
    <g>
      <path class="cls-5" d="M91.06,103.18h-.01c-1.11.8-2.31,1.57-3.6,2.31-5.31,3.07-11.54,5.3-18.17,6.69-10.97,2.3-23.06,2.3-34.03,0-6.64-1.39-12.86-3.62-18.18-6.69-1.29-.74-2.49-1.52-3.6-2.31-3.83-2.75-6.65-5.8-8.47-9-1.67-2.92-2.5-5.96-2.5-9.01v18c0,3.05.83,6.09,2.5,9.01,1.82,3.2,4.64,6.25,8.47,9,1.11.79,2.31,1.57,3.6,2.31,5.32,3.07,11.54,5.3,18.18,6.69,10.97,2.3,23.06,2.3,34.03,0,6.63-1.39,12.86-3.62,18.17-6.69,1.29-.74,2.49-1.51,3.6-2.31h.01c3.83-2.75,6.65-5.8,8.47-9,1.67-2.92,2.5-5.96,2.5-9v-18c0,3.04-.83,6.08-2.5,9-1.82,3.2-4.64,6.25-8.47,9Z"></path>
      <path class="cls-5" d="M91.06,121.18h-.01c-1.11.8-2.31,1.57-3.6,2.31-5.31,3.07-11.54,5.3-18.17,6.69-10.97,2.3-23.06,2.3-34.03,0-6.64-1.39-12.86-3.62-18.18-6.69-1.29-.74-2.49-1.52-3.6-2.31-3.83-2.75-6.65-5.8-8.47-9-1.67-2.92-2.5-5.96-2.5-9.01v18c0,3.05.83,6.09,2.5,9.01,1.82,3.2,4.64,6.25,8.47,9,1.11.79,2.31,1.57,3.6,2.31,5.32,3.07,11.54,5.3,18.18,6.69,10.97,2.3,23.06,2.3,34.03,0,6.63-1.39,12.86-3.62,18.17-6.69,1.29-.74,2.49-1.51,3.6-2.31h.01c3.83-2.75,6.65-5.8,8.47-9,1.67-2.92,2.5-5.96,2.5-9v-18c0,3.04-.83,6.08-2.5,9-1.82,3.2-4.64,6.25-8.47,9Z"></path>
      <path class="cls-5" d="M91.06,139.18h-.01c-1.11.8-2.31,1.57-3.6,2.31-5.31,3.07-11.54,5.3-18.17,6.69-10.97,2.3-23.06,2.3-34.03,0-6.64-1.39-12.86-3.62-18.18-6.69-1.29-.74-2.49-1.52-3.6-2.31-3.83-2.75-6.65-5.8-8.47-9-1.67-2.92-2.5-5.96-2.5-9.01v18c0,3.05.83,6.09,2.5,9.01,1.82,3.2,4.64,6.25,8.47,9,1.11.79,2.31,1.57,3.6,2.31,5.32,3.07,11.54,5.3,18.18,6.69,10.97,2.3,23.06,2.3,34.03,0,6.63-1.39,12.86-3.62,18.17-6.69,1.29-.74,2.49-1.51,3.6-2.31h.01c3.83-2.75,6.65-5.8,8.47-9,1.67-2.92,2.5-5.96,2.5-9v-18c0,3.04-.83,6.08-2.5,9-1.82,3.2-4.64,6.25-8.47,9Z"></path>
      <path class="cls-5" d="M91.06,157.18h-.01c-1.11.8-2.31,1.57-3.6,2.31-5.31,3.07-11.54,5.3-18.17,6.69-10.97,2.3-23.06,2.3-34.03,0-6.64-1.39-12.86-3.62-18.18-6.69-1.29-.74-2.49-1.52-3.6-2.31-3.83-2.75-6.65-5.8-8.47-9-1.67-2.92-2.5-5.96-2.5-9.01v18c0,3.05.83,6.09,2.5,9.01,1.82,3.2,4.64,6.25,8.47,9,1.11.79,2.31,1.57,3.6,2.31,5.32,3.07,11.54,5.3,18.18,6.69,10.97,2.3,23.06,2.3,34.03,0,6.63-1.39,12.86-3.62,18.17-6.69,1.29-.74,2.49-1.51,3.6-2.31h.01c3.83-2.75,6.65-5.8,8.47-9,1.67-2.92,2.5-5.96,2.5-9v-18c0,3.04-.83,6.08-2.5,9-1.82,3.2-4.64,6.25-8.47,9Z"></path>
      <path class="cls-5" d="M91.06,175.18h-.01c-1.11.8-2.31,1.57-3.6,2.31-5.31,3.07-11.54,5.3-18.17,6.69-10.97,2.3-23.06,2.3-34.03,0-6.64-1.39-12.86-3.62-18.18-6.69-1.29-.74-2.49-1.52-3.6-2.31-3.83-2.75-6.65-5.8-8.47-9-1.67-2.92-2.5-5.96-2.5-9.01v18c0,3.05.83,6.09,2.5,9.01,1.82,3.2,4.64,6.25,8.47,9,1.11.79,2.31,1.57,3.6,2.31,5.32,3.07,11.54,5.3,18.18,6.69,10.97,2.3,23.06,2.3,34.03,0,6.63-1.39,12.86-3.62,18.17-6.69,1.29-.74,2.49-1.51,3.6-2.31h.01c3.83-2.75,6.65-5.8,8.47-9,1.67-2.92,2.5-5.96,2.5-9v-18c0,3.04-.83,6.08-2.5,9-1.82,3.2-4.64,6.25-8.47,9Z"></path>
      <path class="cls-5" d="M91.06,193.18h-.01c-1.11.8-2.31,1.57-3.6,2.31-5.31,3.07-11.54,5.3-18.17,6.69-10.97,2.3-23.06,2.3-34.03,0-6.64-1.39-12.86-3.62-18.18-6.69-1.29-.74-2.49-1.52-3.6-2.31-3.83-2.75-6.65-5.8-8.47-9-1.67-2.92-2.5-5.96-2.5-9.01v18c0,3.05.83,6.09,2.5,9.01,1.82,3.2,4.64,6.25,8.47,9,1.11.79,2.31,1.57,3.6,2.31,19.44,11.22,50.95,11.22,70.38,0,1.29-.74,2.49-1.51,3.6-2.31h.01c3.83-2.75,6.65-5.8,8.47-9,1.67-2.92,2.5-5.96,2.5-9v-18c0,3.04-.83,6.08-2.5,9-1.82,3.2-4.64,6.25-8.47,9Z"></path>
      <path class="cls-5" d="M91.06,211.18h-.01c-1.11.8-2.31,1.57-3.6,2.31-19.43,11.22-50.94,11.22-70.38,0-1.29-.74-2.49-1.52-3.6-2.31-3.83-2.75-6.65-5.8-8.47-9-1.67-2.92-2.5-5.96-2.5-9.01v18c0,3.05.83,6.09,2.5,9.01,1.82,3.2,4.65,6.26,8.48,9,1.11.8,2.31,1.57,3.59,2.31,19.44,11.22,50.95,11.22,70.38,0,1.29-.74,2.49-1.51,3.6-2.31,3.83-2.74,6.66-5.8,8.48-9,1.67-2.92,2.5-5.96,2.5-9v-18c0,3.04-.83,6.08-2.5,9-1.82,3.2-4.64,6.25-8.47,9Z"></path>
      <path class="cls-5" d="M95.55,225.36c-1.3,1.33-2.81,2.61-4.5,3.82-1.11.8-2.31,1.57-3.6,2.31-.43.25-.87.49-1.31.72-.84.46-1.7.9-2.59,1.3-2.94,1.39-6.1,2.55-9.41,3.47-.85.25-1.71.48-2.59.68-3.05.75-6.2,1.31-9.41,1.67-15.79,1.84-32.82-.77-45.07-7.84-1.28-.74-2.48-1.51-3.59-2.31-3.83-2.74-6.66-5.8-8.48-9-1.67-2.92-2.5-5.96-2.5-9.01v18.01c0,7.36,4.86,14.7,14.57,20.31,12.25,7.07,29.28,9.68,45.07,7.84,3.21-.36,6.36-.92,9.41-1.67.88-.2,1.74-.43,2.59-.68,3.31-.92,6.47-2.08,9.41-3.47.89-.4,1.75-.84,2.59-1.3.44-.23.88-.47,1.31-.72,3.24-1.87,5.95-3.93,8.1-6.13,4.32-4.38,6.48-9.28,6.48-14.18v-18c0,3.04-.83,6.08-2.5,9-1.01,1.78-2.34,3.52-3.98,5.18Z"></path>
      <path class="cls-5" d="M91.06,85.18h-.01c-1.11.8-2.31,1.57-3.6,2.31-5.31,3.07-11.54,5.3-18.17,6.69-10.97,2.3-23.06,2.3-34.03,0-6.64-1.39-12.86-3.62-18.18-6.69-1.29-.74-2.49-1.52-3.6-2.31-3.83-2.75-6.65-5.8-8.47-9-1.67-2.92-2.5-5.96-2.5-9.01v18c0,3.05.83,6.09,2.5,9.01,1.82,3.2,4.64,6.25,8.47,9,1.11.79,2.31,1.57,3.6,2.31,5.32,3.07,11.54,5.3,18.18,6.69,10.97,2.3,23.06,2.3,34.03,0,6.63-1.39,12.86-3.62,18.17-6.69,1.29-.74,2.49-1.51,3.6-2.31h.01c3.83-2.75,6.65-5.8,8.47-9,1.67-2.92,2.5-5.96,2.5-9v-18c0,3.04-.83,6.08-2.5,9-1.82,3.2-4.64,6.25-8.47,9Z"></path>
      <path class="cls-5" d="M91.05,67.18c-1.11.8-2.31,1.57-3.6,2.31-5.31,3.07-11.54,5.3-18.17,6.69-10.97,2.3-23.06,2.3-34.03,0-6.64-1.39-12.86-3.62-18.18-6.69-1.29-.74-2.49-1.52-3.6-2.31-3.83-2.75-6.65-5.8-8.47-9-1.67-2.92-2.5-5.96-2.5-9.01v18c0,3.05.83,6.09,2.5,9.01,1.82,3.2,4.64,6.25,8.47,9,1.11.79,2.31,1.57,3.6,2.31,5.32,3.07,11.54,5.3,18.18,6.69,10.97,2.3,23.06,2.3,34.03,0,6.63-1.39,12.86-3.62,18.17-6.69,1.29-.74,2.49-1.51,3.6-2.31h.01c3.83-2.75,6.65-5.8,8.47-9,1.67-2.92,2.5-5.96,2.5-9v-18c0,3.04-.83,6.08-2.5,9-1.82,3.2-4.65,6.26-8.48,9Z"></path>
      <path class="cls-5" d="M95.55,45.36c-1.3,1.33-2.81,2.61-4.5,3.82-1.11.8-2.31,1.57-3.6,2.31-.43.25-.87.5-1.31.73-.84.46-1.71.89-2.59,1.3-2.95,1.38-6.11,2.54-9.41,3.47-.85.24-1.72.47-2.59.68-.75.18-1.51.35-2.27.51-2.33.49-4.72.88-7.14,1.15-8.93,1.05-18.26.66-26.89-1.15-6.64-1.39-12.86-3.62-18.18-6.69-1.29-.74-2.49-1.52-3.6-2.31-3.83-2.75-6.65-5.8-8.47-9-1.67-2.92-2.5-5.96-2.5-9v17.99c0,3.05.83,6.09,2.5,9.01,1.82,3.2,4.64,6.25,8.47,9,1.11.79,2.31,1.57,3.6,2.31,5.32,3.07,11.54,5.3,18.18,6.69,8.63,1.81,17.96,2.2,26.89,1.15,2.42-.27,4.81-.66,7.14-1.15.76-.16,1.52-.33,2.27-.51.87-.21,1.74-.44,2.59-.68,3.3-.93,6.46-2.09,9.41-3.47.88-.41,1.75-.84,2.59-1.3.44-.23.88-.48,1.31-.73,1.29-.74,2.49-1.51,3.6-2.31,1.69-1.21,3.2-2.49,4.5-3.82,1.64-1.66,2.97-3.4,3.98-5.18,1.67-2.92,2.5-5.96,2.5-9v-18c0,3.04-.83,6.08-2.5,9-1.01,1.78-2.34,3.52-3.98,5.18Z"></path>
      <path class="cls-5" d="M87.45,10.86C68.02-.36,36.51-.36,17.07,10.86,7.35,16.47,2.49,23.83,2.5,31.18c0,3.04.83,6.08,2.5,9,1.82,3.2,4.64,6.25,8.47,9,1.11.79,2.31,1.57,3.6,2.31,5.32,3.07,11.54,5.3,18.18,6.69,10.97,2.3,23.06,2.3,34.03,0,6.63-1.39,12.86-3.62,18.17-6.69,1.29-.74,2.49-1.51,3.6-2.31,3.83-2.74,6.66-5.8,8.48-9,1.67-2.92,2.5-5.96,2.5-9,0-7.36-4.86-14.71-14.58-20.32Z"></path>
      <path class="cls-2" d="M64.35,59.33v198c2.46-.36,4.86-.92,7.2-1.67V57.67c-.57.18-1.15.35-1.74.51-1.78.49-3.61.88-5.46,1.15Z"></path>
      <path class="cls-2" d="M74.14,254.98c3.31-.92,6.47-2.08,9.41-3.47V53.52c-2.95,1.38-6.11,2.54-9.41,3.47v197.99Z"></path>
      <path class="cls-3" d="M87.45,51.49c-.43.25-.87.5-1.31.73v197.99c.44-.23.88-.47,1.31-.72,3.24-1.87,5.95-3.93,8.1-6.13V45.36c-1.3,1.33-2.81,2.61-4.5,3.82-1.11.8-2.31,1.57-3.6,2.31Z"></path>
      <path class="cls-4" d="M102.03,82.68c-1.38,0-2.5,1.12-2.5,2.5,0,2.63-.73,5.24-2.17,7.76-1.66,2.92-4.23,5.65-7.63,8.11-.05.03-.09.06-.14.09-1.03.74-2.17,1.47-3.39,2.17-4.96,2.87-10.82,5.02-17.43,6.41-10.64,2.23-22.36,2.23-33,0-6.6-1.38-12.47-3.54-17.45-6.41-1.14-.66-2.29-1.39-3.39-2.17-3.46-2.49-6.07-5.25-7.76-8.21-1.44-2.52-2.17-5.13-2.17-7.77,0-1.38-1.12-2.5-2.5-2.5S0,83.79,0,85.18v18C0,106.69.95,110.14,2.83,113.42c2.04,3.59,5.13,6.88,9.19,9.8,1.24.88,2.52,1.7,3.8,2.44,5.43,3.14,11.8,5.48,18.92,6.97,5.65,1.19,11.59,1.78,17.53,1.78,5.94,0,11.88-.59,17.53-1.78,7.13-1.5,13.49-3.84,18.9-6.97,1.31-.75,2.55-1.54,3.68-2.35.05-.03.09-.06.14-.09,4.05-2.91,7.14-6.21,9.18-9.79,1.88-3.28,2.83-6.73,2.83-10.24v-18c0-1.38-1.12-2.5-2.5-2.5ZM99.53,103.18c0,2.63-.73,5.24-2.17,7.76-1.66,2.92-4.23,5.65-7.63,8.11-.05.03-.09.06-.14.09-1.03.74-2.17,1.47-3.39,2.17-4.96,2.87-10.82,5.02-17.43,6.41-10.64,2.23-22.36,2.23-33,0-6.6-1.38-12.47-3.54-17.45-6.41-1.14-.66-2.29-1.39-3.39-2.17-3.46-2.49-6.07-5.25-7.76-8.21-1.44-2.52-2.17-5.13-2.17-7.77v-4.54c1.86,2.36,4.2,4.56,7.02,6.58,1.24.88,2.52,1.7,3.8,2.44,5.43,3.14,11.8,5.48,18.92,6.97,11.3,2.37,23.75,2.37,35.06,0,7.13-1.5,13.49-3.84,18.9-6.97,1.31-.75,2.55-1.54,3.68-2.35.05-.03.09-.06.14-.09,2.81-2.02,5.16-4.22,7.01-6.58v4.54Z"></path>
      <path class="cls-4" d="M102.03,100.68c-1.38,0-2.5,1.12-2.5,2.5,0,2.63-.73,5.24-2.17,7.76-1.66,2.92-4.23,5.65-7.63,8.11-.05.03-.09.06-.14.09-1.03.74-2.17,1.47-3.39,2.17-4.96,2.87-10.82,5.02-17.43,6.41-10.64,2.23-22.36,2.23-33,0-6.6-1.38-12.47-3.54-17.45-6.41-1.14-.66-2.29-1.39-3.39-2.17-3.46-2.49-6.07-5.25-7.76-8.21-1.44-2.52-2.17-5.13-2.17-7.77,0-1.38-1.12-2.5-2.5-2.5S0,101.79,0,103.18v18C0,124.69.95,128.14,2.83,131.42c2.04,3.59,5.13,6.88,9.19,9.8,1.24.88,2.52,1.7,3.8,2.44,5.43,3.14,11.8,5.48,18.92,6.97,5.65,1.19,11.59,1.78,17.53,1.78,5.94,0,11.88-.59,17.53-1.78,7.13-1.5,13.49-3.84,18.9-6.97,1.31-.75,2.55-1.54,3.68-2.35.05-.03.09-.06.14-.09,4.05-2.91,7.14-6.21,9.18-9.79,1.88-3.28,2.83-6.73,2.83-10.24v-18c0-1.38-1.12-2.5-2.5-2.5ZM99.53,121.18c0,2.63-.73,5.24-2.17,7.76-1.66,2.92-4.23,5.65-7.63,8.11-.05.03-.09.06-.14.09-1.03.74-2.17,1.47-3.39,2.17-4.96,2.87-10.82,5.02-17.43,6.41-10.64,2.23-22.36,2.23-33,0-6.6-1.38-12.47-3.54-17.45-6.41-1.14-.66-2.29-1.39-3.39-2.17-3.46-2.49-6.07-5.25-7.76-8.21-1.44-2.52-2.17-5.13-2.17-7.77v-4.54c1.86,2.36,4.2,4.56,7.02,6.58,1.24.88,2.52,1.7,3.8,2.44,5.43,3.14,11.8,5.48,18.92,6.97,11.3,2.37,23.75,2.37,35.06,0,7.13-1.5,13.49-3.84,18.9-6.97,1.31-.75,2.55-1.54,3.68-2.35.05-.03.09-.06.14-.09,2.81-2.02,5.16-4.22,7.01-6.58v4.54Z"></path>
      <path class="cls-4" d="M102.03,118.68c-1.38,0-2.5,1.12-2.5,2.5,0,2.63-.73,5.24-2.17,7.76-1.66,2.92-4.23,5.65-7.63,8.11-.05.03-.09.06-.14.09-1.03.74-2.17,1.47-3.39,2.17-4.96,2.87-10.82,5.02-17.43,6.41-10.64,2.23-22.36,2.23-33,0-6.6-1.38-12.47-3.54-17.45-6.41-1.14-.66-2.29-1.39-3.39-2.17-3.46-2.49-6.07-5.25-7.76-8.21-1.44-2.52-2.17-5.13-2.17-7.77,0-1.38-1.12-2.5-2.5-2.5S0,119.79,0,121.18v18c0,3.52.95,6.97,2.83,10.25,2.04,3.59,5.13,6.88,9.19,9.8,1.24.88,2.52,1.7,3.8,2.44,5.43,3.14,11.8,5.48,18.92,6.97,5.65,1.18,11.59,1.78,17.53,1.78s11.88-.59,17.53-1.78c7.13-1.5,13.49-3.84,18.9-6.97,1.31-.75,2.55-1.54,3.68-2.35.05-.03.09-.06.14-.09,4.05-2.91,7.14-6.21,9.18-9.79,1.88-3.28,2.83-6.73,2.83-10.24v-18c0-1.38-1.12-2.5-2.5-2.5ZM99.53,139.18c0,2.63-.73,5.24-2.17,7.76-1.66,2.92-4.23,5.65-7.63,8.11-.05.03-.09.06-.14.09-1.03.74-2.17,1.47-3.39,2.17-4.96,2.87-10.82,5.02-17.43,6.41-10.64,2.23-22.36,2.23-33,0-6.6-1.38-12.47-3.54-17.45-6.41-1.14-.66-2.29-1.39-3.39-2.17-3.46-2.49-6.07-5.25-7.76-8.21-1.44-2.52-2.17-5.13-2.17-7.77v-4.54c1.86,2.36,4.2,4.56,7.02,6.58,1.24.88,2.52,1.7,3.8,2.44,5.43,3.14,11.8,5.48,18.92,6.97,11.3,2.37,23.75,2.37,35.06,0,7.13-1.5,13.49-3.84,18.9-6.97,1.31-.75,2.55-1.54,3.68-2.35.05-.03.09-.06.14-.09,2.81-2.02,5.16-4.22,7.01-6.58v4.54Z"></path>
      <path class="cls-4" d="M102.03,136.68c-1.38,0-2.5,1.12-2.5,2.5,0,2.63-.73,5.24-2.17,7.76-1.66,2.92-4.23,5.65-7.63,8.11-.05.03-.09.06-.14.09-1.03.74-2.17,1.47-3.39,2.17-4.96,2.87-10.82,5.02-17.43,6.41-10.64,2.23-22.36,2.23-33,0-6.6-1.38-12.47-3.54-17.45-6.41-1.14-.66-2.29-1.39-3.39-2.17-3.46-2.49-6.07-5.25-7.76-8.21-1.44-2.52-2.17-5.13-2.17-7.77,0-1.38-1.12-2.5-2.5-2.5S0,137.79,0,139.18v18c0,3.52.95,6.97,2.83,10.25,2.04,3.59,5.13,6.88,9.19,9.8,1.24.88,2.52,1.7,3.8,2.44,5.43,3.14,11.8,5.48,18.92,6.97,5.65,1.18,11.59,1.78,17.53,1.78s11.88-.59,17.53-1.78c7.13-1.5,13.49-3.84,18.9-6.97,1.31-.75,2.55-1.54,3.68-2.35.05-.03.1-.06.14-.09,4.05-2.91,7.14-6.21,9.18-9.79,1.88-3.28,2.83-6.73,2.83-10.24v-18c0-1.38-1.12-2.5-2.5-2.5ZM99.53,157.18c0,2.63-.73,5.24-2.17,7.76-1.66,2.92-4.23,5.65-7.63,8.11-.05.03-.09.06-.14.09-1.03.74-2.17,1.47-3.39,2.17-4.96,2.87-10.82,5.02-17.43,6.41-10.64,2.23-22.36,2.23-33,0-6.6-1.38-12.47-3.54-17.45-6.41-1.15-.66-2.29-1.39-3.39-2.17-3.46-2.49-6.07-5.25-7.76-8.21-1.44-2.52-2.17-5.13-2.17-7.77v-4.54c1.86,2.36,4.2,4.56,7.02,6.58,1.24.88,2.52,1.7,3.8,2.44,5.43,3.14,11.8,5.48,18.92,6.97,11.3,2.37,23.75,2.37,35.06,0,7.13-1.5,13.49-3.84,18.9-6.97,1.31-.75,2.55-1.54,3.68-2.35.05-.03.09-.06.14-.09,2.81-2.02,5.16-4.22,7.01-6.58v4.54Z"></path>
      <path class="cls-4" d="M102.03,154.68c-1.38,0-2.5,1.12-2.5,2.5,0,2.63-.73,5.24-2.17,7.76-1.66,2.92-4.23,5.65-7.63,8.11-.05.03-.09.06-.14.09-1.03.74-2.17,1.47-3.39,2.17-4.96,2.87-10.82,5.02-17.43,6.41-10.64,2.23-22.36,2.23-33,0-6.6-1.38-12.47-3.54-17.45-6.41-1.15-.66-2.29-1.39-3.39-2.17-3.46-2.49-6.07-5.25-7.76-8.21-1.44-2.52-2.17-5.13-2.17-7.77,0-1.38-1.12-2.5-2.5-2.5S0,155.79,0,157.18v18c0,3.52.95,6.97,2.83,10.25,2.04,3.59,5.13,6.88,9.19,9.8,1.24.88,2.52,1.7,3.8,2.44,5.43,3.14,11.8,5.48,18.92,6.97,5.65,1.18,11.59,1.78,17.53,1.78s11.88-.59,17.53-1.78c7.13-1.5,13.49-3.84,18.9-6.97,1.31-.75,2.55-1.54,3.68-2.35.05-.03.1-.06.14-.09,4.05-2.91,7.14-6.21,9.18-9.79,1.88-3.28,2.83-6.73,2.83-10.24v-18c0-1.38-1.12-2.5-2.5-2.5ZM99.53,175.19c0,2.63-.73,5.24-2.17,7.76-1.66,2.92-4.23,5.65-7.63,8.11-.05.03-.09.06-.14.09-1.03.74-2.17,1.47-3.39,2.17-4.96,2.87-10.82,5.02-17.43,6.41-10.64,2.23-22.36,2.23-33,0-6.6-1.38-12.47-3.54-17.45-6.41-1.15-.66-2.29-1.39-3.39-2.17-3.46-2.49-6.07-5.25-7.76-8.21-1.44-2.52-2.17-5.13-2.17-7.77v-4.54c1.86,2.36,4.21,4.56,7.02,6.58,1.24.88,2.52,1.7,3.8,2.44,5.43,3.14,11.8,5.48,18.92,6.97,11.3,2.37,23.75,2.37,35.06,0,7.13-1.5,13.49-3.84,18.9-6.97,1.31-.75,2.55-1.54,3.68-2.35.05-.03.1-.06.14-.09,2.81-2.02,5.16-4.22,7.01-6.58v4.54Z"></path>
      <path class="cls-4" d="M102.03,172.69c-1.38,0-2.5,1.12-2.5,2.5,0,2.63-.73,5.24-2.17,7.76-1.66,2.92-4.23,5.65-7.63,8.11-.05.03-.09.06-.14.09-1.03.74-2.17,1.47-3.39,2.17-4.96,2.87-10.82,5.02-17.43,6.41-10.64,2.23-22.36,2.23-33,0-6.6-1.38-12.47-3.54-17.45-6.41-1.15-.66-2.29-1.39-3.39-2.17-3.46-2.49-6.07-5.25-7.76-8.21-1.44-2.52-2.17-5.13-2.17-7.77,0-1.38-1.12-2.5-2.5-2.5S0,173.79,0,175.17v18c0,3.52.95,6.97,2.83,10.25,2.04,3.59,5.13,6.88,9.19,9.8,1.24.88,2.52,1.7,3.8,2.44,10.05,5.8,23.25,8.7,36.45,8.7s26.39-2.9,36.43-8.7c1.31-.75,2.55-1.54,3.68-2.35.05-.03.1-.06.14-.09,4.05-2.91,7.14-6.21,9.18-9.79,1.88-3.28,2.83-6.73,2.83-10.24v-18c0-1.38-1.12-2.5-2.5-2.5ZM99.53,193.19c0,2.63-.73,5.24-2.17,7.76-1.66,2.92-4.23,5.65-7.63,8.11-.05.03-.09.06-.14.09-1.03.74-2.17,1.47-3.39,2.17-18.71,10.8-49.16,10.8-67.89,0-1.15-.66-2.29-1.39-3.39-2.17-3.46-2.49-6.07-5.25-7.76-8.21-1.44-2.52-2.17-5.13-2.17-7.77v-4.54c1.86,2.36,4.21,4.56,7.02,6.58,1.24.88,2.52,1.7,3.8,2.44,5.43,3.14,11.8,5.48,18.92,6.97,11.3,2.37,23.75,2.37,35.06,0,7.13-1.5,13.49-3.84,18.9-6.97,1.31-.75,2.55-1.54,3.68-2.35.05-.03.1-.06.14-.09,2.81-2.02,5.16-4.22,7.01-6.58v4.54Z"></path>
      <path class="cls-4" d="M102.03,190.69c-1.38,0-2.5,1.12-2.5,2.5,0,2.63-.73,5.24-2.17,7.76-1.66,2.92-4.23,5.65-7.63,8.11-.05.03-.09.06-.14.09-1.03.74-2.17,1.47-3.39,2.17-18.71,10.8-49.16,10.8-67.89,0-1.15-.66-2.29-1.39-3.39-2.17-3.46-2.49-6.07-5.25-7.76-8.21-1.44-2.52-2.17-5.13-2.17-7.77,0-1.38-1.12-2.5-2.5-2.5S0,191.79,0,193.17v18c0,3.52.95,6.97,2.83,10.25,2.05,3.6,5.14,6.89,9.19,9.79,1.16.83,2.44,1.66,3.8,2.45,10.05,5.8,23.25,8.7,36.45,8.7s26.39-2.9,36.43-8.7c1.36-.78,2.65-1.61,3.81-2.44,4.06-2.9,7.15-6.2,9.2-9.79,1.88-3.28,2.83-6.73,2.83-10.24v-18c0-1.38-1.12-2.5-2.5-2.5ZM99.53,211.19c0,2.63-.73,5.24-2.17,7.76-1.69,2.96-4.3,5.72-7.77,8.21-1.03.74-2.17,1.47-3.39,2.17-18.71,10.8-49.16,10.8-67.88,0-1.22-.71-2.36-1.44-3.39-2.18-3.46-2.48-6.07-5.24-7.76-8.21-1.44-2.52-2.17-5.13-2.17-7.77v-4.54c1.86,2.36,4.21,4.56,7.02,6.58,1.24.88,2.52,1.7,3.8,2.44,20.1,11.6,52.79,11.6,72.87,0,1.31-.75,2.55-1.54,3.68-2.35.05-.03.1-.06.14-.09,2.81-2.02,5.16-4.22,7.01-6.58v4.54Z"></path>
      <path class="cls-4" d="M102.03,208.69c-1.38,0-2.5,1.12-2.5,2.5,0,2.63-.73,5.24-2.17,7.77-.91,1.61-2.12,3.17-3.59,4.67-1.19,1.22-2.59,2.41-4.17,3.54-1.03.74-2.17,1.47-3.39,2.18-.4.23-.8.45-1.25.69-.88.48-1.67.88-2.46,1.23-2.78,1.32-5.81,2.43-9.05,3.33-.86.25-1.66.46-2.48.65-2.95.73-6.01,1.27-9.1,1.61-15.89,1.85-32.16-.96-43.53-7.52-1.22-.71-2.36-1.44-3.39-2.18-3.46-2.48-6.07-5.24-7.76-8.21-1.44-2.52-2.17-5.13-2.17-7.77,0-1.38-1.12-2.5-2.5-2.5S0,209.79,0,211.17v18.01C0,237.78,5.62,245.77,15.82,251.66c9.81,5.66,22.92,8.75,36.43,8.75,3.38,0,6.79-.19,10.17-.59,3.3-.37,6.57-.95,9.69-1.72.88-.2,1.78-.44,2.7-.71,3.47-.96,6.77-2.18,9.76-3.6.87-.39,1.77-.84,2.72-1.36.47-.25.95-.51,1.4-.77,3.41-1.97,6.32-4.17,8.63-6.54,4.71-4.78,7.2-10.29,7.2-15.94v-18c0-1.38-1.12-2.5-2.5-2.5ZM99.53,229.19c0,4.31-1.99,8.6-5.77,12.43-2,2.05-4.55,3.97-7.57,5.72-.4.23-.8.45-1.25.69-.88.48-1.67.88-2.46,1.23-2.78,1.32-5.81,2.43-9.05,3.33-.86.25-1.66.46-2.48.65-2.95.73-6.01,1.27-9.1,1.61-15.89,1.85-32.16-.96-43.53-7.52-8.59-4.96-13.32-11.41-13.32-18.14v-4.54c1.86,2.36,4.21,4.56,7.02,6.57,1.16.83,2.44,1.66,3.8,2.45,12.27,7.08,29.69,10.13,46.6,8.16,3.3-.37,6.57-.95,9.69-1.72.88-.2,1.78-.44,2.7-.71,3.47-.96,6.77-2.18,9.76-3.6.87-.39,1.77-.84,2.72-1.36.47-.25.95-.51,1.4-.77,1.36-.78,2.65-1.61,3.81-2.45,1.81-1.3,3.44-2.68,4.82-4.1.8-.81,1.53-1.64,2.2-2.49v4.55Z"></path>
      <path class="cls-4" d="M102.03,64.68c-1.38,0-2.5,1.12-2.5,2.5,0,2.63-.73,5.24-2.17,7.76-1.66,2.92-4.23,5.65-7.63,8.11-.05.03-.09.06-.14.09-1.03.74-2.17,1.47-3.39,2.17-4.96,2.87-10.82,5.02-17.43,6.41-10.64,2.23-22.36,2.23-33,0-6.6-1.38-12.47-3.54-17.45-6.41-1.14-.66-2.29-1.39-3.39-2.17-3.46-2.49-6.07-5.25-7.76-8.21-1.44-2.52-2.17-5.13-2.17-7.77,0-1.38-1.12-2.5-2.5-2.5S0,65.79,0,67.18v18C0,88.69.95,92.14,2.83,95.42c2.04,3.59,5.13,6.88,9.19,9.8,1.24.88,2.52,1.7,3.8,2.44,5.43,3.14,11.8,5.48,18.92,6.97,5.65,1.19,11.59,1.78,17.53,1.78,5.94,0,11.88-.59,17.53-1.78,7.13-1.5,13.49-3.84,18.9-6.97,1.31-.75,2.55-1.54,3.68-2.35.05-.03.09-.06.14-.09,4.05-2.91,7.14-6.21,9.18-9.79,1.88-3.28,2.83-6.73,2.83-10.24v-18c0-1.38-1.12-2.5-2.5-2.5ZM99.53,85.18c0,2.63-.73,5.24-2.17,7.76-1.66,2.92-4.23,5.65-7.63,8.11-.05.03-.09.06-.14.09-1.03.74-2.17,1.47-3.39,2.17-4.96,2.87-10.82,5.02-17.43,6.41-10.64,2.23-22.36,2.23-33,0-6.6-1.38-12.47-3.54-17.45-6.41-1.14-.66-2.29-1.39-3.39-2.17-3.46-2.49-6.07-5.25-7.76-8.21-1.44-2.52-2.17-5.13-2.17-7.77v-4.54c1.86,2.36,4.2,4.56,7.02,6.58,1.24.88,2.52,1.7,3.8,2.44,5.43,3.14,11.8,5.48,18.92,6.97,11.3,2.37,23.75,2.37,35.06,0,7.13-1.5,13.49-3.84,18.9-6.97,1.31-.75,2.55-1.54,3.68-2.35.05-.03.09-.06.14-.09,2.81-2.02,5.16-4.22,7.01-6.58v4.54Z"></path>
      <path class="cls-4" d="M102.03,46.68c-1.38,0-2.5,1.12-2.5,2.5,0,2.63-.73,5.24-2.17,7.76-1.69,2.96-4.3,5.72-7.77,8.21-1.03.74-2.17,1.47-3.39,2.17-4.96,2.87-10.82,5.02-17.43,6.41-10.64,2.23-22.36,2.23-33,0-6.6-1.38-12.47-3.54-17.45-6.41-1.14-.66-2.29-1.39-3.39-2.17-3.46-2.49-6.07-5.25-7.76-8.21-1.44-2.52-2.17-5.13-2.17-7.77,0-1.38-1.12-2.5-2.5-2.5S0,47.79,0,49.18v18C0,70.69.95,74.14,2.83,77.42c2.04,3.59,5.13,6.88,9.19,9.8,1.24.88,2.52,1.7,3.8,2.44,5.43,3.14,11.8,5.48,18.92,6.97,5.65,1.19,11.59,1.78,17.53,1.78,5.94,0,11.88-.59,17.53-1.78,7.13-1.5,13.49-3.84,18.9-6.97,1.31-.75,2.55-1.54,3.68-2.35.05-.03.09-.06.14-.09,4.05-2.91,7.14-6.21,9.18-9.79,1.88-3.28,2.83-6.73,2.83-10.24v-18c0-1.38-1.12-2.5-2.5-2.5ZM99.53,67.18c0,2.63-.73,5.24-2.17,7.76-1.66,2.92-4.23,5.65-7.63,8.11-.05.03-.09.06-.14.09-1.03.74-2.17,1.47-3.39,2.17-4.96,2.87-10.82,5.02-17.43,6.41-10.64,2.23-22.36,2.23-33,0-6.6-1.38-12.47-3.54-17.45-6.41-1.14-.66-2.29-1.39-3.39-2.17-3.46-2.49-6.07-5.25-7.76-8.21-1.44-2.52-2.17-5.13-2.17-7.77v-4.54c1.86,2.36,4.2,4.56,7.02,6.58,1.24.88,2.52,1.7,3.8,2.44,5.43,3.14,11.8,5.48,18.92,6.97,11.3,2.37,23.75,2.37,35.06,0,7.13-1.5,13.49-3.84,18.9-6.97,1.36-.78,2.65-1.61,3.81-2.45,2.81-2.01,5.17-4.22,7.03-6.58v4.54Z"></path>
      <path class="cls-4" d="M102.03,28.68c-1.38,0-2.5,1.12-2.5,2.5,0,2.63-.73,5.24-2.17,7.77-.91,1.6-2.12,3.17-3.59,4.67-1.19,1.22-2.59,2.41-4.17,3.54-1.03.74-2.17,1.47-3.39,2.18-.4.23-.8.46-1.25.7-.72.4-1.52.8-2.45,1.23-2.8,1.31-5.83,2.43-9.03,3.33-.82.23-1.66.45-2.49.65-.73.17-1.46.34-2.2.49-2.29.48-4.62.86-6.92,1.11-8.71,1.02-17.73.64-26.09-1.11-6.6-1.38-12.47-3.54-17.45-6.41-1.14-.66-2.29-1.39-3.39-2.17-3.46-2.49-6.07-5.25-7.76-8.21-1.44-2.52-2.17-5.13-2.17-7.76,0-1.38-1.12-2.5-2.5-2.5S0,29.8,0,31.18v17.99C0,52.69.95,56.14,2.83,59.42c2.04,3.59,5.13,6.88,9.19,9.8,1.24.88,2.52,1.7,3.8,2.44,5.43,3.14,11.8,5.48,18.92,6.97,5.64,1.18,11.56,1.78,17.5,1.78,3.41,0,6.82-.2,10.18-.59,2.45-.27,4.93-.67,7.38-1.19.78-.16,1.56-.34,2.34-.53.9-.22,1.8-.46,2.68-.7,3.46-.97,6.75-2.19,9.79-3.61,1.02-.48,1.92-.93,2.69-1.35.47-.25.95-.52,1.4-.78,1.36-.78,2.65-1.61,3.81-2.45,1.81-1.3,3.44-2.68,4.82-4.1,1.78-1.8,3.25-3.72,4.37-5.7,1.88-3.28,2.83-6.73,2.83-10.24v-18c0-1.38-1.12-2.5-2.5-2.5ZM99.53,49.18c0,2.63-.73,5.24-2.17,7.77-.91,1.6-2.12,3.17-3.59,4.67-1.19,1.22-2.59,2.41-4.17,3.54-1.03.74-2.17,1.47-3.39,2.18-.4.23-.8.46-1.25.7-.72.4-1.52.8-2.45,1.23-2.8,1.31-5.83,2.43-9.03,3.33-.82.23-1.66.45-2.49.65-.73.17-1.46.34-2.2.49-2.29.48-4.62.86-6.92,1.11-8.71,1.02-17.73.64-26.09-1.11-6.6-1.38-12.47-3.54-17.45-6.41-1.14-.66-2.29-1.39-3.39-2.17-3.46-2.49-6.07-5.25-7.76-8.21-1.44-2.52-2.17-5.13-2.17-7.77v-4.54c1.86,2.36,4.2,4.56,7.02,6.58,1.24.88,2.52,1.7,3.8,2.44,5.43,3.14,11.8,5.48,18.92,6.97,8.88,1.86,18.46,2.27,27.68,1.19,2.45-.27,4.93-.67,7.38-1.19.78-.16,1.56-.34,2.34-.53.9-.22,1.8-.46,2.68-.7,3.46-.97,6.75-2.19,9.79-3.61,1.02-.48,1.92-.93,2.69-1.35.47-.25.95-.52,1.4-.78,1.36-.78,2.65-1.61,3.81-2.45,1.81-1.3,3.44-2.68,4.82-4.1.8-.81,1.53-1.64,2.2-2.49v4.55Z"></path>
      <path class="cls-4" d="M88.7,8.7C68.61-2.9,35.92-2.9,15.82,8.7,5.61,14.59-.01,22.58,0,31.18,0,34.7.95,38.14,2.83,41.42c2.04,3.59,5.13,6.88,9.19,9.8,1.24.88,2.52,1.7,3.8,2.44,5.43,3.14,11.8,5.48,18.92,6.97,5.65,1.19,11.59,1.78,17.53,1.78s11.88-.59,17.53-1.78c7.13-1.5,13.49-3.84,18.9-6.97,1.36-.78,2.65-1.61,3.81-2.45,4.06-2.9,7.15-6.2,9.2-9.79,1.88-3.28,2.83-6.73,2.83-10.24,0-8.61-5.62-16.59-15.83-22.48ZM97.36,38.95c-1.69,2.96-4.3,5.72-7.77,8.21-1.03.74-2.17,1.47-3.39,2.17-4.96,2.87-10.82,5.02-17.43,6.41-10.64,2.23-22.36,2.23-33,0-6.6-1.38-12.47-3.54-17.45-6.41-1.14-.66-2.29-1.39-3.39-2.17-3.46-2.49-6.07-5.25-7.76-8.21-1.44-2.52-2.17-5.13-2.17-7.76,0-6.74,4.72-13.19,13.32-18.15,9.36-5.4,21.65-8.1,33.94-8.1s24.58,2.7,33.94,8.1c8.6,4.96,13.33,11.41,13.33,18.15,0,2.63-.73,5.24-2.17,7.76Z"></path>
      <g>
        <ellipse class="cls-1" cx="52.22" cy="30.18" rx="39.96" ry="20.82"></ellipse>
        <path class="cls-4" d="M52.22,7.86c-23.25,0-41.46,9.8-41.46,22.32s18.21,22.32,41.46,22.32,41.46-9.8,41.46-22.32S75.47,7.86,52.22,7.86ZM52.22,49.5c-21.21,0-38.46-8.67-38.46-19.32S31.01,10.86,52.22,10.86s38.46,8.67,38.46,19.32-17.25,19.32-38.46,19.32Z"></path>
      </g>
    </g>
  </g>
</svg>