<?xml version="1.0"?>
<svg id="_レイヤー_2" data-name="レイヤー 2" xmlns="http://www.w3.org/2000/svg" viewBox="0 0 104.53 80.43">
  <defs></defs>
  <g id="_1" data-name="1">
    <g>
      <path class="cls-5" d="M95.55,45.36c-1.3,1.33-2.81,2.61-4.5,3.82-1.11.8-2.31,1.57-3.6,2.31-.43.25-.87.49-1.31.72-.84.46-1.7.9-2.59,1.3-2.94,1.39-6.1,2.55-9.41,3.47-.85.25-1.71.48-2.59.68-2.34.58-4.75,1.04-7.2,1.39-16.39,2.36-34.46-.16-47.28-7.56-1.28-.74-2.48-1.51-3.59-2.31-3.83-2.74-6.66-5.8-8.48-9-1.67-2.92-2.5-5.96-2.5-9.01v18.01c0,7.36,4.86,14.7,14.57,20.31,12.82,7.4,30.89,9.92,47.28,7.56,2.45-.35,4.86-.81,7.2-1.39.88-.2,1.74-.43,2.59-.68,3.31-.92,6.47-2.08,9.41-3.47.89-.4,1.75-.84,2.59-1.3.44-.23.88-.47,1.31-.72,3.24-1.87,5.95-3.93,8.1-6.13,4.32-4.38,6.48-9.28,6.48-14.18v-18c0,3.04-.83,6.08-2.5,9-1.01,1.78-2.34,3.52-3.98,5.18Z"></path>
      <path class="cls-5" d="M102.03,31.18v-1.18h-.05c.04.39.05.79.05,1.18Z"></path>
      <path class="cls-5" d="M87.45,10.86C68.02-.36,36.51-.36,17.07,10.86,7.87,16.17,3.03,23.05,2.54,30c-.03.39-.04.78-.04,1.17,0,3.05.83,6.09,2.5,9.01,1.82,3.2,4.65,6.26,8.48,9,1.11.8,2.31,1.57,3.59,2.31,19.44,11.22,50.95,11.22,70.38,0,1.29-.74,2.49-1.51,3.6-2.31,3.83-2.74,6.66-5.8,8.48-9,1.67-2.92,2.5-5.96,2.5-9,0-.39-.01-.79-.05-1.18-.48-6.96-5.33-13.83-14.53-19.14Z"></path>
      <path class="cls-2" d="M64.35,77.05c2.45-.35,4.86-.81,7.2-1.39v-18c-2.34.58-4.75,1.04-7.2,1.39v18Z"></path>
      <path class="cls-2" d="M74.14,74.98c3.31-.92,6.47-2.08,9.41-3.47v-18c-2.94,1.39-6.1,2.55-9.41,3.47v18Z"></path>
      <path class="cls-3" d="M87.45,51.49c-.43.25-.87.49-1.31.72v18c.44-.23.88-.47,1.31-.72,3.24-1.87,5.95-3.93,8.1-6.13v-18c-1.3,1.33-2.81,2.61-4.5,3.82-1.11.8-2.31,1.57-3.6,2.31Z"></path>
      <path class="cls-4" d="M102.03,28.69c-1.38,0-2.5,1.12-2.5,2.5,0,2.63-.73,5.24-2.17,7.77-.91,1.6-2.12,3.17-3.59,4.67-1.19,1.22-2.59,2.41-4.17,3.54-1.03.75-2.17,1.47-3.39,2.18-.4.23-.8.45-1.25.69-.88.48-1.67.88-2.46,1.23-2.78,1.32-5.81,2.43-9.05,3.33-.86.25-1.66.46-2.49.65-2.2.55-4.54,1-6.96,1.34-16.35,2.35-33.85-.42-45.67-7.25-1.22-.71-2.36-1.44-3.39-2.18-3.46-2.48-6.07-5.24-7.76-8.21-1.44-2.52-2.17-5.13-2.17-7.77,0-1.38-1.12-2.5-2.5-2.5s-2.5,1.12-2.5,2.5v18.01c0,8.6,5.62,16.58,15.82,22.47,9.88,5.7,22.86,8.77,36.31,8.77,4.17,0,8.39-.29,12.57-.9,2.58-.37,5.08-.85,7.4-1.43.88-.2,1.78-.44,2.7-.71,3.47-.96,6.77-2.18,9.76-3.6.87-.39,1.77-.84,2.72-1.36.47-.25.95-.51,1.4-.77,3.41-1.97,6.32-4.17,8.63-6.54,4.71-4.78,7.2-10.29,7.2-15.94v-18c0-1.38-1.12-2.5-2.5-2.5ZM99.53,49.19c0,4.31-1.99,8.6-5.77,12.43-2,2.05-4.55,3.97-7.57,5.72-.4.23-.8.45-1.25.69-.88.48-1.67.88-2.46,1.23-2.78,1.32-5.81,2.43-9.05,3.33-.86.25-1.66.46-2.49.65-2.2.55-4.54,1-6.96,1.34-16.35,2.35-33.85-.42-45.67-7.25-8.59-4.96-13.32-11.41-13.32-18.14v-4.54c1.86,2.36,4.21,4.56,7.02,6.57,1.16.83,2.44,1.66,3.8,2.45,12.94,7.47,31.22,10.41,48.88,7.87,2.58-.37,5.08-.85,7.4-1.43.88-.2,1.78-.44,2.7-.71,3.47-.96,6.77-2.18,9.76-3.6.87-.39,1.77-.84,2.72-1.36.47-.25.95-.51,1.4-.77,1.36-.78,2.64-1.6,3.81-2.45,1.81-1.3,3.44-2.68,4.82-4.1.8-.81,1.53-1.64,2.2-2.49v4.55Z"></path>
      <path class="cls-4" d="M101.98,27.5c-.71,0-1.38.3-1.86.83-.47.52-.7,1.23-.63,1.93.03.31.04.62.04.93,0,1.38,1.12,2.5,2.5,2.5s2.5-1.12,2.5-2.5v-1.18c0-1.38-1.17-2.5-2.55-2.5Z"></path>
      <path class="cls-4" d="M88.7,8.7C68.61-2.9,35.92-2.9,15.82,8.7,6.22,14.24.62,21.74.05,29.81c-.04.46-.05.91-.05,1.36,0,3.52.95,6.97,2.83,10.25,2.05,3.6,5.14,6.89,9.19,9.79,1.16.83,2.44,1.66,3.8,2.45,10.05,5.8,23.25,8.7,36.45,8.7s26.39-2.9,36.43-8.7c1.36-.78,2.64-1.6,3.81-2.44,4.06-2.9,7.15-6.2,9.2-9.79,1.88-3.28,2.83-6.73,2.83-10.24,0-.56-.02-1.01-.06-1.35-.56-8.08-6.16-15.58-15.77-21.13ZM97.36,38.95c-1.69,2.96-4.3,5.72-7.77,8.21-1.03.75-2.17,1.47-3.39,2.17-18.71,10.8-49.16,10.8-67.88,0-1.22-.71-2.36-1.44-3.39-2.18-3.46-2.48-6.07-5.24-7.76-8.21-1.44-2.52-2.17-5.13-2.17-7.77,0-.33,0-.65.03-.99.45-6.37,5.17-12.46,13.29-17.15,9.36-5.4,21.65-8.1,33.94-8.1s24.58,2.7,33.94,8.1c8.13,4.69,12.85,10.78,13.29,17.23.03.31.04.62.04.93,0,2.63-.73,5.24-2.17,7.76Z"></path>
      <g>
        <ellipse class="cls-1" cx="52.22" cy="30.18" rx="39.96" ry="20.82"></ellipse>
        <path class="cls-4" d="M52.22,7.86c-23.25,0-41.46,9.8-41.46,22.32s18.21,22.32,41.46,22.32,41.46-9.8,41.46-22.32S75.47,7.86,52.22,7.86ZM52.22,49.5c-21.21,0-38.46-8.67-38.46-19.32S31.01,10.86,52.22,10.86s38.46,8.67,38.46,19.32-17.25,19.32-38.46,19.32Z"></path>
      </g>
    </g>
  </g>
</svg>