<?xml version="1.0" encoding="UTF-8"?>
<svg id="_レイヤー_2" data-name="レイヤー 2" xmlns="http://www.w3.org/2000/svg" xmlns:xlink="http://www.w3.org/1999/xlink" viewBox="0 0 871.72 871.72">
  <defs>
    <style>
      .cls-1 {
        fill: #8e4f5b;
      }

      .cls-2 {
        fill: #fff;
      }

      .cls-3 {
        fill: #eee1e0;
      }

      .cls-4 {
        fill: #f01a61;
      }

      .cls-5 {
        clip-path: url(#clippath);
      }
    </style>
    <clipPath id="clippath">
      <circle class="cls-3" cx="435.86" cy="435.86" r="435.86" transform="translate(-180.54 435.86) rotate(-45)"/>
    </clipPath>
  </defs>
  <g id="data">
    <g>
      <circle class="cls-3" cx="435.86" cy="435.86" r="435.86" transform="translate(-180.54 435.86) rotate(-45)"/>
      <g class="cls-5">
        <path class="cls-2" d="M313.5,880.89l253.17.17,22.76-185.7s-33.84-16.51-42.38-57.89c-8.53-41.38-1.91-84.9-1.91-84.9,0,0,27.69-41.75,34.12-85.36,0,0,33.25,11.41,49.23-42.44,15.97-53.87-33.89-76.41-44.22-79.4,0,0-25.69-111.64-65.35-119.64-39.68-8.01-66.72-3.32-104.71,46.72-38,50.04-130.61,83.79-130.61,83.79,0,0-37.17,4.9-32.31,61.58,4.84,56.69,52.03,49.48,52.03,49.48,0,0,10.45,53.64,35.92,86.19,0,0,9.63,111.88-40.79,138.16l15.05,189.24Z"/>
        <path class="cls-2" d="M180.28,608.37c-13.29-9.61-61.75-20.21-68.78-56.9-7.02-36.69,10.74-73.17,56.67-75.68,45.92-2.51,62,47.18,55.13,72.54-6.87,25.35-10.97,38.94-3.64,56.27,7.32,17.33,9.09,31.96-9.95,36.29-19.03,4.32-29.43-32.52-29.43-32.52Z"/>
        <g>
          <path class="cls-4" d="M668.66,720.8c-40.87-14.66-67.55-29.94-79.81-37.77-2.77-1.77-6.26-1.84-9.21-.41-2.96,1.43-4.95,4.56-5.28,7.82l-17.07,172.63c-.26,2.65.61,6.57,2.4,8.54,1.79,1.98,4.33,5.43,7,5.43l224.84.15c2.57,0,5.03-3.35,6.81-5.2,1.78-1.85,2.74-6.53,2.64-9.09-2.95-79.52-55.03-114.37-132.31-142.1Z"/>
          <path class="cls-4" d="M307.85,689.82c-.33-3.27-2.32-6.07-5.27-7.51-2.94-1.44-6.44-1.11-9.22.65-12.27,7.82-38.96,23.38-79.86,38-77.32,27.63-129.43,62.85-132.5,142.37-.1,2.56.85,6.33,2.64,8.18,1.78,1.85,4.23,5.22,6.79,5.22l224.84.15c2.66,0,5.21-3.43,7.01-5.41,1.79-1.97,2.67-6.8,2.4-9.45l-16.84-172.21Z"/>
          <path class="cls-4" d="M588.97,369.45c.22.02.44.02.66.02,2.75,0,5.38-1.19,7.18-3.29,1.8-2.1,3.63-3.25,5.95-3.25,2.83,0,5.3,1.15,5.3,1.15h0c3.05,2,6.86,2.06,9.89.18,74.17-45.86,30.74-116.38,12.2-146.54-2.64-4.29-4.92-7.93-6.37-10.7-9.39-17.81-14.05-29.99-17.8-39.8-6.75-17.69-10.82-28.35-32.4-45.78-10.59-8.55-22.85-12.89-36.46-12.9-14.93,0-28.12,5.34-35.97,9.38-10.97-12.01-37.78-36-76.61-36.02-6.23,0-12.59.63-18.87,1.88-42.73,8.49-58.55,30.07-76.88,55.06-7.58,10.35-15.43,21.04-26.08,32.23-8.26,8.67-17.11,16.86-25.66,24.79-30.56,28.31-59.42,55.05-50.1,93.64,11.22,46.37,57.5,73.76,59.46,74.91,1.45.84,2.95,1.3,4.81,1.28,32.3-.18,91.93-17.55,117.37-54.23,7.97-11.48,13.31-23.46,18.02-34.02,9.29-20.8,15.99-35.82,36.76-40.51,3.78-.86,7.44-1.29,10.87-1.28,21.56.01,30.3,17.25,30.63,17.92,1.67,3.53,5.3,5.68,9.24,5.38,38.57-2.83,44.7,27.61,48.68,68,3.83,38.96,22.49,42.25,26.19,42.51Z"/>
          <path class="cls-4" d="M129.86,421.11c.85,4.53,4.81,7.69,9.26,7.69.58,0,1.17-.05,1.77-.17,5.12-.96,8.5-5.9,7.54-11.04l-4.92-26.08c-.97-5.12-5.92-8.5-11.04-7.53-5.12.97-8.5,5.91-7.53,11.04l4.92,26.09Z"/>
          <path class="cls-4" d="M98.18,440.78c1.82,2.72,4.81,4.19,7.85,4.2,1.81,0,3.64-.52,5.26-1.6,4.34-2.91,5.49-8.77,2.59-13.1l-19.05-28.43c-2.9-4.33-8.77-5.49-13.1-2.59-4.34,2.9-5.5,8.77-2.59,13.1l19.05,28.42Z"/>
          <path class="cls-4" d="M84.35,464.01c2.85-4.37,1.61-10.23-2.76-13.07l-21.93-14.29c-4.37-2.85-10.22-1.61-13.07,2.76-2.85,4.37-1.61,10.23,2.76,13.08l21.94,14.29c1.58,1.03,3.37,1.53,5.14,1.53,3.09,0,6.12-1.52,7.93-4.29Z"/>
          <path class="cls-4" d="M107.3,566.92c11.33,23.27,30.07,30.37,45.15,36.09,11.84,4.49,19.27,7.62,22.83,14.93.36.74.83,1.41,1.38,2.01l6,12.31c5.51,11.34,15.33,18.1,26.29,18.11,4.12,0,8.19-.96,12.11-2.87.35-.18.69-.36,1.02-.58,13.78-7.34,18.33-23.65,10.69-39.32l-7.28-14.48c-.15-.3-.32-.59-.49-.87-2.87-4.44-.86-11.69,2.65-23.16,4.8-15.72,11.38-37.25-.11-60.85-12.13-24.9-35.85-40.38-61.9-40.4-9.93,0-19.62,2.26-28.78,6.73-33.78,16.45-46.75,57.02-29.54,92.35ZM212.82,630.43c-.23.11-.46.24-.69.37-1.09.44-2.16.67-3.18.67-3.32,0-6.68-2.6-8.94-6.8l16.18-7.88c1.19,2.81,3.52,10.28-3.38,13.64ZM145.11,491.55c6.57-3.2,13.47-4.82,20.5-4.82,18.77.01,35.99,11.43,44.93,29.78,8.23,16.91,3.55,32.24-.97,47.05-3.76,12.29-7.62,24.97-1.91,36.37l-16.25,7.91c-.15-.18-.24-.4-.4-.57-7.27-12.61-19.76-17.34-31.85-21.93-13.79-5.23-26.82-10.17-34.86-26.7-12.57-25.81-3.42-55.28,20.82-67.09Z"/>
        </g>
        <g>
          <path class="cls-1" d="M505.68,392.83c4.93-.77,8.32-5.39,7.54-10.34-.77-4.93-5.4-8.3-10.33-7.53-4.94.77-8.32,5.4-7.55,10.33.77,4.94,5.41,8.32,10.34,7.54Z"/>
          <path class="cls-1" d="M445.16,475.93c4.94-.77,8.32-5.4,7.54-10.34-.77-4.94-5.41-8.31-10.33-7.54-4.94.77-8.32,5.4-7.54,10.33.77,4.94,5.4,8.31,10.33,7.54Z"/>
          <path class="cls-1" d="M369.39,382.4c-.78,4.95,2.59,9.57,7.53,10.35,4.93.78,9.57-2.59,10.35-7.53.77-4.93-2.6-9.56-7.54-10.34-4.93-.78-9.56,2.59-10.34,7.52Z"/>
          <path class="cls-1" d="M523.15,357.92c1.67,3.27,4.98,5.14,8.41,5.15,1.44,0,2.92-.33,4.29-1.04,4.65-2.38,6.49-8.07,4.11-12.71-.4-.77-9.95-19.05-29.34-21.5-18.9-2.41-33.51,11.24-34.13,11.82-3.77,3.57-3.92,9.5-.38,13.29,3.54,3.79,9.51,3.99,13.33.47.09-.08,8.89-8.09,18.8-6.84,9.39,1.2,14.88,11.33,14.9,11.37Z"/>
          <path class="cls-1" d="M300.48,324.68c1.73,1.35,3.77,2,5.8,2,2.81,0,5.6-1.25,7.46-3.64,38.02-48.81,76.45-73.83,77.03-74.21,4.4-2.81,5.69-8.65,2.87-13.05-2.82-4.4-8.66-5.67-13.05-2.87-1.68,1.08-41.52,26.85-81.77,78.52-3.2,4.12-2.47,10.05,1.65,13.25Z"/>
          <path class="cls-1" d="M330.87,339.92c-5.08,1.21-8.22,6.3-7.02,11.38,1.04,4.34,4.91,7.26,9.18,7.26.73,0,1.47-.08,2.2-.26,58.74-13.95,78.11-51.01,93.67-80.79,6.38-12.21,11.89-22.76,19.13-29.89,18.43-18.18,42.4-8.1,43.48-7.63,4.75,2.1,10.32-.03,12.44-4.78,2.13-4.76,0-10.35-4.76-12.48-1.48-.66-36.65-15.94-64.43,11.45-9.34,9.2-15.78,21.54-22.59,34.59-14.51,27.75-30.94,59.2-81.29,71.15Z"/>
          <path class="cls-1" d="M476.27,121.12c19.37,15.65,27.53,31.34,27.63,31.53,1.66,3.29,4.98,5.18,8.42,5.19,1.43,0,2.88-.32,4.24-1.01,4.66-2.34,6.55-8.02,4.21-12.68-.4-.78-9.85-19.32-32.63-37.72-4.06-3.28-10.01-2.64-13.29,1.41-3.27,4.06-2.64,10.01,1.42,13.28Z"/>
          <path class="cls-1" d="M546.2,640.87c.11.37.04.74.21,1.11l17.49,39.3c1.57,3.5,4.97,5.59,8.58,5.59,1.29,0,2.59-.27,3.84-.83,4.76-2.13,6.89-7.71,4.75-12.48l-17.57-39.29c-1.55-3.45-4.91-5.49-8.44-5.56,0-.41,0-.83-.06-1.25-5.09-34.76-.53-73.62-.49-74.01.01-.11,0-.21,0-.32,15.72-23.93,25.97-51.46,32.28-76.9,2.24.46,4.46.71,6.65.71,9.32,0,18.18-4.11,25.74-12.13,19.84-21.06,27.89-66.59,16.25-91.91-6.09-13.23-14.28-21.52-24.35-24.62-10.33-3.18-18.9.3-22,1.86-6.17-3.23-8.91-21.8-11.13-36.97-3.22-21.95-6.87-46.82-21.73-60.38-17.11-15.59-44.56-6.98-45.72-6.61-4.95,1.6-7.66,6.9-6.09,11.86,1.58,4.96,6.88,7.7,11.86,6.14,5.05-1.59,19.77-4.22,27.21,2.57,9.89,9.02,13.02,30.34,15.78,49.16,3.69,25.21,7.52,51.27,29.41,53.52.33.03.65.05.96.05,1.68,0,3.27-.46,4.65-1.25,1.1-.19,2.18-.56,3.2-1.17.15-.09,3.88-2.08,8.23-.65,4.57,1.52,8.91,6.5,12.54,14.39,8.29,18.05,1.46,55.9-12.83,71.07-5.68,6.02-10.72,6.67-14.62,5.92,3.42-18.41,4.79-34.72,4.79-46.34,0-5.22-4.23-9.45-9.44-9.45s-9.45,4.22-9.46,9.44c-.03,48.39-25,186.51-135.54,186.44-110.56-.07-135.35-138.23-135.32-186.62,0-5.22-4.23-9.45-9.44-9.45s-9.45,4.22-9.46,9.44c0,11.62,1.33,27.93,4.73,46.35-3.9.75-8.94.09-14.6-5.94-14.28-15.19-21.07-53.05-12.75-71.09,3.65-7.89,7.99-12.86,12.57-14.37,4.23-1.39,7.87.47,8.21.65,4.45,2.59,10.17,1.14,12.84-3.28,2.69-4.47,1.26-10.27-3.21-12.97-1.09-.65-10.93-6.28-23.17-2.52-10.08,3.09-18.28,11.36-24.39,24.58-11.68,25.32-3.7,70.86,16.13,91.94,7.55,8.04,16.4,12.16,25.71,12.16,2.2,0,4.42-.24,6.66-.7,6.28,25.44,16.49,52.98,32.18,76.93.01.11,0,.22,0,.33.05.41,4.66,40.2-.81,75.37-4.1-.63-8.28,1.46-10.06,5.43l-17.62,39.27c-2.14,4.76-.01,10.35,4.74,12.49,1.26.56,2.58.83,3.86.83,3.61,0,7.06-2.08,8.63-5.58l17.63-39.28c.07-.16.1-.33.16-.48.06,0,.11.04.16.04.3.05.95.05,1.25.08,9.25,8.06,41.01,32.06,96.01,43.63l-.12,179.66c0,5.22,3.78,9.45,8.99,9.45s9-4.22,9.01-9.44l.12-179.64c56.01-11.83,88.2-37,96.38-44.27ZM441.16,616.76c40.01.03,70.16-15.33,92.7-37.97-.41,13.21-.23,29.63,1.73,45.97-.32.25-.66.48-.95.78-.31.3-31.02,30.33-94.42,42.19-58.08-10.96-89.03-37.44-93.68-41.69,2.14-16.76,2.36-33.78,1.95-47.36,22.52,22.67,52.65,38.06,92.66,38.08Z"/>
          <path class="cls-1" d="M577.77,694c-4.29-2.95-10.18-1.87-13.13,2.43-20.2,29.4-51.33,47.41-66.34,54.86l-22.84-60.28c-1.85-4.88-7.31-7.34-12.18-5.49-4.87,1.85-7.34,7.3-5.48,12.18l26.4,69.73c.89,2.36,2.69,4.26,5,5.29,1.21.54,2.52.81,3.83.81,1.16,0,2.33-.21,3.45-.65,2.15-.83,53.05-21.09,83.73-65.74,2.96-4.3,1.86-10.19-2.43-13.14Z"/>
          <path class="cls-1" d="M417.14,685.49c-4.87-1.86-10.32.59-12.19,5.47l-22.91,60.27c-14.99-7.44-46.03-25.41-66.27-54.96-2.95-4.3-8.84-5.4-13.13-2.45-4.31,2.95-5.41,8.83-2.46,13.14,30.63,44.68,81.51,65.01,83.66,65.84,1.11.44,2.28.65,3.45.65,1.3,0,2.62-.27,3.83-.81,2.3-1.02,4.1-2.92,5-5.28l26.49-69.69c1.86-4.88-.59-10.33-5.46-12.19Z"/>
          <path class="cls-1" d="M276.31,771.59l-28.05,3.99c1.68-13.05,6.6-39.02,20.82-66.56,2.39-4.63.58-10.34-4.06-12.73-4.63-2.39-10.33-.57-12.73,4.06-17.68,34.23-22.23,65.74-23.38,77.98l-31.96,4.54c-4.79.68-8.3,4.88-8.11,9.72.07,1.8,1.81,44.25,11.02,72.66,1.3,3.99,5,6.54,8.98,6.54.97,0,1.95-.15,2.92-.47,4.96-1.61,7.68-6.94,6.07-11.9-6.09-18.75-8.66-45.54-9.61-59.07l70.74-10.05c5.17-.74,8.76-5.51,8.03-10.68-.73-5.16-5.49-8.76-10.68-8.02Z"/>
          <path class="cls-1" d="M683.34,783.19l-32.03-4.6c-1.26-13.01-5.94-44.38-23.2-77.89-2.38-4.64-8.08-6.34-12.72-3.96-4.64,2.38-6.46,8.3-4.08,12.94,13.89,26.97,18.87,52.69,20.64,66.12l-27.95-4.01c-5.22-.74-9.96,2.84-10.69,8.01-.74,5.17,2.84,9.95,8.01,10.69l70.73,10.15c-.97,13.52-3.57,40.28-9.69,59.06-1.61,4.96,1.1,10.29,6.05,11.9.98.32,1.95.47,2.93.47,3.97,0,7.68-2.53,8.99-6.53,9.25-28.39,11.03-70.85,11.11-72.64.2-4.84-3.3-9.04-8.09-9.73Z"/>
          <path class="cls-1" d="M391.99,491.33c-1.8,2.17-2.53,4.03-2,6.79.42,2.2,10.74,53.8,53.39,53.83,42.66.03,53.05-51.11,53.47-53.31.53-2.76-.21-5.06-2-7.24-1.79-2.17-4.46-2.4-7.28-2.4l-88.3-.06c-2.81,0-5.49.22-7.28,2.39ZM474.84,506.99c-4.47,13-13.87,27.24-31.45,27.23-17.44-.01-26.86-14.27-31.36-27.27l62.81.04Z"/>
        </g>
      </g>
    </g>
  </g>
</svg>