<?xml version="1.0" encoding="UTF-8"?>
<svg id="_レイヤー_2" data-name="レイヤー 2" xmlns="http://www.w3.org/2000/svg" xmlns:xlink="http://www.w3.org/1999/xlink" viewBox="0 0 871.72 877.46">
  <defs>
    <style>
      .cls-1 {
        fill: #8e4f5b;
      }

      .cls-2 {
        fill: #fff;
      }

      .cls-3 {
        fill: #eee1e0;
      }

      .cls-4 {
        fill: #f01a61;
      }

      .cls-5 {
        clip-path: url(#clippath);
      }
    </style>
    <clipPath id="clippath">
      <circle class="cls-3" cx="435.86" cy="435.86" r="435.86" transform="translate(-180.54 435.86) rotate(-45)"/>
    </clipPath>
  </defs>
  <g id="data">
    <g>
      <circle class="cls-3" cx="435.86" cy="435.86" r="435.86" transform="translate(-180.54 435.86) rotate(-45)"/>
      <g class="cls-5">
        <path class="cls-2" d="M494.04,230.7s-41.41,83.27-121.97,93.09c0,0-35.52,31.45-72.96,64.72-37.43,33.28-62.8,66.48-66.56,92.37-3.76,25.9,55.96,42.8,72.36,23.98l24.91,55.06s19.02,96.44-28.77,129.9c-47.79,33.46-211.19,65.64-218.77,178.64h704.71s-.94-48.07-37.79-81.13c-36.84-33.06-150.3-73.48-182.84-96.69-32.55-23.22-32.59-78.59-27.84-130.72,0,0,83.76-27.32,94.08-103.47,10.32-76.14-138.54-225.75-138.54-225.75Z"/>
        <g>
          <path class="cls-4" d="M643.15,346.88c-3.05-12.25-4.41-27.37-5.87-43.38-3.27-36.03-7.33-80.88-33.41-119.63-31.48-46.77-66.71-52.16-78.83-52.53-21.96-26.67-48.46-40.19-78.82-40.19-43.93,0-81.12,28.79-89.33,35.64-114.88,36-127.01,162.38-135.07,246.16-1.22,12.76-2.38,24.81-3.79,35-7.55,54.75-3.12,98.95-2.53,104.4.77,45.41,39.38,66.74,67.59,82.33,12.04,6.64,23.38,12.92,27.7,18.83,2.69,3.68,6.97,8.56,13.23,8.56,3.39,0,6.51-1.47,8.78-4.13,2.1-2.46,8.49-9.95.63-59.49-.13-.8-.36-1.57-.68-2.31l-27.99-63.88c-1.39-3.17-4.4-5.33-7.85-5.62-3.46-.28-6.79,1.32-8.69,4.22-.06.09-6.43,9.32-16.67,9.32-1.21,0-2.44-.12-3.68-.37-1.16-.23-1.84-.7-2.51-1.75-3.42-5.33-2.39-18.54-.57-26.21.41-1.72.33-3.52-.22-5.2l-7.09-21.31c8.03-16.64,25.05-34.78,51.86-55.35,20.74-15.91,48.72-50.09,57.17-60.67,74.72-9.3,111.71-52.21,128.32-80.64,29,36.45,60,84.45,75.14,116.59,14.27,30.28,34.89,63.66,41.93,74.81l-7.34,22.63c-1.38,4.25.19,8.76,4.08,10.98,1.35.88,7.77,6.01,1.68,20.33-1.38,3.25-3.56,6.26-10.15,6.26-7.33,0-15.99-3.85-18.69-5.32-2.26-1.25-4.94-1.51-7.39-.75-2.47.78-4.51,2.52-5.65,4.83l-27.99,56.7c-.22.44-.41.91-.55,1.38-1.3,4.17-12.55,41.38-8.77,61.38,1.31,6.89,6.4,11.35,12.97,11.35,8.55,0,17.68-7.19,37.48-23.44,17.82-14.61,39.98-32.79,64.26-45.26,52.5-26.96,22.25-129.11,4.16-190.13-2.88-9.72-5.36-18.1-6.86-24.17Z"/>
          <path class="cls-4" d="M612.17,748.97c-.86.22-87.78,21.22-180.38,21.22s-179.52-20.99-180.39-21.2c-3.11-.76-6.38.13-8.72,2.32-2.33,2.19-3.39,5.47-2.82,8.62l18.99,105.01c.81,4.49,4.73,12.52,9.3,12.52h327.29c4.57,0,8.48-8.02,9.29-12.51l19-105.11c.57-3.15-.49-6.37-2.83-8.57-2.33-2.19-5.6-3.05-8.73-2.3Z"/>
          <path class="cls-4" d="M160.2,555.64c-.41,9.03-4.78,36.35-42.04,49.54,37.27,13.2,41.64,40.52,42.04,49.54.41-9.02,4.78-36.34,42.04-49.54-37.26-13.19-41.64-40.52-42.04-49.54Z"/>
          <path class="cls-4" d="M709.76,591.73c-.22,5.83-2.95,24.24-27.98,33.1,25.03,8.86,27.76,27.27,27.98,33.1.22-5.82,2.95-24.24,27.98-33.1-25.03-8.86-27.76-27.27-27.98-33.1Z"/>
          <path class="cls-4" d="M765.91,478.33c-.38,8.46-4.48,34.12-39.47,46.51,34.99,12.39,39.09,38.05,39.47,46.51.38-8.46,4.46-34.12,39.46-46.51-34.99-12.39-39.08-38.05-39.46-46.51Z"/>
          <path class="cls-4" d="M105.68,474.52c-.22,5.83-2.95,24.24-27.98,33.1,25.03,8.86,27.76,27.27,27.98,33.1.22-5.82,2.95-24.24,27.98-33.1-25.03-8.86-27.76-27.27-27.98-33.1Z"/>
        </g>
        <g>
          <path class="cls-1" d="M662.15,720.53c-16.67-5.97-32.58-12.64-47.3-19.83-2.61-1.27-5.66-1.26-8.27,0-1.31.64-2.43,1.56-3.3,2.69-28.04-12.08-42.82-32.2-42.96-32.4-.13-.19-.27-.38-.43-.55-19.17-23.14-15.19-86.65-12.03-109.17.03-.17,0-.33.02-.5,11.75-17.9,20.43-37.79,26.68-57.34,4.93,6.49,12.7,10.71,21.46,10.71.36,0,.72-.04,1.08-.06-.82,1.42-1.32,3.04-1.31,4.79,0,.46-.02,46.47-30.51,71.21-4.05,3.29-4.68,9.24-1.39,13.29,1.87,2.3,4.6,3.5,7.35,3.5,2.09,0,4.2-.69,5.95-2.11,37.67-30.57,37.53-83.82,37.5-86.07-.04-3.61-2.07-6.71-5.08-8.26,7.98-4.69,13.37-13.34,13.37-23.25,0-7.19-2.84-13.72-7.45-18.55,2.74-3.56,5.04-7.33,6.91-10.95,10.9,18.29,26.82,64.93,9.01,90.96-2.95,4.3-1.84,10.19,2.46,13.13,1.63,1.12,3.5,1.65,5.33,1.65,3.01,0,5.97-1.44,7.8-4.11,25.81-37.71.6-98.65-10.99-115.41-11.07-15.98-64.76-103.32-65.31-104.2-2.73-4.45-8.55-5.82-12.99-3.1-4.44,2.73-5.83,8.55-3.1,13,1.8,2.91,36.24,58.93,55.41,89.03-3.05,9.02-7.49,16.89-12.22,21.7-.6-.04-1.2-.09-1.81-.09-4.09,0-7.97.94-11.45,2.58,3.06-17.34,4.31-32.69,4.31-43.75,0-5.22-4.23-9.45-9.45-9.45s-9.44,4.23-9.44,9.45c0,48.39-24.89,186.53-135.44,186.53s-135.44-138.14-135.44-186.53c0-5.19-4.18-9.39-9.36-9.44,9-8.68,18.93-16.86,29.45-25.5,17.13-14.07,35.91-29.51,55.29-50.86,99.94-16.9,130.73-106.18,132-109.99,1.65-4.94-1.03-10.28-5.97-11.93-4.94-1.65-10.29,1.02-11.96,5.96-1.03,3.05-23.76,68.18-93.85,91.53.9-1.19,1.81-2.36,2.71-3.58,32.22-43.71,62.17-112.3,63.43-115.2,2.08-4.79-.12-10.35-4.9-12.43-4.77-2.08-10.35.11-12.43,4.9-.29.69-30.36,69.55-61.3,111.51-25.98,35.25-52.03,56.62-75,75.48-11.29,9.27-21.96,18.02-31.85,27.7-39.86,39-51.58,79.54-52.05,81.25-1.41,5.02,1.52,10.24,6.55,11.65.85.24,1.71.35,2.56.35,4.13,0,7.92-2.73,9.09-6.9.05-.17,2.39-8.15,8.4-20.13,1.12,1.74,2.34,3.48,3.69,5.19-4.61,4.84-7.46,11.37-7.46,18.57,0,12.02,7.9,22.22,18.79,25.69-.04.09-.11.16-.14.25-.8,1.76-19.11,43.63,27.47,89.25,1.84,1.8,4.23,2.7,6.61,2.7s4.9-.95,6.75-2.84c3.64-3.73,3.58-9.71-.14-13.35-36.61-35.86-24.09-66.54-23.46-67.99,1.21-2.73.99-5.71-.28-8.18,5.15-1.75,9.6-5.01,12.82-9.26,6.26,19.56,14.94,39.45,26.69,57.35.02.16,0,.32.02.49,3.15,22.52,7.14,86.03-12.03,109.17-.15.18-.29.37-.43.55-.16.22-14.69,20.26-42.94,32.39-.88-1.12-2-2.05-3.32-2.69-2.62-1.27-5.67-1.25-8.27.02-14.72,7.19-30.63,13.88-47.3,19.85-66.84,23.94-129.14,57.71-132.39,141.76-.1,2.56.85,5.11,2.62,6.96,1.78,1.85,4.24,2.79,6.79,2.79l207.61.4h.08c5.22,0,9.46-4.23,9.46-9.44,0-1.11-.19-2.27-.53-3.26l-29.81-138c33.09-13.39,50.87-36.42,53.16-39.54,18.48-22.59,19.98-66,18.56-95.11,22.46,22.28,52.41,37.34,92.02,37.34s69.56-15.05,92.02-37.34c-1.42,29.1.08,72.54,18.55,95.13,2.3,3.13,20.1,26.19,53.19,39.58l-30.07,139.32c-.6,2.79.09,5.6,1.89,7.83,1.8,2.21,4.49,3.5,7.34,3.5h.02l207.6-.4c2.57,0,5.02-1.16,6.79-3.01,1.78-1.85,2.73-4.28,2.63-6.85-3.25-84.04-65.55-117.73-132.4-141.67ZM596.03,479.09c4.45,0,8.07,3.62,8.07,8.07s-3.62,8.07-8.07,8.07-8.07-3.61-8.07-8.07,3.62-8.07,8.07-8.07ZM273.12,495.22c-4.45,0-8.07-3.61-8.07-8.07s3.63-8.07,8.07-8.07,8.06,3.62,8.06,8.07-3.62,8.07-8.06,8.07ZM273.12,460.19c-.54,0-1.06.05-1.59.08-3.97-3.83-7.69-9.54-10.5-16.11,5.13-7.8,11.48-16.21,19.2-24.73.03,11.03,1.28,26.21,4.31,43.35-3.48-1.64-7.34-2.58-11.43-2.58Z"/>
          <path class="cls-1" d="M438.49,483.62c4.94-.77,8.32-5.4,7.55-10.35-.78-4.93-5.41-8.29-10.34-7.52-4.93.78-8.31,5.4-7.54,10.33.78,4.94,5.41,8.31,10.34,7.54Z"/>
          <path class="cls-1" d="M220.98,435.65c1.18.49,2.41.72,3.61.72,3.71,0,7.23-2.2,8.74-5.84.33-.81,33.91-80.95,95.28-137.45,3.83-3.54,4.09-9.51.55-13.35-3.54-3.83-9.5-4.08-13.35-.55-64.4,59.3-98.53,140.69-99.94,144.13-2,4.82.3,10.34,5.11,12.34Z"/>
          <path class="cls-1" d="M359.5,144.69c.81,0,1.64-.11,2.47-.33.29-.08,30.82-8.11,71.97-5.37,5.17.36,9.71-3.59,10.06-8.79.35-5.21-3.59-9.71-8.8-10.05-44.26-2.96-76.78,5.61-78.14,5.96-5.04,1.36-8.03,6.54-6.67,11.58,1.13,4.22,4.95,7,9.11,7Z"/>
          <path class="cls-1" d="M436.76,563.4c42.66,0,53.01-51.53,53.43-53.72.52-2.77-.21-5.67-2-7.84-1.8-2.17-4.47-3.38-7.29-3.38h-88.29c-2.82,0-5.48,1.21-7.28,3.38-1.79,2.17-2.53,4.91-2,7.68.42,2.2,10.78,53.88,53.43,53.88ZM468.19,512.46c-4.47,13-13.85,27.25-31.43,27.25s-26.87-14.25-31.38-27.25h62.81Z"/>
          <path class="cls-1" d="M516.55,404.44c1.58,1.02,3.35,1.5,5.1,1.5,3.11,0,6.14-1.53,7.96-4.34,2.82-4.38,1.55-10.23-2.84-13.05-21.74-14-41.23-5.85-42.05-5.49-4.74,2.05-6.89,7.49-4.91,12.26,1.98,4.77,7.48,7.04,12.28,5.13.45-.18,11.43-4.39,24.46,3.99Z"/>
          <path class="cls-1" d="M393.73,395.47c2.07-4.79-.14-10.35-4.92-12.41-.82-.35-20.31-8.51-42.05,5.49-4.39,2.83-5.66,8.67-2.83,13.05,1.8,2.81,4.85,4.34,7.95,4.34,1.76,0,3.53-.48,5.1-1.5,12.89-8.29,23.79-4.25,24.44-3.99,4.75,1.99,10.26-.22,12.31-4.97Z"/>
          <path class="cls-1" d="M473.52,343.51c-3.77,3.57-3.92,9.5-.37,13.29,3.54,3.79,9.5,3.99,13.32.47.09-.09,8.88-8.09,18.79-6.85,8.7,1.1,17.12,9.65,19.61,12.82,1.86,2.41,4.66,3.68,7.49,3.68,2.02,0,4.05-.64,5.76-1.96,4.13-3.2,4.9-9.13,1.71-13.26-1.4-1.81-14.17-17.75-32.2-20.03-18.92-2.39-33.51,11.26-34.12,11.84Z"/>
        </g>
      </g>
    </g>
  </g>
</svg>