<?xml version="1.0" encoding="UTF-8"?>
<svg id="_レイヤー_2" data-name="レイヤー 2" xmlns="http://www.w3.org/2000/svg" xmlns:xlink="http://www.w3.org/1999/xlink" viewBox="0 0 871.72 877.46">
  <defs>
    <style>
      .cls-1 {
        fill: #8e4f5b;
      }

      .cls-2 {
        fill: #fff;
      }

      .cls-3 {
        fill: #eee1e0;
      }

      .cls-4 {
        fill: #f01a61;
      }

      .cls-5 {
        clip-path: url(#clippath);
      }
    </style>
    <clipPath id="clippath">
      <circle class="cls-3" cx="435.86" cy="435.86" r="435.86" transform="translate(-180.54 435.86) rotate(-45)"/>
    </clipPath>
  </defs>
  <g id="data">
    <g>
      <circle class="cls-3" cx="435.86" cy="435.86" r="435.86" transform="translate(-180.54 435.86) rotate(-45)"/>
      <g class="cls-5">
        <path class="cls-2" d="M307.06,683.3s27.67-23.55,21.04-116.3c0,0-28.27-36.87-33.89-84.24,0,0-13.74,21.87-31.9,17.46-18.16-4.42-16.36-22.92,1.18-37.3,0,0-37.77-44.54-1.14-113.07l97.98-128.67,135.73,40.28s83.08,69.18,81.91,145.49c0,0,9.11,97.64-40.94,159.82,0,0-13.86,87.81,29.97,116.53l-18.65,194.16h-231.41l-9.89-194.16Z"/>
        <g>
          <path class="cls-4" d="M310.67,667.52c-3.37-1.37-7.25-.66-9.92,1.79-.38.34-37.55,33.97-96.99,55.25-75.59,27.08-129.32,52.57-132.39,133.69-.1,2.57.85,5.2,2.64,7.05,1.77,1.84,4.23,3.14,6.81,3.14h237.02c2.61,0,5.1-1.32,6.88-3.21,1.78-1.89,2.71-4.67,2.56-7.27l-10.72-182.25c-.22-3.64-2.5-6.83-5.88-8.2Z"/>
          <path class="cls-4" d="M662.43,724.52c-59.21-21.21-96.62-54.88-96.98-55.22-2.69-2.47-6.56-3.13-9.93-1.77-3.38,1.37-5.66,4.59-5.88,8.23l-10.72,182.3c-.14,2.59.78,5.28,2.56,7.18,1.78,1.89,4.27,3.22,6.87,3.22h237.04c2.57,0,5.02-1.3,6.8-3.15,1.78-1.85,2.73-4.57,2.64-7.15-3.07-81.12-56.81-106.56-132.4-133.64Z"/>
          <path class="cls-4" d="M218.79,161.93c1.74,3.06,4.94,4.79,8.22,4.79,1.58,0,3.18-.4,4.66-1.24,4.54-2.58,6.13-8.34,3.56-12.88l-17.11-30.17c-2.58-4.54-8.34-6.13-12.87-3.55-4.54,2.58-6.13,8.34-3.57,12.88l17.11,30.17Z"/>
          <path class="cls-4" d="M151.64,171.67l35.55,27.08c1.71,1.3,3.72,1.93,5.72,1.93,2.84,0,5.67-1.29,7.53-3.72,3.16-4.15,2.35-10.08-1.8-13.24l-35.57-27.08c-4.14-3.16-10.07-2.36-13.23,1.79-3.16,4.16-2.36,10.08,1.8,13.24Z"/>
          <path class="cls-4" d="M130.72,233.36l33.15,8.39c.78.19,1.56.29,2.32.29,4.23,0,8.07-2.85,9.15-7.13,1.29-5.05-1.78-10.2-6.84-11.48l-33.15-8.39c-5.06-1.28-10.19,1.78-11.47,6.84-1.29,5.05,1.78,10.2,6.84,11.48Z"/>
          <path class="cls-4" d="M671.81,624.29c5.09,1.27,10.24-1.82,11.51-6.91,1.27-5.08-1.83-10.22-6.9-11.49-5.09-1.27-10.24,1.81-11.5,6.89-1.27,5.09,1.82,10.24,6.89,11.5Z"/>
          <path class="cls-4" d="M681.92,596.45c1.2.51,2.46.75,3.68.75,3.69,0,7.18-2.17,8.7-5.77l20.64-48.71c2.04-4.8-.21-10.35-5.01-12.38-4.8-2.04-10.35.21-12.38,5.01l-20.63,48.71c-2.04,4.8.21,10.35,5,12.38Z"/>
        </g>
        <g>
          <path class="cls-1" d="M474.01,507.88c-4.08-3.16-9.98-2.4-13.21,1.62-.33.42-8.36,10.17-26.63,10.17s-26.28-9.75-26.53-10.05c-3.13-4.17-9.03-5.01-13.22-1.88-4.17,3.13-5.02,9.06-1.89,13.23.54.72,13.55,17.61,41.64,17.61s41.1-16.89,41.64-17.61c3.1-4.12,2.27-9.92-1.81-13.08Z"/>
          <path class="cls-1" d="M577.15,501.5c.98-.15,1.95-.4,2.86-.86,1.32-.67,32.06-16.86,37.25-62.46,4.33-38.04,11.3-68.79,24.04-106.14,11.95-35,17.74-78.71-29.86-137.6-60.65-75.06-117.85-113.12-170-113.12-24.8,0-48.19,8.69-69.62,25.84-4.98-2.83-12.37-5.8-21.45-5.8-12.1,0-23.64,5.21-34.29,15.47-14.06,13.55-20.61,24.55-26.95,35.19-6.3,10.58-12.26,20.57-25.98,33.61-33.24,31.57-63.75,80.05-49.71,121.42,6.46,19.01,12.62,29.35,17.57,37.65,4.81,8.06,8.37,14.14,10.74,25.87-.96,1.7-1.9,3.48-2.78,5.38-10.65,23.11-4.35,64.02,11.87,86.53-5.26,4.92-8.58,11.9-8.58,19.65,0,14.85,12.08,26.92,26.92,26.92,7.73,0,14.69-3.29,19.6-8.52,6.02,23.77,15.53,47.76,30.27,68.19,3.12,19.67,6.89,74.25-12.12,97.2-3.32,4.01-2.78,9.97,1.25,13.3,1.77,1.46,3.9,2.17,6.02,2.17,2.72,0,5.41-1.16,7.28-3.42,18.1-21.85,19.92-60.17,18.72-86.01,22.2,19.23,52.22,31.76,92.9,31.76s69.9-12.18,92.02-30.98c-1.13,25.83.84,63.6,18.76,85.23,1.87,2.25,4.56,3.42,7.27,3.42,2.13,0,4.26-.71,6.02-2.17,4.02-3.33,4.58-9.29,1.25-13.3-18.54-22.39-15.38-75.04-12.32-95.78,15.13-20.46,24.88-44.63,31.06-68.64ZM269.18,490.17c-4.43,0-8.03-3.6-8.03-8.03s3.6-8.03,8.03-8.03,8.03,3.6,8.03,8.03-3.61,8.03-8.03,8.03ZM433.1,604.82c-117.84,0-135.44-119.24-135.44-190.31,0-5.22-4.23-9.45-9.44-9.45s-9.45,4.23-9.45,9.45c0,12.01.56,27.07,2.41,43.56-3.59-1.8-7.63-2.84-11.92-2.85-14.48-14.9-21.62-52.94-13.14-71.37,3.64-7.89,7.98-12.87,12.55-14.38,4.22-1.39,7.87.46,8.21.64.05.03.1.04.15.07.15.08.29.13.44.2.59.29,1.2.51,1.83.68.19.05.38.1.58.14.79.15,1.58.22,2.36.18.02,0,.04,0,.06,0,.79-.06,1.55-.24,2.29-.49.1-.03.2-.03.3-.07,1.01-.37,24.91-9.51,41.43-43.47,6.66-13.67,12.59-30.09,18.33-45.98,4.48-12.41,9.06-25.07,13.9-36.15,12.86,29.92,45.38,80.28,119.9,87.4.33.04.66.04.97.04,5.23,0,9.45-4.23,9.45-9.45,0-3.32-1.71-6.23-4.29-7.92-3.08-2.56-18.73-16.36-28.25-39.89,13.7,13.64,32.02,30.42,51.59,44.2,35.01,24.67,55.87,66.76,60.58,95.76-.13,71.16-18.02,189.48-135.42,189.48Z"/>
          <path class="cls-1" d="M497.47,395.98c4.94-.78,8.32-5.4,7.54-10.35-.77-4.94-5.4-8.3-10.33-7.53-4.95.78-8.32,5.4-7.54,10.34.77,4.94,5.41,8.31,10.33,7.54Z"/>
          <path class="cls-1" d="M437.01,479.11c4.93-.77,8.32-5.4,7.54-10.35-.77-4.93-5.41-8.29-10.33-7.52-4.93.78-8.31,5.4-7.54,10.33.77,4.94,5.41,8.31,10.34,7.54Z"/>
          <path class="cls-1" d="M368.72,395.98c4.93.77,9.57-2.6,10.34-7.54.78-4.94-2.61-9.56-7.54-10.34-4.93-.77-9.55,2.59-10.33,7.53-.77,4.94,2.59,9.57,7.53,10.35Z"/>
          <path class="cls-1" d="M380.84,356.53c3.79,3.55,9.74,3.39,13.31-.38,3.59-3.79,3.43-9.77-.35-13.36-.62-.58-15.27-14.24-34.12-11.84-19.38,2.45-28.95,20.71-29.36,21.49-2.37,4.64-.54,10.34,4.11,12.72,1.37.7,2.85,1.04,4.3,1.04,3.44,0,6.74-1.88,8.41-5.13.05-.11,5.62-10.19,14.91-11.37,9.76-1.23,18.54,6.62,18.79,6.85Z"/>
          <path class="cls-1" d="M384.41,487.5c-4.91-1.77-10.32.75-12.11,5.65-.21.59-5.32,14.75-9.19,34.13-1.03,5.12,2.3,10.09,7.41,11.11.63.12,1.25.18,1.86.18,4.41,0,8.36-3.11,9.25-7.59,3.58-17.89,8.39-31.25,8.43-31.38,1.77-4.91-.77-10.32-5.66-12.1Z"/>
          <path class="cls-1" d="M496.06,493.15c-1.79-4.9-7.2-7.43-12.1-5.65-4.9,1.78-7.44,7.19-5.66,12.1.05.14,4.85,13.49,8.43,31.38.89,4.49,4.84,7.59,9.25,7.59.61,0,1.24-.06,1.86-.18,5.11-1.02,8.44-6,7.41-11.11-3.88-19.38-8.99-33.54-9.2-34.13Z"/>
          <path class="cls-1" d="M273.89,767.29l-24.5,3.77c3.2-13.15,11.5-42.22,27.98-70.76,2.6-4.52,1.06-10.29-3.46-12.91-4.51-2.6-10.29-1.06-12.9,3.46-22.26,38.56-30.46,77.2-31.67,83.3l-29.13,4.48c-5.08.78-8.6,5.47-7.94,10.56.28,2.11,6.86,52.02,17.75,76.32,1.57,3.51,5.01,5.59,8.63,5.59,1.29,0,2.6-.26,3.87-.83,4.75-2.13,6.88-7.72,4.75-12.48-7.17-16.01-12.55-46.63-14.93-61.91l64.42-9.91c5.15-.79,8.69-5.61,7.9-10.77s-5.61-8.7-10.77-7.9Z"/>
          <path class="cls-1" d="M665.99,778.62l-29.13-4.48c-1.2-6.1-9.39-44.74-31.66-83.29-2.61-4.52-8.4-6.06-12.9-3.46-4.52,2.61-6.07,8.39-3.46,12.91,16.43,28.44,24.75,57.58,27.97,70.76l-24.5-3.77c-5.19-.8-9.98,2.75-10.77,7.9-.79,5.16,2.74,9.98,7.9,10.77l64.42,9.91c-2.37,15.27-7.75,45.88-14.93,61.91-2.13,4.76,0,10.35,4.75,12.48,1.26.56,2.57.83,3.87.83,3.61,0,7.05-2.08,8.62-5.59,10.89-24.3,17.47-74.21,17.75-76.32.66-5.09-2.86-9.77-7.93-10.56Z"/>
          <path class="cls-1" d="M537.4,722.79c-.4.11-39.46,10.38-104.31,10.38s-103.92-10.28-104.29-10.38c-5.06-1.36-10.22,1.62-11.58,6.66-1.36,5.04,1.62,10.22,6.65,11.58,1.67.45,41.63,11.03,109.23,11.03s107.56-10.58,109.22-11.03c5.04-1.36,8.01-6.54,6.66-11.57-1.36-5.04-6.53-8.01-11.57-6.67Z"/>
        </g>
      </g>
    </g>
  </g>
</svg>