<?xml version="1.0"?>
<svg id="_レイヤー_2" data-name="レイヤー 2" xmlns="http://www.w3.org/2000/svg" xmlns:xlink="http://www.w3.org/1999/xlink" viewBox="0 0 159.98 199.28">
  <defs>
    
    <clipPath id="clippath">
      <path class="cls-1" d="M94.47,43.88c4.06-5.75,8.11-11.5,12.17-17.25,1.55-2.2,3.14-4.5,3.7-7.23.55-2.73-.26-6.02-2.51-7.26-3.07-1.69-6.46,1.09-9.43,2.98-2.97,1.89-8,1.97-8.55-1.8-.46-3.13,2.58-7.35.08-8.84-2.83,3.16-5.67,6.31-8.5,9.47-2.12,2.37-4.76,4.92-7.72,4.32-5.72-1.16-5-11.51-9.74-15.27-5.97,5.51-9.64,14.02-9.76,22.67-3.62-1.81-7.23-3.63-10.85-5.44-2.2-1.1-5.3-1.95-6.6.32-1.22,2.12.44,4.8,2.01,6.61,4.43,5.07,10.14,12.55,16.48,19.06C24.96,60.3,3,100.1,3,129.1c0,35.8,33.46,52.02,74.73,52.02s74.73-16.22,74.73-52.02c0-30.81-24.78-73.84-58-85.22Z"></path>
    </clipPath>
  </defs>
  <g id="_1" data-name="1">
    <g>
      <ellipse class="cls-2" cx="77.64" cy="177.2" rx="69.1" ry="13.21"></ellipse>
      <g>
        <g>
          <path class="cls-6" d="M94.47,43.88c4.06-5.75,8.11-11.5,12.17-17.25,1.55-2.2,3.14-4.5,3.7-7.23.55-2.73-.26-6.02-2.51-7.26-3.07-1.69-6.46,1.09-9.43,2.98-2.97,1.89-8,1.97-8.55-1.8-.46-3.13,2.58-7.35.08-8.84-2.83,3.16-5.67,6.31-8.5,9.47-2.12,2.37-4.76,4.92-7.72,4.32-5.72-1.16-5-11.51-9.74-15.27-5.97,5.51-9.64,14.02-9.76,22.67-3.62-1.81-7.23-3.63-10.85-5.44-2.2-1.1-5.3-1.95-6.6.32-1.22,2.12.44,4.8,2.01,6.61,4.43,5.07,10.14,12.55,16.48,19.06C24.96,60.3,3,100.1,3,129.1c0,35.8,33.46,52.02,74.73,52.02s74.73-16.22,74.73-52.02c0-30.81-24.78-73.84-58-85.22Z"></path>
          <g class="cls-5">
            <path class="cls-3" d="M144.02,98.33c1.71,21.47-4.87,43.44-21.61,57.72-9.02,7.7-20.39,13.43-31.31,17.93-11.65,4.8-23.89,8.07-36.32,10.05-4.18.67-6.5,5.88-5.47,9.64,1.22,4.45,5.44,6.14,9.64,5.47,26.67-4.25,55.34-14.79,75.72-33.04,18.75-16.78,26.99-43.11,25.02-67.78-.8-9.98-16.47-10.07-15.67,0Z"></path>
            <path class="cls-3" d="M101.8,35.64c-7.95,4.99-16.2,10.32-25.94,10.02-9.42-.29-17.83-8.49-27.35-4.64-3.92,1.58-6.69,5.22-5.47,9.64,1.02,3.72,5.69,7.07,9.64,5.47,3.65-1.47,8.95,2.52,12.55,3.57,4.92,1.43,10.28,1.96,15.38,1.46,10.81-1.08,20.08-6.31,29.12-11.98,8.52-5.35.66-18.91-7.91-13.53Z"></path>
          </g>
          <path class="cls-4" d="M99.14,42.45l9.94-14.09c1.56-2.21,3.5-4.96,4.19-8.36.73-3.59-.22-8.4-4-10.48-4.27-2.36-8.4.37-11.4,2.36-.37.24-.73.48-1.09.71-1.27.8-2.99.98-3.74.64-.15-.07-.19-.09-.23-.34-.1-.64.21-1.8.48-2.83.6-2.28,1.61-6.1-1.83-8.15-1.23-.74-2.81-.5-3.77.57l-8.5,9.47c-.91,1.01-3.34,3.71-4.89,3.39-1.38-.28-2.23-2.46-3.36-5.74-1.08-3.15-2.31-6.72-5.12-8.94-1.16-.92-2.81-.85-3.9.15-5.5,5.08-9.21,12.39-10.35,20.2l-6.87-3.45c-5.54-2.78-9.08-1.05-10.55,1.5-.96,1.66-1.92,5.18,2.36,10.08,1.44,1.65,3.05,3.59,4.75,5.65,2.75,3.33,5.79,7,9.05,10.57C20.05,61.68,0,101.01,0,129.1c0,17.85,8.05,32.36,23.29,41.97,13.53,8.54,32.36,13.05,54.44,13.05s40.91-4.51,54.44-13.05c15.23-9.61,23.29-24.12,23.29-41.97,0-30.7-23.84-73.07-56.32-86.65ZM77.73,178.12c-44.92,0-71.73-18.33-71.73-49.02,0-26.8,20.74-66.31,50.5-80.16.88-.41,1.51-1.22,1.69-2.18.18-.96-.12-1.94-.8-2.63-4.15-4.27-8.07-9-11.52-13.17-1.73-2.09-3.36-4.07-4.86-5.78-1.43-1.64-1.73-2.72-1.69-3.07.37-.04,1.32.11,2.68.79l10.85,5.44c.92.46,2.02.42,2.9-.12.88-.54,1.43-1.49,1.44-2.52.09-6.7,2.49-13.25,6.53-18.12.58,1.17,1.06,2.57,1.53,3.95,1.33,3.87,2.99,8.68,7.84,9.67,4.92.99,8.72-3.23,10.55-5.26l3.15-3.5c0,.43.01.87.08,1.31.33,2.24,1.64,3.99,3.67,4.92,3.15,1.44,7.02.52,9.46-1.03.39-.25.78-.51,1.18-.77,1.92-1.27,4.1-2.72,5.2-2.11.78.43,1.38,2.25,1.02,4.04-.44,2.16-1.85,4.16-3.21,6.09l-12.17,17.25c-.54.77-.69,1.75-.4,2.65.29.9.99,1.61,1.88,1.91,32.03,10.98,55.97,52.55,55.97,82.38s-26.81,49.02-71.73,49.02Z"></path>
        </g>
        <path class="cls-4" d="M98.85,36.31l-48.48,4.27c-2.61.23-4.64,2.24-4.99,4.72-.56.54-1.01,1.21-1.3,1.97-.88,2.29-.15,4.89,1.8,6.39,3.67,2.81,8.07,3.5,11.89,3.8,2.17.17,4.35.26,6.53.26,6.01,0,12.02-.65,17.9-1.93,4.55-.56,9.04-1.55,13.37-2.97.9-.3,1.71-.82,2.36-1.52.95-1.04,1.47-2.33,1.55-3.64.6-.22,1.2-.44,1.79-.66,2.59-.97,4.07-3.7,3.46-6.4-.61-2.7-3.13-4.53-5.88-4.29Z"></path>
        <path class="cls-4" d="M90.27,89.3l-6.14,13.95-1.74,3.9-4.15,9.22h-.5l-1.99-4.48c.05.22-1.25-2.66-3.9-8.63l-6.31-13.95h-17.44l19.26,30.72h-12.95v7.14h16.02v4.98h-16.02v7.14h16.02v12.12h14.78v-12.12h15.86v-7.14h-15.86v-4.98h15.86v-7.14h-12.95l19.26-30.72h-17.1Z"></path>
      </g>
    </g>
  </g>
</svg>