<svg width="105" height="81" viewBox="0 0 105 81" fill="none" xmlns="http://www.w3.org/2000/svg">
<g clip-path="url(#clip0_198_201)">
<path d="M95.55 45.3599C94.25 46.6899 92.74 47.9699 91.05 49.1799C89.94 49.9799 88.74 50.7499 87.45 51.4899C87.02 51.7399 86.58 51.9799 86.14 52.2099C85.3 52.6699 84.44 53.1099 83.55 53.5099C80.61 54.8999 77.45 56.0599 74.14 56.9799C73.29 57.2299 72.43 57.4599 71.55 57.6599C69.21 58.2399 66.8 58.6999 64.35 59.0499C47.96 61.4099 29.89 58.8899 17.07 51.4899C15.79 50.7499 14.59 49.9799 13.48 49.1799C9.65 46.4399 6.82 43.3799 5 40.1799C3.33 37.2599 2.5 34.2199 2.5 31.1699V49.1799C2.5 56.5399 7.36 63.8799 17.07 69.4899C29.89 76.8899 47.96 79.4099 64.35 77.0499C66.8 76.6999 69.21 76.2399 71.55 75.6599C72.43 75.4599 73.29 75.2299 74.14 74.9799C77.45 74.0599 80.61 72.8999 83.55 71.5099C84.44 71.1099 85.3 70.6699 86.14 70.2099C86.58 69.9799 87.02 69.7399 87.45 69.4899C90.69 67.6199 93.4 65.5599 95.55 63.3599C99.87 58.9799 102.03 54.0799 102.03 49.1799V31.1799C102.03 34.2199 101.2 37.2599 99.53 40.1799C98.52 41.9599 97.19 43.6999 95.55 45.3599Z" fill="#EDEDED"/>
<path d="M102.03 31.18V30H101.98C102.02 30.39 102.03 30.79 102.03 31.18Z" fill="#EDEDED"/>
<path d="M87.45 10.8598C68.02 -0.360176 36.51 -0.360176 17.07 10.8598C7.87 16.1698 3.03 23.0498 2.54 29.9998C2.51 30.3898 2.5 30.7798 2.5 31.1698C2.5 34.2198 3.33 37.2598 5 40.1798C6.82 43.3798 9.65 46.4398 13.48 49.1798C14.59 49.9798 15.79 50.7498 17.07 51.4898C36.51 62.7098 68.02 62.7098 87.45 51.4898C88.74 50.7498 89.94 49.9798 91.05 49.1798C94.88 46.4398 97.71 43.3798 99.53 40.1798C101.2 37.2598 102.03 34.2198 102.03 31.1798C102.03 30.7898 102.02 30.3898 101.98 29.9998C101.5 23.0398 96.65 16.1698 87.45 10.8598Z" fill="#EDEDED"/>
<path d="M64.3496 77.0502C66.7996 76.7002 69.2096 76.2402 71.5496 75.6602V57.6602C69.2096 58.2402 66.7996 58.7002 64.3496 59.0502V77.0502Z" fill="#ABABAB"/>
<path d="M74.1406 74.9798C77.4506 74.0598 80.6106 72.8998 83.5506 71.5098V53.5098C80.6106 54.8998 77.4506 56.0598 74.1406 56.9798V74.9798Z" fill="#ABABAB"/>
<path d="M87.4506 51.4899C87.0206 51.7399 86.5806 51.9799 86.1406 52.2099V70.2099C86.5806 69.9799 87.0206 69.7399 87.4506 69.4899C90.6906 67.6199 93.4006 65.5599 95.5506 63.3599V45.3599C94.2506 46.6899 92.7406 47.9699 91.0506 49.1799C89.9406 49.9799 88.7406 50.7499 87.4506 51.4899Z" fill="#C5C5C5"/>
<path d="M102.03 28.6902C100.65 28.6902 99.5298 29.8102 99.5298 31.1902C99.5298 33.8202 98.7998 36.4302 97.3598 38.9602C96.4498 40.5602 95.2398 42.1302 93.7698 43.6302C92.5798 44.8502 91.1798 46.0402 89.5998 47.1702C88.5698 47.9202 87.4298 48.6402 86.2098 49.3502C85.8098 49.5802 85.4098 49.8002 84.9598 50.0402C84.0798 50.5202 83.2898 50.9202 82.4998 51.2702C79.7198 52.5902 76.6898 53.7002 73.4498 54.6002C72.5898 54.8502 71.7898 55.0602 70.9598 55.2502C68.7598 55.8002 66.4198 56.2502 63.9998 56.5902C47.6498 58.9402 30.1498 56.1702 18.3298 49.3402C17.1098 48.6302 15.9698 47.9002 14.9398 47.1602C11.4798 44.6802 8.86977 41.9202 7.17977 38.9502C5.73977 36.4302 5.00977 33.8202 5.00977 31.1802C5.00977 29.8002 3.88977 28.6802 2.50977 28.6802C1.12977 28.6802 0.00976562 29.8002 0.00976562 31.1802V49.1902C0.00976562 57.7902 5.62977 65.7702 15.8298 71.6602C25.7098 77.3602 38.6898 80.4302 52.1398 80.4302C56.3098 80.4302 60.5298 80.1402 64.7098 79.5302C67.2898 79.1602 69.7898 78.6802 72.1098 78.1002C72.9898 77.9002 73.8898 77.6602 74.8098 77.3902C78.2798 76.4302 81.5798 75.2102 84.5698 73.7902C85.4398 73.4002 86.3398 72.9502 87.2898 72.4302C87.7598 72.1802 88.2398 71.9202 88.6898 71.6602C92.0998 69.6902 95.0098 67.4902 97.3198 65.1202C102.03 60.3402 104.52 54.8302 104.52 49.1802V31.1802C104.52 29.8002 103.4 28.6802 102.02 28.6802L102.03 28.6902ZM99.5298 49.1902C99.5298 53.5002 97.5398 57.7902 93.7598 61.6202C91.7598 63.6702 89.2098 65.5902 86.1898 67.3402C85.7898 67.5702 85.3898 67.7902 84.9398 68.0302C84.0598 68.5102 83.2698 68.9102 82.4798 69.2602C79.6998 70.5802 76.6698 71.6902 73.4298 72.5902C72.5698 72.8402 71.7698 73.0502 70.9398 73.2402C68.7398 73.7902 66.3998 74.2402 63.9798 74.5802C47.6298 76.9302 30.1298 74.1602 18.3098 67.3302C9.71976 62.3702 4.98977 55.9202 4.98977 49.1902V44.6502C6.84977 47.0102 9.19977 49.2102 12.0098 51.2202C13.1698 52.0502 14.4498 52.8802 15.8098 53.6702C28.7498 61.1402 47.0298 64.0802 64.6898 61.5402C67.2698 61.1702 69.7698 60.6902 72.0898 60.1102C72.9698 59.9102 73.8698 59.6702 74.7898 59.4002C78.2598 58.4402 81.5598 57.2202 84.5498 55.8002C85.4198 55.4102 86.3198 54.9602 87.2698 54.4402C87.7398 54.1902 88.2198 53.9302 88.6698 53.6702C90.0298 52.8902 91.3098 52.0702 92.4798 51.2202C94.2898 49.9202 95.9198 48.5402 97.2998 47.1202C98.0998 46.3102 98.8298 45.4802 99.4998 44.6302V49.1802L99.5298 49.1902Z" fill="#7B7B7B"/>
<path d="M101.981 27.5C101.271 27.5 100.601 27.8 100.121 28.33C99.6509 28.85 99.4209 29.56 99.4909 30.26C99.5209 30.57 99.5309 30.88 99.5309 31.19C99.5309 32.57 100.651 33.69 102.031 33.69C103.411 33.69 104.531 32.57 104.531 31.19V30.01C104.531 28.63 103.361 27.51 101.981 27.51V27.5Z" fill="#7B7B7B"/>
<path d="M88.7 8.7C68.61 -2.9 35.92 -2.9 15.82 8.7C6.22 14.24 0.62 21.74 0.05 29.81C0.01 30.27 0 30.72 0 31.17C0 34.69 0.95 38.14 2.83 41.42C4.88 45.02 7.97 48.31 12.02 51.21C13.18 52.04 14.46 52.87 15.82 53.66C25.87 59.46 39.07 62.36 52.27 62.36C65.47 62.36 78.66 59.46 88.7 53.66C90.06 52.88 91.34 52.06 92.51 51.22C96.57 48.32 99.66 45.02 101.71 41.43C103.59 38.15 104.54 34.7 104.54 31.19C104.54 30.63 104.52 30.18 104.48 29.84C103.92 21.76 98.32 14.26 88.71 8.71L88.7 8.7ZM97.36 38.95C95.67 41.91 93.06 44.67 89.59 47.16C88.56 47.91 87.42 48.63 86.2 49.33C67.49 60.13 37.04 60.13 18.32 49.33C17.1 48.62 15.96 47.89 14.93 47.15C11.47 44.67 8.86 41.91 7.17 38.94C5.73 36.42 5 33.81 5 31.17C5 30.84 5 30.52 5.03 30.18C5.48 23.81 10.2 17.72 18.32 13.03C27.68 7.63 39.97 4.93 52.26 4.93C64.55 4.93 76.84 7.63 86.2 13.03C94.33 17.72 99.05 23.81 99.49 30.26C99.52 30.57 99.53 30.88 99.53 31.19C99.53 33.82 98.8 36.43 97.36 38.95Z" fill="#7B7B7B"/>
<path d="M52.2198 7.85986C28.9698 7.85986 10.7598 17.6599 10.7598 30.1799C10.7598 42.6999 28.9698 52.4999 52.2198 52.4999C75.4698 52.4999 93.6798 42.6999 93.6798 30.1799C93.6798 17.6599 75.4698 7.85986 52.2198 7.85986ZM52.2198 49.4999C31.0098 49.4999 13.7598 40.8299 13.7598 30.1799C13.7598 19.5299 31.0098 10.8599 52.2198 10.8599C73.4298 10.8599 90.6798 19.5299 90.6798 30.1799C90.6798 40.8299 73.4298 49.4999 52.2198 49.4999Z" fill="#7B7B7B"/>
</g>
<defs>
<clipPath id="clip0_198_201">
<rect width="104.53" height="80.43" fill="white"/>
</clipPath>
</defs>
</svg>
