<!--?xml version="1.0" encoding="utf-8"?-->
<!-- Generator: Adobe Illustrator 22.1.0, SVG Export Plug-In . SVG Version: 6.00 Build 0)  -->
<svg version="1.1" id="_x35_" xmlns="http://www.w3.org/2000/svg" xmlns:xlink="http://www.w3.org/1999/xlink" x="0px" y="0px" viewBox="0 0 800 493.4" style="width: 512px;" xml:space="preserve">
<style type="text/css">
	.st0{fill:#B09035;}
</style>
<g>
	<path class="st0" d="M127.8,420c1.6,4.1,1.5,15.6-0.7,20.7c-1.5,3.6,1.7,1.2,1.7,1.2c19.9-20.7-5.1-44.9-6.2-45.1
		c-1-0.2,1.5,8.8-4.3,21.4c-5.8,12.6,2.4,26.7,4.9,24C128.5,436.4,127.8,420,127.8,420z M105.3,367.5c-0.9-0.3-0.2,8.4-7.8,19
		c-7.5,10.6-2.1,25.2,0.7,23.1c5.9-4.3,7.8-19.8,7.8-19.8c0.7,4.1-1.4,14.7-4.3,19c-2,3.1,1.3,1.4,1.3,1.4
		C125.2,394.7,106.3,367.8,105.3,367.5z M83.3,379.4c21.9-14.8,4-41.5,3-41.9c-0.8-0.3-0.4,8.3-8,18.5c-7.6,10.2-2.5,24.2,0.3,22.2
		c5.9-4.1,8-18.8,8-18.8c0.6,4.1-1.7,14.4-4.6,18.5C79.9,380.9,83.3,379.4,83.3,379.4z M66.7,339.7c23.8-9.7,12.2-38.6,11.3-39.2
		c-0.7-0.5-2,7.8-11.3,16c-9.3,8.2-7.4,22.7-4.4,21.4c6.5-2.7,11.6-16.4,11.6-16.4c-0.2,4-4.5,13.3-8.1,16.7
		C63.2,340.5,66.7,339.7,66.7,339.7z M55.6,303.4c-2.7,2.3,0.9,1.6,0.9,1.6c24.3-8.4,14.2-37.9,13.4-38.5
		c-0.7-0.5-2.4,7.7-12.1,15.3c-9.7,7.7-8.7,22.2-5.6,21.1c6.6-2.4,12.4-15.8,12.4-15.8C64.1,291.1,59.4,300.2,55.6,303.4z M46,269.4
		c-2.7,2,0.7,1.6,0.7,1.6c24.1-6.3,16.5-35.6,15.8-36.3c-0.7-0.5-2.9,7.2-12.9,13.9c-10,6.7-10,20.9-6.9,20
		c6.5-1.8,13.2-14.4,13.2-14.4C55.1,258.2,49.8,266.6,46,269.4z M40.3,227.3c-3,1.5,0.4,1.7,0.4,1.7c24.4-2.2,21.7-31.8,21.1-32.6
		c-0.5-0.6-4,6.5-14.7,11.4c-10.7,4.9-13,18.6-9.9,18.2c6.6-0.7,15.1-11.8,15.1-11.8C51,217.9,44.5,225.2,40.3,227.3z M41.7,192.8
		c-3,1.4,0.4,1.7,0.4,1.7c24.1-2,21.7-31.2,21.1-32c-0.5-0.7-4,6.4-14.6,11.1c-10.6,4.7-13,18.2-9.9,17.9c6.6-0.6,15-11.5,15-11.5
		C52.3,183.6,45.9,190.8,41.7,192.8z M38.3,157.4c6.5,0.2,15.9-9.4,15.9-9.4c-1.7,3.3-8.8,9.5-13.1,11c-3.1,1,0.2,1.7,0.2,1.7
		c23.7,0.9,24.8-27.8,24.3-28.7c-0.4-0.7-4.6,5.8-15.5,9.1C39.1,144.4,35.2,157.3,38.3,157.4z M49.3,117.8c-3.2,0.5-0.1,1.7-0.1,1.7
		c23.1,5.1,29.4-23,29-23.9c-0.3-0.7-5.6,4.8-16.9,6.2c-11.3,1.4-17.5,13.3-14.5,13.9c6.3,1.3,17.3-6.5,17.3-6.5
		C61.9,112.3,53.8,117.1,49.3,117.8z M62.5,81.5c5.4,1.1,14.8-5.5,14.8-5.5c-1.9,2.5-8.8,6.7-12.7,7.3c-2.7,0.4-0.1,1.4-0.1,1.4
		C84.3,89,89.6,65,89.3,64.3c-0.3-0.6-4.8,4.2-14.5,5.3C65.2,70.8,59.9,81,62.5,81.5z M78,54.1c-2.9,0.3-0.2,1.5-0.2,1.5
		c21,5.4,27.6-20,27.3-20.8c-0.3-0.7-5.3,4.2-15.6,5.1c-10.4,0.9-16.4,11.6-13.7,12.2c5.7,1.4,16-5.3,16-5.3
		C89.7,49.4,82.1,53.6,78,54.1z M118,2.8C117.3,2.3,92.8,0.2,91,20.5c0,0,0.2,2.8,1.4,0.3c1.7-3.5,7.8-8.9,10.7-10
		c0,0-9.1,7.1-9.7,12.6C93.2,26,104.6,24,108.6,15C112.6,6.1,118.5,3.2,118,2.8z M90.1,424.2c-13.2,3.9-21.8,0.3-21.8,1.2
		c0,1.2,20.5,29.3,43.8,12.5c0,0,2.8-2.8-0.9-1.8c-5.3,1.4-16.7-0.1-20.6-2.3c0,0,16.2,3,22.6-1.5
		C116.2,430.3,103.4,420.3,90.1,424.2z M87.8,404.4c0,0,2.7-2.6-0.9-1.7c-5.1,1.2-15.7-0.3-19.3-2.5c0,0,15.1,3.6,21.2-0.6
		c2.9-1.9-9-12-21.5-8.5c-12.5,3.5-20.5-0.1-20.5,0.8C46.8,393,65.6,419.9,87.8,404.4z M67.2,370.4c0,0,3-2.1-0.6-1.8
		c-5.1,0.4-15.1-2.9-18.3-5.5c0,0,13.6,5.7,20.2,2.7c3.1-1.4-6.3-12.9-19-11.6c-12.7,1.3-19.8-3.4-20-2.6
		C29.5,352.7,43.3,381.7,67.2,370.4z M51.6,330.9c0,0,3.2-1.6-0.3-1.8c-4.9-0.3-14.2-4.8-16.8-7.8c0,0,12.6,7.3,19.4,5.3
		c3.2-0.9-4.6-13.3-17-13.7c-12.4-0.4-18.6-6-18.9-5.1C17.6,308.8,27,338.6,51.6,330.9z M40,294.4c0,0,3.3-1.3-0.2-1.8
		c-4.9-0.7-13.7-6-16.2-9.1c0,0,12,8.3,18.9,6.9c3.2-0.7-3.5-13.6-15.8-15c-12.3-1.4-18.1-7.4-18.4-6.6
		C7.9,269.7,14.9,300.1,40,294.4z M33.7,256.4c0,0,3.3-1.1-0.1-1.8c-4.7-0.9-13.1-6.3-15.3-9.5c0,0,11.3,8.6,18,7.4
		c3.2-0.5-2.9-13.3-14.7-15.2c-11.9-1.9-17.2-7.9-17.6-7.2C3.6,231.1,9.2,260.8,33.7,256.4z M30.4,217.1c0,0,3.3-0.8,0.1-1.8
		c-4.5-1.4-12.1-7.5-14-10.8c0,0,10.2,9.5,16.8,9.1c3.1-0.2-1.5-13.3-12.8-16.3c-11.4-3-16-9.5-16.4-8.8C3.6,189.4,6,219,30.4,217.1
		z M30.2,180.7c0,0,3.4,0.2,0.6-1.6c-3.9-2.6-9.3-10.5-10.2-14.2c0,0,6.9,11.9,13.4,13.3c3,0.7,2.4-13-7.5-19.1
		c-9.9-6.1-12.4-13.5-13-12.9C12.7,146.9,6.6,175.6,30.2,180.7z M34.3,141.2c0,0,3.2,0.6,0.8-1.5c-3.5-3-7.8-11.3-8.2-15
		c0,0,5.3,12.4,11.4,14.6c2.9,1,3.9-12.4-5.1-19.5c-8.9-7.1-10.5-14.6-11.2-14.2C21.3,106.2,11.9,133.4,34.3,141.2z M43.4,105.7
		c0,0,3.1,1.1,1-1.4c-2.9-3.5-5.9-12.5-5.6-16.2c0,0,3.2,13.1,8.8,16.3c2.7,1.5,5.9-11.5-1.8-20C38.3,76,38,68.3,37.3,68.6
		C36.4,69.1,22.7,94.3,43.4,105.7z M58.4,70.9c0,0,2.7,0.9,0.8-1.2C56.6,66.8,53.9,59.2,54,56c0,0,3.1,11.1,8,13.7
		c2.3,1.2,4.7-10-2-17.1c-6.7-7.1-7.2-13.6-7.8-13.3C51.4,39.7,40.3,61.7,58.4,70.9z M75,39.3c0,0,2.6,1.5,1.1-1
		c-2.1-3.6-3.3-12.2-2.5-15.4c0,0,0.8,12.3,5.4,16c2.2,1.8,7.1-9.5,1.6-18.3C75,11.7,76,4.7,75.3,4.9C74.4,5.2,58.1,25.7,75,39.3z
		 M170.3,477.8c-27.9-13.1-47.2-35.6-47.2-35.6c11.8,28.3,52.1,48.7,52.1,48.7L170.3,477.8z"></path>
	<path class="st0" d="M676.9,442.1c2.5,2.7,10.7-11.4,4.9-24c-5.7-12.6-3.3-21.6-4.3-21.4c-1.1,0.2-26.1,24.4-6.2,45.1
		c0,0,3.2,2.4,1.7-1.2c-2.1-5.1-2.3-16.5-0.6-20.7C672.2,420,671.5,436.4,676.9,442.1z M696.9,410.2c0,0,3.4,1.7,1.3-1.4
		c-2.9-4.3-5-14.9-4.3-19c0,0,1.8,15.4,7.8,19.8c2.8,2,8.3-12.5,0.7-23.1c-7.5-10.6-6.9-19.4-7.8-19
		C693.7,367.8,674.8,394.7,696.9,410.2z M718,378c-2.9-4.2-5.2-14.5-4.6-18.5c0,0,2.1,14.6,8,18.8c2.8,1.9,7.9-12,0.3-22.2
		c-7.6-10.2-7.2-18.8-8-18.5c-1,0.4-18.9,27.1,3,41.9C716.7,379.4,720.1,380.9,718,378z M734.2,338.1c-3.6-3.4-7.9-12.7-8.1-16.7
		c0,0,5.1,13.7,11.6,16.4c3,1.3,4.9-13.2-4.4-21.4c-9.3-8.2-10.6-16.5-11.3-16c-0.9,0.6-12.5,29.5,11.3,39.2
		C733.3,339.7,736.8,340.5,734.2,338.1z M735.5,287.1c0,0,5.8,13.4,12.4,15.8c3.1,1.1,4.2-13.4-5.6-21.1
		c-9.7-7.7-11.4-15.8-12.1-15.3c-0.8,0.6-10.9,30.1,13.4,38.5c0,0,3.5,0.6,0.8-1.6C740.6,300.2,735.9,291.1,735.5,287.1z
		 M744.2,254.4c0,0,6.6,12.5,13.2,14.4c3.1,0.8,3-13.3-6.9-20c-10-6.7-12.2-14.5-12.9-13.9c-0.7,0.7-8.3,29.9,15.8,36.3
		c0,0,3.4,0.3,0.7-1.6C750.1,266.6,744.9,258.2,744.2,254.4z M747.7,214.3c0,0,8.4,11.1,15.1,11.8c3.1,0.3,0.8-13.4-9.9-18.2
		c-10.7-4.9-14.2-12-14.7-11.4c-0.6,0.8-3.2,30.3,21.1,32.6c0,0,3.4-0.2,0.4-1.7C755.5,225.2,749,217.9,747.7,214.3z M746.4,180.1
		c0,0,8.4,10.8,15,11.5c3.1,0.3,0.7-13.2-9.9-17.9c-10.6-4.8-14.1-11.8-14.6-11.1c-0.6,0.8-2.9,30,21.1,32c0,0,3.3-0.3,0.4-1.7
		C754.1,190.8,747.7,183.6,746.4,180.1z M749.9,141.1c-10.9-3.4-15.1-9.8-15.5-9.1c-0.5,0.8,0.7,29.5,24.3,28.7c0,0,3.2-0.6,0.2-1.7
		c-4.3-1.5-11.4-7.7-13.1-11c0,0,9.5,9.6,15.9,9.4C764.8,157.3,760.9,144.4,749.9,141.1z M735.8,109.3c0,0,11,7.8,17.3,6.5
		c3-0.6-3.2-12.6-14.5-13.9c-11.3-1.4-16.6-7-16.9-6.2c-0.4,0.9,5.9,29,29,23.9c0,0,3.1-1.2-0.1-1.7
		C746.2,117.1,738.1,112.3,735.8,109.3z M725.1,69.6c-9.7-1.2-14.2-6-14.5-5.3c-0.3,0.8,5,24.8,24.8,20.5c0,0,2.6-1-0.1-1.4
		c-3.9-0.6-10.8-4.8-12.7-7.3c0,0,9.4,6.6,14.8,5.5C740.1,81,734.8,70.8,725.1,69.6z M708.2,46.8c0,0,10.3,6.7,16,5.3
		c2.7-0.7-3.3-11.4-13.7-12.2c-10.4-0.9-15.4-5.8-15.6-5.1c-0.3,0.8,6.4,26.2,27.3,20.8c0,0,2.8-1.2-0.2-1.5
		C717.8,53.6,710.3,49.4,708.2,46.8z M691.4,15c4,8.9,15.4,11,15.1,8.4c-0.5-5.5-9.7-12.6-9.7-12.6c3,1.1,9,6.5,10.7,10
		c1.2,2.5,1.4-0.3,1.4-0.3C707.2,0.2,682.7,2.3,682,2.8C681.5,3.2,687.4,6.1,691.4,15z M686.8,432.4c6.4,4.5,22.6,1.5,22.6,1.5
		c-3.9,2.2-15.2,3.7-20.6,2.3c-3.8-1-1,1.8-1,1.8c23.3,16.8,43.8-11.4,43.8-12.5c0-1-8.5,2.7-21.8-1.2
		C696.6,420.3,683.8,430.3,686.8,432.4z M753.2,391.9c0-0.9-8,2.7-20.5-0.8c-12.5-3.5-24.4,6.6-21.5,8.5c6.1,4.1,21.2,0.6,21.2,0.6
		c-3.6,2.1-14.3,3.7-19.3,2.5c-3.6-0.9-0.9,1.7-0.9,1.7C734.4,419.9,753.2,393,753.2,391.9z M770.4,351.6c-0.2-0.9-7.3,3.9-20,2.6
		c-12.7-1.3-22.1,10.2-19,11.6c6.6,3,20.2-2.7,20.2-2.7c-3.2,2.6-13.2,5.9-18.3,5.5c-3.6-0.3-0.6,1.8-0.6,1.8
		C756.7,381.7,770.5,352.7,770.4,351.6z M782.1,307.8c-0.3-0.8-6.5,4.7-18.9,5.1c-12.4,0.4-20.2,12.8-17,13.7
		c6.7,2,19.4-5.3,19.4-5.3c-2.7,2.9-11.9,7.4-16.9,7.8c-3.5,0.2-0.3,1.8-0.3,1.8C773,338.6,782.4,308.8,782.1,307.8z M791.7,268.7
		c-0.3-0.8-6.1,5.2-18.4,6.6c-12.3,1.4-19.1,14.3-15.8,15c6.9,1.4,18.9-6.9,18.9-6.9c-2.4,3.1-11.3,8.4-16.2,9.1
		c-3.5,0.5-0.1,1.8-0.1,1.8C785.1,300.1,792.1,269.7,791.7,268.7z M796,230.2c-0.3-0.8-5.7,5.3-17.5,7.2
		c-11.9,1.9-17.9,14.6-14.7,15.2c6.7,1.1,18-7.4,18-7.4c-2.2,3.2-10.6,8.6-15.3,9.5c-3.3,0.6-0.1,1.8-0.1,1.8
		C790.8,260.8,796.4,231.1,796,230.2z M795.9,188.6c-0.4-0.7-5,5.8-16.4,8.8c-11.4,3-16,16.1-12.8,16.3c6.7,0.4,16.8-9.1,16.8-9.1
		c-1.9,3.3-9.5,9.4-14,10.8c-3.2,1,0.1,1.8,0.1,1.8C794,219,796.4,189.4,795.9,188.6z M786.6,146.3c-0.6-0.6-3.1,6.8-13.1,12.9
		c-9.9,6.1-10.6,19.8-7.5,19.1c6.4-1.5,13.4-13.3,13.4-13.3c-0.8,3.7-6.3,11.6-10.2,14.2c-2.7,1.8,0.6,1.6,0.6,1.6
		C793.4,175.6,787.3,146.9,786.6,146.3z M778,105.6c-0.7-0.5-2.2,7.1-11.2,14.2c-8.9,7.1-7.9,20.5-5,19.5
		c6.1-2.2,11.4-14.6,11.4-14.6c-0.4,3.7-4.7,12-8.2,15c-2.5,2.1,0.8,1.5,0.8,1.5C788.1,133.4,778.7,106.2,778,105.6z M762.7,68.6
		c-0.7-0.4-1,7.3-8.7,15.8c-7.6,8.5-4.4,21.5-1.8,20c5.6-3.2,8.8-16.3,8.8-16.3c0.2,3.7-2.7,12.7-5.6,16.2c-2.1,2.5,1,1.4,1,1.4
		C777.3,94.3,763.6,69.1,762.7,68.6z M747.9,39.3c-0.6-0.3-1.1,6.2-7.8,13.3c-6.7,7.1-4.3,18.3-2,17.1c4.9-2.6,8-13.7,8-13.7
		c0.1,3.1-2.6,10.8-5.2,13.7c-1.9,2,0.8,1.2,0.8,1.2C759.7,61.7,748.6,39.7,747.9,39.3z M724.7,4.9c-0.7-0.2,0.2,6.7-5.3,15.6
		c-5.5,8.8-0.6,20.1,1.6,18.3c4.5-3.8,5.4-16,5.4-16c0.8,3.3-0.4,11.8-2.5,15.4c-1.5,2.5,1.1,1,1.1,1
		C741.9,25.7,725.6,5.2,724.7,4.9z M624.7,490.9c0,0,40.3-20.5,52.1-48.7c0,0-19.3,22.5-47.2,35.6L624.7,490.9z"></path>
</g>
</svg>
