<svg width="279" height="188" viewBox="0 0 279 188" fill="none" xmlns="http://www.w3.org/2000/svg">
<g clip-path="url(#clip0_208_2)">
<path d="M275.7 60.23L254.53 72.46L102.5 160.23V184.69L102.61 184.75L275.82 84.75L275.7 84.68V60.23Z" fill="#FFB896"/>
<path d="M2.5 102.5L2.61 102.56L23.78 114.79L102.5 160.23L254.53 72.46L275.7 60.23L175.7 2.5L2.5 102.5Z" fill="#FFF1EA"/>
<path d="M121.101 52.7599C112.661 52.8699 105.081 54.4499 99.531 57.6599C94.061 60.8199 90.991 65.1999 90.601 70.3699L34.291 102.88L101.841 141.88L157.121 109.97C165.561 109.86 173.131 108.28 178.671 105.08C184.141 101.92 187.211 97.5399 187.601 92.3699L243.911 59.8599L176.361 20.8599L121.101 52.7599Z" fill="#FFD4C0"/>
<path d="M165.669 66.0299C144.229 53.6499 114.959 50.4899 100.279 58.9599C85.6095 67.4299 91.0895 84.3299 112.529 96.7099C133.969 109.09 163.239 112.25 177.919 103.78C192.589 95.3099 187.109 78.4099 165.669 66.0299Z" fill="white"/>
<path d="M38.7807 107.11L24.9307 99.1099L22.3207 100.62C22.1707 101.15 21.9407 101.65 21.6207 102.12C21.3007 102.59 20.8307 103.1 20.2207 103.65L22.7507 105.11L25.4807 103.53L35.2307 109.16L32.0807 110.98L35.4007 112.9L44.7807 107.49L41.4607 105.57L38.7907 107.11H38.7807Z" fill="#FF1077"/>
<path d="M48.1602 95.5201C46.2402 94.4101 44.4102 93.6001 42.6602 93.0901C40.9102 92.5801 39.3202 92.3602 37.8702 92.4302C36.4202 92.5002 35.1703 92.8402 34.1103 93.4602C33.0503 94.0702 32.4502 94.8002 32.3202 95.6302C32.1902 96.4602 32.5602 97.3802 33.4402 98.4002C34.3202 99.4202 35.7202 100.48 37.6402 101.59C39.5602 102.7 41.4202 103.52 43.2102 104.04C45.0002 104.57 46.6303 104.8 48.1103 104.74C49.5903 104.68 50.8503 104.34 51.9003 103.74C52.9503 103.13 53.5302 102.4 53.6402 101.55C53.7502 100.7 53.3402 99.7602 52.4202 98.7302C51.5002 97.7002 50.0802 96.6301 48.1602 95.5201ZM48.7203 101.9C48.1203 102.25 47.2302 102.27 46.0502 101.98C44.8702 101.69 43.1802 100.91 41.0002 99.6502C38.8302 98.4002 37.5202 97.4402 37.0502 96.7802C36.5802 96.1202 36.6503 95.6101 37.2503 95.2701C37.8503 94.9201 38.7203 94.8902 39.8603 95.1602C41.0003 95.4302 42.6502 96.2001 44.8202 97.4501C47.0002 98.7101 48.3503 99.6802 48.8603 100.36C49.3703 101.04 49.3302 101.55 48.7302 101.9H48.7203Z" fill="#FF1077"/>
<path d="M59.8204 88.7902C57.9004 87.6802 56.0704 86.8702 54.3204 86.3602C52.5704 85.8502 50.9804 85.6302 49.5304 85.7002C48.0804 85.7702 46.8304 86.1102 45.7704 86.7302C44.7104 87.3402 44.1104 88.0702 43.9804 88.9002C43.8504 89.7302 44.2204 90.6502 45.1004 91.6702C45.9804 92.6902 47.3804 93.7502 49.3004 94.8602C51.2204 95.9702 53.0804 96.7902 54.8704 97.3102C56.6604 97.8402 58.2904 98.0702 59.7704 98.0102C61.2504 97.9502 62.5104 97.6102 63.5604 97.0102C64.6104 96.4102 65.1904 95.6702 65.3004 94.8202C65.4104 93.9702 65.0004 93.0302 64.0804 92.0002C63.1604 90.9702 61.7404 89.9002 59.8204 88.7902ZM60.3704 95.1702C59.7704 95.5202 58.8804 95.5402 57.7004 95.2502C56.5204 94.9602 54.8304 94.1802 52.6504 92.9202C50.4804 91.6702 49.1704 90.7102 48.7004 90.0502C48.2304 89.3902 48.3004 88.8802 48.9004 88.5402C49.5004 88.1902 50.3704 88.1602 51.5104 88.4302C52.6504 88.7002 54.3004 89.4702 56.4704 90.7202C58.6504 91.9802 60.0004 92.9502 60.5104 93.6302C61.0204 94.3102 60.9804 94.8202 60.3804 95.1702H60.3704Z" fill="#FF1077"/>
<path d="M71.4708 82.0597C69.5508 80.9497 67.7208 80.1397 65.9708 79.6297C64.2208 79.1197 62.6308 78.8997 61.1808 78.9697C59.7308 79.0397 58.4808 79.3797 57.4208 79.9997C56.3608 80.6097 55.7608 81.3397 55.6308 82.1697C55.5008 82.9997 55.8708 83.9197 56.7508 84.9397C57.6308 85.9597 59.0308 87.0197 60.9508 88.1297C62.8708 89.2397 64.7308 90.0597 66.5208 90.5797C68.3108 91.1097 69.9408 91.3397 71.4208 91.2797C72.9008 91.2197 74.1608 90.8797 75.2108 90.2797C76.2608 89.6697 76.8408 88.9397 76.9508 88.0897C77.0608 87.2397 76.6508 86.2997 75.7308 85.2697C74.8108 84.2397 73.3908 83.1697 71.4708 82.0597ZM72.0308 88.4397C71.4308 88.7897 70.5408 88.8097 69.3608 88.5197C68.1808 88.2297 66.4908 87.4497 64.3108 86.1897C62.1408 84.9397 60.8308 83.9797 60.3608 83.3197C59.8908 82.6597 59.9608 82.1497 60.5608 81.8097C61.1608 81.4597 62.0308 81.4297 63.1708 81.6997C64.3108 81.9697 65.9608 82.7397 68.1308 83.9897C70.3108 85.2497 71.6608 86.2197 72.1708 86.8997C72.6808 87.5797 72.6408 88.0897 72.0408 88.4397H72.0308Z" fill="#FF1077"/>
<path d="M83.1192 75.3297C81.1992 74.2197 79.3692 73.4097 77.6192 72.8997C75.8692 72.3897 74.2792 72.1697 72.8292 72.2397C71.3792 72.3097 70.1292 72.6497 69.0692 73.2697C68.0092 73.8797 67.4092 74.6097 67.2792 75.4397C67.1492 76.2697 67.5192 77.1897 68.3992 78.2097C69.2792 79.2297 70.6792 80.2897 72.5992 81.3997C74.5192 82.5097 76.3792 83.3297 78.1692 83.8497C79.9592 84.3797 81.5892 84.6097 83.0692 84.5497C84.5492 84.4897 85.8092 84.1497 86.8592 83.5497C87.9092 82.9397 88.4892 82.2097 88.5992 81.3597C88.7092 80.5097 88.2992 79.5697 87.3792 78.5397C86.4592 77.5097 85.0392 76.4397 83.1192 75.3297ZM83.6792 81.7197C83.0792 82.0697 82.1892 82.0897 81.0092 81.7997C79.8292 81.5097 78.1392 80.7297 75.9592 79.4697C73.7892 78.2197 72.4792 77.2597 72.0092 76.5997C71.5392 75.9397 71.6092 75.4297 72.2092 75.0897C72.8092 74.7397 73.6792 74.7097 74.8192 74.9797C75.9592 75.2497 77.6092 76.0197 79.7792 77.2697C81.9592 78.5297 83.3092 79.4997 83.8192 80.1797C84.3292 80.8597 84.2892 81.3697 83.6892 81.7197H83.6792Z" fill="#FF1077"/>
<path d="M2.60938 102.56V127.01L102.499 184.69V160.23L23.7794 114.79L2.60938 102.56Z" fill="#FFD4C0"/>
<path d="M278.2 60.2299C278.2 59.3399 277.72 58.5099 276.95 58.0599L176.95 0.339941C176.18 -0.110059 175.22 -0.110059 174.45 0.339941L1.25015 100.34C0.470153 100.79 -0.00984674 101.63 0.000153264 102.53C0.000153264 102.77 0.0401533 103.01 0.110153 103.23V127.01C0.110153 127.9 0.590153 128.73 1.36015 129.18L101.25 186.86L102.48 184.73L101.29 186.89L101.4 186.95C101.78 187.16 102.19 187.26 102.61 187.26C103.03 187.26 103.47 187.15 103.86 186.93L277.07 86.9299C277.84 86.4899 278.32 85.6699 278.32 84.7799C278.32 84.5099 278.28 84.2499 278.2 84.0099V60.2499V60.2299ZM273.2 83.3799L102.61 181.87L5.11015 125.57V103.88L175.7 5.38994L273.2 61.6799V83.3799Z" fill="#FF1077"/>
<path d="M185.919 93.5897L185.699 93.4597L118.149 54.4597L117.909 54.3297L101.929 45.0897L98.6793 43.2197L73.0293 58.0297L76.2793 59.8997L92.2793 69.1497L92.4993 69.2697L160.049 108.27L160.279 108.4L176.269 117.64L178.769 119.08L204.419 104.27L201.919 102.83L185.919 93.5897Z" fill="#FFFBD0"/>
<path d="M178.77 144.31L204.42 129.38V104.27L178.77 119.08V144.31Z" fill="#FFF13B"/>
<path d="M204.919 103.4L118.629 53.5798L99.1793 42.3498C98.8693 42.1698 98.4893 42.1698 98.1793 42.3498L72.5293 57.1598C72.2193 57.3398 72.0293 57.6698 72.0293 58.0298C72.0293 58.3898 72.2193 58.7198 72.5293 58.8998L159.559 109.14L177.769 119.66V144.31C177.769 144.67 177.959 145 178.269 145.18C178.419 145.27 178.599 145.31 178.769 145.31C178.939 145.31 179.119 145.26 179.269 145.17L204.919 130.24C205.229 130.06 205.419 129.73 205.419 129.38V104.27C205.419 103.91 205.229 103.58 204.919 103.4ZM203.419 128.81L179.769 142.58V119.09C179.769 118.73 179.579 118.4 179.269 118.22L92.9793 68.3998L75.0293 58.0398L98.6793 44.3898L185.189 94.3398L203.419 104.87V128.83V128.81Z" fill="#FF1077"/>
</g>
<defs>
<clipPath id="clip0_208_2">
<rect width="278.32" height="187.25" fill="white"/>
</clipPath>
</defs>
</svg>
