<svg width="433" height="347" viewBox="0 0 433 347" fill="none" xmlns="http://www.w3.org/2000/svg">
<g clip-path="url(#clip0_208_143)">
<path d="M275.7 167.23L254.53 179.46L102.5 267.23V291.69L102.61 291.75L275.82 191.75L275.7 191.68V167.23Z" fill="#EDEDED"/>
<path d="M2.5 209.5L2.61 209.56L23.78 221.79L102.5 267.23L254.53 179.46L275.7 167.23L175.7 109.5L2.5 209.5Z" fill="#EDEDED"/>
<path d="M121.099 159.76C112.659 159.87 105.079 161.45 99.5291 164.66C94.0591 167.82 90.9891 172.2 90.5991 177.37L34.2891 209.88L101.839 248.88L157.119 216.97C165.549 216.86 173.129 215.28 178.669 212.08C184.139 208.92 187.209 204.54 187.599 199.37L243.909 166.86L176.359 127.86L121.099 159.76Z" fill="#C5C5C5"/>
<path d="M165.669 173.02C144.229 160.64 114.959 157.48 100.279 165.95C85.6095 174.42 91.0895 191.32 112.529 203.7C133.969 216.08 163.239 219.24 177.919 210.77C192.589 202.3 187.109 185.4 165.669 173.02Z" fill="white"/>
<path d="M38.7807 214.11L24.9307 206.11L22.3207 207.62C22.1707 208.15 21.9407 208.65 21.6207 209.12C21.3007 209.59 20.8307 210.1 20.2207 210.65L22.7507 212.11L25.4807 210.53L35.2307 216.16L32.0807 217.98L35.4007 219.9L44.7807 214.49L41.4607 212.57L38.7907 214.11H38.7807Z" fill="#7B7B7B"/>
<path d="M48.1602 202.52C46.2402 201.41 44.4102 200.6 42.6602 200.09C40.9102 199.58 39.3202 199.36 37.8702 199.43C36.4202 199.5 35.1703 199.84 34.1103 200.46C33.0503 201.07 32.4502 201.8 32.3202 202.63C32.1902 203.46 32.5602 204.38 33.4402 205.4C34.3202 206.42 35.7202 207.48 37.6402 208.59C39.5602 209.7 41.4202 210.52 43.2102 211.04C45.0002 211.57 46.6303 211.8 48.1103 211.74C49.5903 211.68 50.8503 211.34 51.9003 210.74C52.9503 210.13 53.5302 209.4 53.6402 208.55C53.7502 207.7 53.3402 206.76 52.4202 205.73C51.5002 204.7 50.0802 203.63 48.1602 202.52ZM48.7203 208.9C48.1203 209.25 47.2302 209.27 46.0502 208.98C44.8702 208.69 43.1802 207.91 41.0002 206.65C38.8302 205.4 37.5202 204.44 37.0502 203.78C36.5802 203.12 36.6503 202.61 37.2503 202.27C37.8503 201.92 38.7203 201.89 39.8603 202.16C41.0003 202.43 42.6502 203.2 44.8202 204.45C47.0002 205.71 48.3503 206.68 48.8603 207.36C49.3703 208.04 49.3302 208.55 48.7302 208.9H48.7203Z" fill="#7B7B7B"/>
<path d="M59.8106 195.79C57.8906 194.68 56.0606 193.87 54.3106 193.36C52.5606 192.85 50.9706 192.63 49.5206 192.7C48.0706 192.77 46.8206 193.11 45.7606 193.73C44.7006 194.34 44.1006 195.07 43.9706 195.9C43.8406 196.73 44.2106 197.65 45.0906 198.67C45.9706 199.69 47.3706 200.75 49.2906 201.86C51.2106 202.97 53.0706 203.79 54.8606 204.31C56.6506 204.84 58.2806 205.07 59.7606 205.01C61.2406 204.95 62.5006 204.61 63.5506 204.01C64.6006 203.41 65.1806 202.67 65.2906 201.82C65.4006 200.97 64.9906 200.03 64.0706 199C63.1506 197.97 61.7306 196.9 59.8106 195.79ZM60.3706 202.17C59.7706 202.52 58.8806 202.54 57.7006 202.25C56.5206 201.96 54.8306 201.18 52.6506 199.92C50.4806 198.67 49.1706 197.71 48.7006 197.05C48.2306 196.39 48.3006 195.88 48.9006 195.54C49.5006 195.19 50.3706 195.16 51.5106 195.43C52.6506 195.7 54.3006 196.47 56.4706 197.72C58.6506 198.98 60.0006 199.95 60.5106 200.63C61.0206 201.31 60.9806 201.82 60.3806 202.17H60.3706Z" fill="#7B7B7B"/>
<path d="M71.4708 189.06C69.5508 187.95 67.7208 187.14 65.9708 186.63C64.2208 186.12 62.6308 185.9 61.1808 185.97C59.7308 186.04 58.4808 186.38 57.4208 187C56.3608 187.61 55.7608 188.34 55.6308 189.17C55.5008 190 55.8708 190.92 56.7508 191.94C57.6308 192.96 59.0308 194.02 60.9508 195.13C62.8708 196.24 64.7308 197.06 66.5208 197.58C68.3108 198.11 69.9408 198.34 71.4208 198.28C72.9008 198.22 74.1608 197.88 75.2108 197.28C76.2608 196.67 76.8408 195.94 76.9508 195.09C77.0608 194.24 76.6508 193.3 75.7308 192.27C74.8108 191.24 73.3908 190.17 71.4708 189.06ZM72.0308 195.44C71.4308 195.79 70.5408 195.81 69.3608 195.52C68.1808 195.23 66.4908 194.45 64.3108 193.19C62.1408 191.94 60.8308 190.98 60.3608 190.32C59.8908 189.66 59.9608 189.15 60.5608 188.81C61.1608 188.46 62.0308 188.43 63.1708 188.7C64.3108 188.97 65.9608 189.74 68.1308 190.99C70.3108 192.25 71.6608 193.22 72.1708 193.9C72.6808 194.58 72.6408 195.09 72.0408 195.44H72.0308Z" fill="#7B7B7B"/>
<path d="M83.1192 182.33C81.1992 181.22 79.3692 180.41 77.6192 179.9C75.8692 179.39 74.2792 179.17 72.8292 179.24C71.3792 179.31 70.1292 179.65 69.0692 180.27C68.0092 180.88 67.4092 181.61 67.2792 182.44C67.1492 183.27 67.5192 184.19 68.3992 185.21C69.2792 186.23 70.6792 187.29 72.5992 188.4C74.5192 189.51 76.3792 190.33 78.1692 190.85C79.9592 191.38 81.5892 191.61 83.0692 191.55C84.5492 191.49 85.8092 191.15 86.8592 190.55C87.9092 189.94 88.4892 189.21 88.5992 188.36C88.7092 187.51 88.2992 186.57 87.3792 185.54C86.4592 184.51 85.0392 183.44 83.1192 182.33ZM83.6792 188.72C83.0792 189.07 82.1892 189.09 81.0092 188.8C79.8292 188.51 78.1392 187.73 75.9592 186.47C73.7892 185.22 72.4792 184.26 72.0092 183.6C71.5392 182.94 71.6092 182.43 72.2092 182.09C72.8092 181.74 73.6792 181.71 74.8192 181.98C75.9592 182.25 77.6092 183.02 79.7792 184.27C81.9592 185.53 83.3092 186.5 83.8192 187.18C84.3292 187.86 84.2892 188.37 83.6892 188.72H83.6792Z" fill="#7B7B7B"/>
<path d="M2.60938 209.56V234.01L102.499 291.69V267.23L23.7794 221.79L2.60938 209.56Z" fill="#C5C5C5"/>
<path d="M278.2 167.23C278.2 166.34 277.72 165.51 276.95 165.06L176.95 107.33C176.18 106.88 175.22 106.88 174.45 107.33L1.25 207.33C0.47 207.78 0 208.62 0 209.52C0 209.76 0.04 210 0.11 210.23V234.01C0.11 234.9 0.59 235.73 1.36 236.18L101.25 293.86L102.48 291.73L101.3 293.9L101.41 293.96C101.78 294.16 102.19 294.26 102.61 294.26C103.04 294.26 103.47 294.15 103.86 293.93L277.07 193.93C277.84 193.49 278.32 192.67 278.32 191.78C278.32 191.51 278.28 191.25 278.2 191.01V167.25V167.23ZM273.2 190.37L102.61 288.86L5.11 232.57V210.88L175.7 112.39L273.2 168.68V190.38V190.37Z" fill="#7B7B7B"/>
<path d="M185.919 200.59L185.699 200.46L118.149 161.46L117.909 161.33L101.929 152.09L98.6793 150.22L73.0293 165.03L76.2793 166.9L92.2793 176.15L92.4993 176.27L160.049 215.27L160.279 215.4L176.269 224.64L178.769 226.08L204.419 211.27L201.919 209.83L185.919 200.59Z" fill="#EDEDED"/>
<path d="M178.77 251.31L204.42 236.38V211.27L178.77 226.08V251.31Z" fill="#EDEDED"/>
<path d="M204.919 210.4L118.629 160.58L99.1793 149.35C98.8693 149.17 98.4893 149.17 98.1793 149.35L72.5293 164.16C72.2193 164.34 72.0293 164.67 72.0293 165.03C72.0293 165.39 72.2193 165.72 72.5293 165.9L159.559 216.14L177.769 226.66V251.31C177.769 251.67 177.959 252 178.269 252.18C178.419 252.27 178.599 252.31 178.769 252.31C178.939 252.31 179.119 252.27 179.269 252.17L204.919 237.24C205.229 237.06 205.419 236.73 205.419 236.38V211.27C205.419 210.91 205.229 210.58 204.919 210.4ZM203.419 235.8L179.769 249.57V226.08C179.769 225.72 179.579 225.39 179.269 225.21L92.9793 175.39L75.0293 165.03L98.6793 151.38L185.189 201.33L203.419 211.86V235.82V235.8Z" fill="#7B7B7B"/>
<path d="M290.7 124.23L269.53 136.46L117.5 224.23V248.69L117.61 248.75L290.82 148.75L290.7 148.68V124.23Z" fill="#EDEDED"/>
<path d="M17.5 166.5L17.61 166.56L38.78 178.79L117.5 224.23L269.53 136.46L290.7 124.23L190.7 66.5L17.5 166.5Z" fill="#EDEDED"/>
<path d="M136.101 116.76C127.661 116.87 120.081 118.45 114.531 121.66C109.061 124.82 105.991 129.2 105.601 134.37L49.291 166.88L116.841 205.88L172.121 173.97C180.551 173.86 188.131 172.28 193.671 169.08C199.141 165.92 202.211 161.54 202.601 156.37L258.911 123.86L191.361 84.8604L136.101 116.76Z" fill="#C5C5C5"/>
<path d="M180.669 130.02C159.229 117.64 129.959 114.48 115.279 122.95C100.609 131.42 106.089 148.32 127.529 160.7C148.969 173.08 178.239 176.24 192.919 167.77C207.589 159.3 202.109 142.4 180.669 130.02Z" fill="white"/>
<path d="M53.7807 171.11L39.9307 163.11L37.3207 164.62C37.1707 165.15 36.9407 165.65 36.6207 166.12C36.3007 166.59 35.8307 167.1 35.2207 167.65L37.7507 169.11L40.4807 167.53L50.2307 173.16L47.0807 174.98L50.4007 176.9L59.7807 171.49L56.4607 169.57L53.7907 171.11H53.7807Z" fill="#7B7B7B"/>
<path d="M63.1602 159.52C61.2402 158.41 59.4102 157.6 57.6602 157.09C55.9102 156.58 54.3202 156.36 52.8702 156.43C51.4202 156.5 50.1703 156.84 49.1103 157.46C48.0503 158.07 47.4502 158.8 47.3202 159.63C47.1902 160.46 47.5602 161.38 48.4402 162.4C49.3202 163.42 50.7202 164.48 52.6402 165.59C54.5602 166.7 56.4202 167.52 58.2102 168.04C60.0002 168.57 61.6303 168.8 63.1103 168.74C64.5903 168.68 65.8503 168.34 66.9003 167.74C67.9503 167.13 68.5302 166.4 68.6402 165.55C68.7502 164.7 68.3402 163.76 67.4202 162.73C66.5002 161.7 65.0802 160.63 63.1602 159.52ZM63.7203 165.9C63.1203 166.25 62.2302 166.27 61.0502 165.98C59.8702 165.69 58.1802 164.91 56.0002 163.65C53.8302 162.4 52.5202 161.44 52.0502 160.78C51.5802 160.12 51.6503 159.61 52.2503 159.27C52.8503 158.92 53.7203 158.89 54.8603 159.16C56.0003 159.43 57.6502 160.2 59.8202 161.45C62.0002 162.71 63.3503 163.68 63.8603 164.36C64.3703 165.04 64.3302 165.55 63.7302 165.9H63.7203Z" fill="#7B7B7B"/>
<path d="M74.8106 152.79C72.8906 151.68 71.0606 150.87 69.3106 150.36C67.5606 149.85 65.9706 149.63 64.5206 149.7C63.0706 149.77 61.8206 150.11 60.7606 150.73C59.7006 151.34 59.1006 152.07 58.9706 152.9C58.8406 153.73 59.2106 154.65 60.0906 155.67C60.9706 156.69 62.3706 157.75 64.2906 158.86C66.2106 159.97 68.0706 160.79 69.8606 161.31C71.6506 161.84 73.2806 162.07 74.7606 162.01C76.2406 161.95 77.5006 161.61 78.5506 161.01C79.6006 160.41 80.1806 159.67 80.2906 158.82C80.4006 157.97 79.9906 157.03 79.0706 156C78.1506 154.97 76.7306 153.9 74.8106 152.79ZM75.3706 159.17C74.7706 159.52 73.8806 159.54 72.7006 159.25C71.5206 158.96 69.8306 158.18 67.6506 156.92C65.4806 155.67 64.1706 154.71 63.7006 154.05C63.2306 153.39 63.3006 152.88 63.9006 152.54C64.5006 152.19 65.3706 152.16 66.5106 152.43C67.6506 152.7 69.3006 153.47 71.4706 154.72C73.6506 155.98 75.0006 156.95 75.5106 157.63C76.0206 158.31 75.9806 158.82 75.3806 159.17H75.3706Z" fill="#7B7B7B"/>
<path d="M86.4708 146.06C84.5508 144.95 82.7208 144.14 80.9708 143.63C79.2208 143.12 77.6308 142.9 76.1808 142.97C74.7308 143.04 73.4808 143.38 72.4208 144C71.3608 144.61 70.7608 145.34 70.6308 146.17C70.5008 147 70.8708 147.92 71.7508 148.94C72.6308 149.96 74.0308 151.02 75.9508 152.13C77.8708 153.24 79.7308 154.06 81.5208 154.58C83.3108 155.11 84.9408 155.34 86.4208 155.28C87.9008 155.22 89.1608 154.88 90.2108 154.28C91.2608 153.67 91.8408 152.94 91.9508 152.09C92.0608 151.24 91.6508 150.3 90.7308 149.27C89.8108 148.24 88.3908 147.17 86.4708 146.06ZM87.0308 152.44C86.4308 152.79 85.5408 152.81 84.3608 152.52C83.1808 152.23 81.4908 151.45 79.3108 150.19C77.1408 148.94 75.8308 147.98 75.3608 147.32C74.8908 146.66 74.9608 146.15 75.5608 145.81C76.1608 145.46 77.0308 145.43 78.1708 145.7C79.3108 145.97 80.9608 146.74 83.1308 147.99C85.3108 149.25 86.6608 150.22 87.1708 150.9C87.6808 151.58 87.6408 152.09 87.0408 152.44H87.0308Z" fill="#7B7B7B"/>
<path d="M98.1192 139.33C96.1992 138.22 94.3692 137.41 92.6192 136.9C90.8692 136.39 89.2792 136.17 87.8292 136.24C86.3792 136.31 85.1292 136.65 84.0692 137.27C83.0092 137.88 82.4092 138.61 82.2792 139.44C82.1492 140.27 82.5192 141.19 83.3992 142.21C84.2792 143.23 85.6792 144.29 87.5992 145.4C89.5192 146.51 91.3792 147.33 93.1692 147.85C94.9592 148.38 96.5892 148.61 98.0692 148.55C99.5492 148.49 100.809 148.15 101.859 147.55C102.909 146.94 103.489 146.21 103.599 145.36C103.709 144.51 103.299 143.57 102.379 142.54C101.459 141.51 100.039 140.44 98.1192 139.33ZM98.6792 145.72C98.0792 146.07 97.1892 146.09 96.0092 145.8C94.8292 145.51 93.1392 144.73 90.9592 143.47C88.7892 142.22 87.4792 141.26 87.0092 140.6C86.5392 139.94 86.6092 139.43 87.2092 139.09C87.8092 138.74 88.6792 138.71 89.8192 138.98C90.9592 139.25 92.6092 140.02 94.7792 141.27C96.9592 142.53 98.3092 143.5 98.8192 144.18C99.3292 144.86 99.2892 145.37 98.6892 145.72H98.6792Z" fill="#7B7B7B"/>
<path d="M17.6094 166.56V191.01L117.499 248.69V224.23L38.7794 178.79L17.6094 166.56Z" fill="#C5C5C5"/>
<path d="M293.2 124.23C293.2 123.34 292.72 122.51 291.95 122.06L191.95 64.3302C191.18 63.8802 190.22 63.8802 189.45 64.3302L16.2502 164.33C15.4702 164.78 14.9902 165.62 15.0002 166.52C15.0002 166.76 15.0402 167 15.1102 167.23V191.01C15.1102 191.9 15.5902 192.73 16.3602 193.18L116.25 250.86L117.48 248.73L116.3 250.9L116.41 250.96C116.78 251.16 117.19 251.26 117.61 251.26C118.04 251.26 118.47 251.15 118.86 250.93L292.07 150.93C292.84 150.49 293.32 149.67 293.32 148.78C293.32 148.51 293.28 148.25 293.2 148.01V124.25V124.23ZM288.2 147.37L117.61 245.86L20.1102 189.56V167.87L190.7 69.3802L288.2 125.67V147.37Z" fill="#7B7B7B"/>
<path d="M200.919 157.59L200.699 157.46L133.149 118.46L132.909 118.33L116.929 109.09L113.679 107.22L88.0293 122.03L91.2793 123.9L107.279 133.15L107.499 133.27L175.049 172.27L175.279 172.4L191.269 181.64L193.769 183.08L219.419 168.27L216.919 166.83L200.919 157.59Z" fill="#EDEDED"/>
<path d="M193.77 208.31L219.42 193.38V168.27L193.77 183.08V208.31Z" fill="#EDEDED"/>
<path d="M219.919 167.4L133.629 117.58L114.179 106.35C113.869 106.17 113.489 106.17 113.179 106.35L87.5293 121.16C87.2193 121.34 87.0293 121.67 87.0293 122.03C87.0293 122.39 87.2193 122.72 87.5293 122.9L174.559 173.14L192.769 183.66V208.31C192.769 208.67 192.959 209 193.269 209.18C193.419 209.27 193.599 209.31 193.769 209.31C193.939 209.31 194.119 209.27 194.269 209.17L219.919 194.24C220.229 194.06 220.419 193.73 220.419 193.38V168.27C220.419 167.91 220.229 167.58 219.919 167.4ZM218.419 192.8L194.769 206.57V183.08C194.769 182.72 194.579 182.39 194.269 182.21L107.979 132.39L90.0293 122.03L113.679 108.38L200.189 158.33L218.419 168.86V192.82V192.8Z" fill="#7B7B7B"/>
<path d="M305.7 81.23L284.53 93.46L132.5 181.23V205.69L132.61 205.75L305.82 105.75L305.7 105.68V81.23Z" fill="#EDEDED"/>
<path d="M32.5 123.5L32.61 123.56L53.78 135.79L132.5 181.23L284.53 93.46L305.7 81.23L205.7 23.5L32.5 123.5Z" fill="#EDEDED"/>
<path d="M151.101 73.7604C142.661 73.8704 135.081 75.4504 129.531 78.6604C124.061 81.8204 120.991 86.2004 120.601 91.3704L64.291 123.88L131.841 162.88L187.121 130.97C195.551 130.86 203.131 129.28 208.671 126.08C214.141 122.92 217.211 118.54 217.601 113.37L273.911 80.8604L206.361 41.8604L151.101 73.7604Z" fill="#C5C5C5"/>
<path d="M195.669 87.0202C174.229 74.6402 144.959 71.4802 130.279 79.9502C115.609 88.4202 121.089 105.32 142.529 117.7C163.969 130.08 193.239 133.24 207.919 124.77C222.589 116.3 217.109 99.4002 195.669 87.0202Z" fill="white"/>
<path d="M68.7807 128.11L54.9307 120.11L52.3207 121.62C52.1707 122.15 51.9407 122.65 51.6207 123.12C51.3007 123.59 50.8307 124.1 50.2207 124.65L52.7507 126.11L55.4807 124.53L65.2307 130.16L62.0807 131.98L65.4007 133.9L74.7807 128.49L71.4607 126.57L68.7907 128.11H68.7807Z" fill="#7B7B7B"/>
<path d="M78.1603 116.52C76.2403 115.41 74.4103 114.6 72.6603 114.09C70.9103 113.58 69.3203 113.36 67.8703 113.43C66.4203 113.5 65.1703 113.84 64.1103 114.46C63.0503 115.07 62.4502 115.8 62.3202 116.63C62.1902 117.46 62.5602 118.38 63.4402 119.4C64.3202 120.42 65.7202 121.48 67.6402 122.59C69.5602 123.7 71.4202 124.52 73.2102 125.04C75.0002 125.57 76.6303 125.8 78.1103 125.74C79.5903 125.68 80.8503 125.34 81.9003 124.74C82.9503 124.13 83.5302 123.4 83.6402 122.55C83.7502 121.7 83.3402 120.76 82.4202 119.73C81.5002 118.7 80.0803 117.63 78.1603 116.52ZM78.7203 122.9C78.1203 123.25 77.2303 123.27 76.0503 122.98C74.8703 122.69 73.1802 121.91 71.0002 120.65C68.8302 119.4 67.5203 118.44 67.0503 117.78C66.5803 117.12 66.6503 116.61 67.2503 116.27C67.8503 115.92 68.7203 115.89 69.8603 116.16C71.0003 116.43 72.6502 117.2 74.8202 118.45C77.0002 119.71 78.3503 120.68 78.8603 121.36C79.3703 122.04 79.3303 122.55 78.7303 122.9H78.7203Z" fill="#7B7B7B"/>
<path d="M89.8106 109.79C87.8906 108.68 86.0606 107.87 84.3106 107.36C82.5606 106.85 80.9706 106.63 79.5206 106.7C78.0706 106.77 76.8206 107.11 75.7606 107.73C74.7006 108.34 74.1006 109.07 73.9706 109.9C73.8406 110.73 74.2106 111.65 75.0906 112.67C75.9706 113.69 77.3706 114.75 79.2906 115.86C81.2106 116.97 83.0706 117.79 84.8606 118.31C86.6506 118.84 88.2806 119.07 89.7606 119.01C91.2406 118.95 92.5006 118.61 93.5506 118.01C94.6006 117.41 95.1806 116.67 95.2906 115.82C95.4006 114.97 94.9906 114.03 94.0706 113C93.1506 111.97 91.7306 110.9 89.8106 109.79ZM90.3706 116.17C89.7706 116.52 88.8806 116.54 87.7006 116.25C86.5206 115.96 84.8306 115.18 82.6506 113.92C80.4806 112.67 79.1706 111.71 78.7006 111.05C78.2306 110.39 78.3006 109.88 78.9006 109.54C79.5006 109.19 80.3706 109.16 81.5106 109.43C82.6506 109.7 84.3006 110.47 86.4706 111.72C88.6506 112.98 90.0006 113.95 90.5106 114.63C91.0206 115.31 90.9806 115.82 90.3806 116.17H90.3706Z" fill="#7B7B7B"/>
<path d="M101.471 103.06C99.5508 101.95 97.7208 101.14 95.9708 100.63C94.2208 100.12 92.6308 99.9002 91.1808 99.9702C89.7308 100.04 88.4808 100.38 87.4208 101C86.3608 101.61 85.7608 102.34 85.6308 103.17C85.5008 104 85.8708 104.92 86.7508 105.94C87.6308 106.96 89.0308 108.02 90.9508 109.13C92.8708 110.24 94.7308 111.06 96.5208 111.58C98.3108 112.11 99.9408 112.34 101.421 112.28C102.901 112.22 104.161 111.88 105.211 111.28C106.261 110.67 106.841 109.94 106.951 109.09C107.061 108.24 106.651 107.3 105.731 106.27C104.811 105.24 103.391 104.17 101.471 103.06ZM102.031 109.44C101.431 109.79 100.541 109.81 99.3608 109.52C98.1808 109.23 96.4908 108.45 94.3108 107.19C92.1408 105.94 90.8308 104.98 90.3608 104.32C89.8908 103.66 89.9608 103.15 90.5608 102.81C91.1608 102.46 92.0308 102.43 93.1708 102.7C94.3108 102.97 95.9608 103.74 98.1308 104.99C100.311 106.25 101.661 107.22 102.171 107.9C102.681 108.58 102.641 109.09 102.041 109.44H102.031Z" fill="#7B7B7B"/>
<path d="M113.119 96.3302C111.199 95.2202 109.369 94.4102 107.619 93.9002C105.869 93.3902 104.279 93.1702 102.829 93.2402C101.379 93.3102 100.129 93.6502 99.0692 94.2702C98.0092 94.8802 97.4092 95.6102 97.2792 96.4402C97.1492 97.2702 97.5192 98.1902 98.3992 99.2102C99.2792 100.23 100.679 101.29 102.599 102.4C104.519 103.51 106.379 104.33 108.169 104.85C109.959 105.38 111.589 105.61 113.069 105.55C114.549 105.49 115.809 105.15 116.859 104.55C117.909 103.94 118.489 103.21 118.599 102.36C118.709 101.51 118.299 100.57 117.379 99.5402C116.459 98.5102 115.039 97.4402 113.119 96.3302ZM113.679 102.72C113.079 103.07 112.189 103.09 111.009 102.8C109.829 102.51 108.139 101.73 105.959 100.47C103.789 99.2202 102.479 98.2602 102.009 97.6002C101.539 96.9402 101.609 96.4302 102.209 96.0902C102.809 95.7402 103.679 95.7102 104.819 95.9802C105.959 96.2502 107.609 97.0202 109.779 98.2702C111.959 99.5302 113.309 100.5 113.819 101.18C114.329 101.86 114.289 102.37 113.689 102.72H113.679Z" fill="#7B7B7B"/>
<path d="M32.6094 123.56V148.01L132.499 205.69V181.23L53.7794 135.79L32.6094 123.56Z" fill="#C5C5C5"/>
<path d="M308.2 81.2302C308.2 80.3402 307.72 79.5102 306.95 79.0602L206.95 21.3302C206.18 20.8802 205.22 20.8802 204.45 21.3302L31.2502 121.33C30.4702 121.78 29.9902 122.62 30.0002 123.52C30.0002 123.76 30.0402 124 30.1102 124.22V148C30.1102 148.89 30.5902 149.72 31.3602 150.17L131.25 207.85L132.48 205.72L131.3 207.89L131.41 207.95C131.78 208.15 132.19 208.25 132.61 208.25C133.04 208.25 133.47 208.14 133.86 207.92L307.07 107.92C307.84 107.47 308.32 106.65 308.32 105.76C308.32 105.49 308.28 105.23 308.2 104.99V81.2302ZM303.2 104.38L132.61 202.87L35.1102 146.57V124.88L205.7 26.3902L303.2 82.6802V104.38Z" fill="#7B7B7B"/>
<path d="M215.919 114.59L215.699 114.46L148.149 75.4602L147.909 75.3302L131.929 66.0902L128.679 64.2202L103.029 79.0302L106.279 80.9002L122.279 90.1502L122.499 90.2702L190.049 129.27L190.279 129.4L206.269 138.64L208.769 140.08L234.419 125.27L231.919 123.83L215.919 114.59Z" fill="#EDEDED"/>
<path d="M208.77 165.31L234.42 150.38V125.27L208.77 140.08V165.31Z" fill="#EDEDED"/>
<path d="M234.919 124.4L148.629 74.5803L129.179 63.3503C128.869 63.1703 128.489 63.1703 128.179 63.3503L102.529 78.1603C102.219 78.3403 102.029 78.6703 102.029 79.0303C102.029 79.3903 102.219 79.7203 102.529 79.9003L189.559 130.14L207.769 140.66V165.31C207.769 165.67 207.959 166 208.269 166.18C208.419 166.27 208.599 166.31 208.769 166.31C208.939 166.31 209.119 166.27 209.269 166.17L234.919 151.24C235.229 151.06 235.419 150.73 235.419 150.38V125.27C235.419 124.91 235.229 124.58 234.919 124.4ZM233.419 149.8L209.769 163.57V140.08C209.769 139.72 209.579 139.39 209.269 139.21L122.979 89.3903L105.029 79.0303L128.679 65.3803L215.189 115.33L233.419 125.86V149.82V149.8Z" fill="#7B7B7B"/>
<path d="M399.7 219.23L378.53 231.46L226.5 319.23V343.69L226.61 343.75L399.82 243.75L399.7 243.68V219.23Z" fill="#EDEDED"/>
<path d="M126.5 261.5L126.61 261.56L147.78 273.79L226.5 319.23L378.53 231.46L399.7 219.23L299.7 161.5L126.5 261.5Z" fill="#EDEDED"/>
<path d="M245.101 211.76C236.661 211.87 229.081 213.45 223.531 216.66C218.061 219.82 214.991 224.2 214.601 229.37L158.291 261.88L225.841 300.88L281.121 268.97C289.551 268.86 297.131 267.28 302.671 264.08C308.141 260.92 311.211 256.54 311.601 251.37L367.911 218.86L300.361 179.86L245.101 211.76Z" fill="#C5C5C5"/>
<path d="M289.669 225.02C268.229 212.64 238.959 209.48 224.279 217.95C209.609 226.42 215.089 243.32 236.529 255.7C257.969 268.08 287.239 271.24 301.919 262.77C316.589 254.3 311.109 237.4 289.669 225.02Z" fill="white"/>
<path d="M162.781 266.11L148.931 258.11L146.321 259.62C146.171 260.15 145.941 260.65 145.621 261.12C145.301 261.59 144.831 262.1 144.221 262.65L146.751 264.11L149.481 262.53L159.231 268.16L156.081 269.98L159.401 271.9L168.781 266.49L165.461 264.57L162.791 266.11H162.781Z" fill="#7B7B7B"/>
<path d="M172.16 254.52C170.24 253.41 168.41 252.6 166.66 252.09C164.91 251.58 163.32 251.36 161.87 251.43C160.42 251.5 159.17 251.84 158.11 252.46C157.05 253.07 156.45 253.8 156.32 254.63C156.19 255.46 156.56 256.38 157.44 257.4C158.32 258.42 159.72 259.48 161.64 260.59C163.56 261.7 165.42 262.52 167.21 263.04C169 263.57 170.63 263.8 172.11 263.74C173.59 263.68 174.85 263.34 175.9 262.74C176.95 262.13 177.53 261.4 177.64 260.55C177.75 259.7 177.34 258.76 176.42 257.73C175.5 256.7 174.08 255.63 172.16 254.52ZM172.72 260.9C172.12 261.25 171.23 261.27 170.05 260.98C168.87 260.69 167.18 259.91 165 258.65C162.83 257.4 161.52 256.44 161.05 255.78C160.58 255.12 160.65 254.61 161.25 254.27C161.85 253.92 162.72 253.89 163.86 254.16C165 254.43 166.65 255.2 168.82 256.45C171 257.71 172.35 258.68 172.86 259.36C173.37 260.04 173.33 260.55 172.73 260.9H172.72Z" fill="#7B7B7B"/>
<path d="M183.811 247.79C181.891 246.68 180.061 245.87 178.311 245.36C176.561 244.85 174.971 244.63 173.521 244.7C172.071 244.77 170.821 245.11 169.761 245.73C168.701 246.34 168.101 247.07 167.971 247.9C167.841 248.73 168.211 249.65 169.091 250.67C169.971 251.69 171.371 252.75 173.291 253.86C175.211 254.97 177.071 255.79 178.861 256.31C180.651 256.84 182.281 257.07 183.761 257.01C185.241 256.95 186.501 256.61 187.551 256.01C188.601 255.41 189.181 254.67 189.291 253.82C189.401 252.97 188.991 252.03 188.071 251C187.151 249.97 185.731 248.9 183.811 247.79ZM184.371 254.17C183.771 254.52 182.881 254.54 181.701 254.25C180.521 253.96 178.831 253.18 176.651 251.92C174.481 250.67 173.171 249.71 172.701 249.05C172.231 248.39 172.301 247.88 172.901 247.54C173.501 247.19 174.371 247.16 175.511 247.43C176.651 247.7 178.301 248.47 180.471 249.72C182.651 250.98 184.001 251.95 184.511 252.63C185.021 253.31 184.981 253.82 184.381 254.17H184.371Z" fill="#7B7B7B"/>
<path d="M195.471 241.06C193.551 239.95 191.721 239.14 189.971 238.63C188.221 238.12 186.631 237.9 185.181 237.97C183.731 238.04 182.481 238.38 181.421 239C180.361 239.61 179.761 240.34 179.631 241.17C179.501 242 179.871 242.92 180.751 243.94C181.631 244.96 183.031 246.02 184.951 247.13C186.871 248.24 188.731 249.06 190.521 249.58C192.311 250.11 193.941 250.34 195.421 250.28C196.901 250.22 198.161 249.88 199.211 249.28C200.261 248.67 200.841 247.94 200.951 247.09C201.061 246.24 200.651 245.3 199.731 244.27C198.811 243.24 197.391 242.17 195.471 241.06ZM196.031 247.44C195.431 247.79 194.541 247.81 193.361 247.52C192.181 247.23 190.491 246.45 188.311 245.19C186.141 243.94 184.831 242.98 184.361 242.32C183.891 241.66 183.961 241.15 184.561 240.81C185.161 240.46 186.031 240.43 187.171 240.7C188.311 240.97 189.961 241.74 192.131 242.99C194.311 244.25 195.661 245.22 196.171 245.9C196.681 246.58 196.641 247.09 196.041 247.44H196.031Z" fill="#7B7B7B"/>
<path d="M207.119 234.33C205.199 233.22 203.369 232.41 201.619 231.9C199.869 231.39 198.279 231.17 196.829 231.24C195.379 231.31 194.129 231.65 193.069 232.27C192.009 232.88 191.409 233.61 191.279 234.44C191.149 235.27 191.519 236.19 192.399 237.21C193.279 238.23 194.679 239.29 196.599 240.4C198.519 241.51 200.379 242.33 202.169 242.85C203.959 243.38 205.589 243.61 207.069 243.55C208.549 243.49 209.809 243.15 210.859 242.55C211.909 241.94 212.489 241.21 212.599 240.36C212.709 239.51 212.299 238.57 211.379 237.54C210.459 236.51 209.039 235.44 207.119 234.33ZM207.679 240.72C207.079 241.07 206.189 241.09 205.009 240.8C203.829 240.51 202.139 239.73 199.959 238.47C197.789 237.22 196.479 236.26 196.009 235.6C195.539 234.94 195.609 234.43 196.209 234.09C196.809 233.74 197.679 233.71 198.819 233.98C199.959 234.25 201.609 235.02 203.779 236.27C205.959 237.53 207.309 238.5 207.819 239.18C208.329 239.86 208.289 240.37 207.689 240.72H207.679Z" fill="#7B7B7B"/>
<path d="M126.609 261.56V286.01L226.499 343.69V319.23L147.779 273.79L126.609 261.56Z" fill="#C5C5C5"/>
<path d="M402.2 219.23C402.2 218.34 401.72 217.51 400.95 217.06L300.95 159.33C300.18 158.88 299.22 158.88 298.45 159.33L125.25 259.33C124.47 259.78 123.99 260.62 124 261.52C124 261.76 124.04 262 124.11 262.23V286.01C124.11 286.9 124.59 287.73 125.36 288.18L225.25 345.86L226.48 343.73L225.3 345.9L225.41 345.96C225.78 346.16 226.19 346.26 226.61 346.26C227.04 346.26 227.47 346.15 227.86 345.93L401.07 245.93C401.84 245.49 402.32 244.67 402.32 243.78C402.32 243.51 402.28 243.25 402.2 243.01V219.25V219.23ZM397.2 242.37L226.61 340.86L129.11 284.56V262.87L299.7 164.38L397.2 220.67V242.37Z" fill="#7B7B7B"/>
<path d="M309.919 252.59L309.699 252.46L242.149 213.46L241.909 213.33L225.929 204.09L222.679 202.22L197.029 217.03L200.279 218.9L216.279 228.15L216.499 228.27L284.049 267.27L284.279 267.4L300.269 276.64L302.769 278.08L328.419 263.27L325.919 261.83L309.919 252.59Z" fill="#EDEDED"/>
<path d="M302.77 303.31L328.42 288.38V263.27L302.77 278.08V303.31Z" fill="#ABABAB"/>
<path d="M328.919 262.4L242.629 212.58L223.179 201.35C222.869 201.17 222.489 201.17 222.179 201.35L196.529 216.16C196.219 216.34 196.029 216.67 196.029 217.03C196.029 217.39 196.219 217.72 196.529 217.9L283.559 268.14L301.769 278.66V303.31C301.769 303.67 301.959 304 302.269 304.18C302.419 304.27 302.599 304.31 302.769 304.31C302.939 304.31 303.119 304.27 303.269 304.17L328.919 289.24C329.229 289.06 329.419 288.73 329.419 288.38V263.27C329.419 262.91 329.229 262.58 328.919 262.4ZM327.419 287.8L303.769 301.57V278.08C303.769 277.72 303.579 277.39 303.269 277.21L216.979 227.39L199.029 217.03L222.679 203.38L309.189 253.33L327.419 263.86V287.82V287.8Z" fill="#7B7B7B"/>
<path d="M414.7 176.23L393.53 188.46L241.5 276.23V300.69L241.61 300.75L414.82 200.75L414.7 200.68V176.23Z" fill="#EDEDED"/>
<path d="M141.5 218.5L141.61 218.56L162.78 230.79L241.5 276.23L393.53 188.46L414.7 176.23L314.7 118.5L141.5 218.5Z" fill="#EDEDED"/>
<path d="M260.101 168.76C251.661 168.87 244.081 170.45 238.531 173.66C233.061 176.82 229.991 181.2 229.601 186.37L173.291 218.88L240.841 257.88L296.121 225.97C304.551 225.86 312.131 224.28 317.671 221.08C323.141 217.92 326.211 213.54 326.601 208.37L382.911 175.86L315.361 136.86L260.101 168.76Z" fill="#C5C5C5"/>
<path d="M304.669 182.02C283.229 169.64 253.959 166.48 239.279 174.95C224.609 183.42 230.089 200.32 251.529 212.7C272.969 225.08 302.239 228.24 316.919 219.77C331.589 211.3 326.109 194.4 304.669 182.02Z" fill="white"/>
<path d="M177.781 223.11L163.931 215.11L161.321 216.62C161.171 217.15 160.941 217.65 160.621 218.12C160.301 218.59 159.831 219.1 159.221 219.65L161.751 221.11L164.481 219.53L174.231 225.16L171.081 226.98L174.401 228.9L183.781 223.49L180.461 221.57L177.791 223.11H177.781Z" fill="#7B7B7B"/>
<path d="M187.16 211.52C185.24 210.41 183.41 209.6 181.66 209.09C179.91 208.58 178.32 208.36 176.87 208.43C175.42 208.5 174.17 208.84 173.11 209.46C172.05 210.07 171.45 210.8 171.32 211.63C171.19 212.46 171.56 213.38 172.44 214.4C173.32 215.42 174.72 216.48 176.64 217.59C178.56 218.7 180.42 219.52 182.21 220.04C184 220.57 185.63 220.8 187.11 220.74C188.59 220.68 189.85 220.34 190.9 219.74C191.95 219.13 192.53 218.4 192.64 217.55C192.75 216.7 192.34 215.76 191.42 214.73C190.5 213.7 189.08 212.63 187.16 211.52ZM187.72 217.9C187.12 218.25 186.23 218.27 185.05 217.98C183.87 217.69 182.18 216.91 180 215.65C177.83 214.4 176.52 213.44 176.05 212.78C175.58 212.12 175.65 211.61 176.25 211.27C176.85 210.92 177.72 210.89 178.86 211.16C180 211.43 181.65 212.2 183.82 213.45C186 214.71 187.35 215.68 187.86 216.36C188.37 217.04 188.33 217.55 187.73 217.9H187.72Z" fill="#7B7B7B"/>
<path d="M198.811 204.79C196.891 203.68 195.061 202.87 193.311 202.36C191.561 201.85 189.971 201.63 188.521 201.7C187.071 201.77 185.821 202.11 184.761 202.73C183.701 203.34 183.101 204.07 182.971 204.9C182.841 205.73 183.211 206.65 184.091 207.67C184.971 208.69 186.371 209.75 188.291 210.86C190.211 211.97 192.071 212.79 193.861 213.31C195.651 213.84 197.281 214.07 198.761 214.01C200.241 213.95 201.501 213.61 202.551 213.01C203.601 212.41 204.181 211.67 204.291 210.82C204.401 209.97 203.991 209.03 203.071 208C202.151 206.97 200.731 205.9 198.811 204.79ZM199.371 211.17C198.771 211.52 197.881 211.54 196.701 211.25C195.521 210.96 193.831 210.18 191.651 208.92C189.481 207.67 188.171 206.71 187.701 206.05C187.231 205.39 187.301 204.88 187.901 204.54C188.501 204.19 189.371 204.16 190.511 204.43C191.651 204.7 193.301 205.47 195.471 206.72C197.651 207.98 199.001 208.95 199.511 209.63C200.021 210.31 199.981 210.82 199.381 211.17H199.371Z" fill="#7B7B7B"/>
<path d="M210.471 198.06C208.551 196.95 206.721 196.14 204.971 195.63C203.221 195.12 201.631 194.9 200.181 194.97C198.731 195.04 197.481 195.38 196.421 196C195.361 196.61 194.761 197.34 194.631 198.17C194.501 199 194.871 199.92 195.751 200.94C196.631 201.96 198.031 203.02 199.951 204.13C201.871 205.24 203.731 206.06 205.521 206.58C207.311 207.11 208.941 207.34 210.421 207.28C211.901 207.22 213.161 206.88 214.211 206.28C215.261 205.67 215.841 204.94 215.951 204.09C216.061 203.24 215.651 202.3 214.731 201.27C213.811 200.24 212.391 199.17 210.471 198.06ZM211.031 204.44C210.431 204.79 209.541 204.81 208.361 204.52C207.181 204.23 205.491 203.45 203.311 202.19C201.141 200.94 199.831 199.98 199.361 199.32C198.891 198.66 198.961 198.15 199.561 197.81C200.161 197.46 201.031 197.43 202.171 197.7C203.311 197.97 204.961 198.74 207.131 199.99C209.311 201.25 210.661 202.22 211.171 202.9C211.681 203.58 211.641 204.09 211.041 204.44H211.031Z" fill="#7B7B7B"/>
<path d="M222.119 191.33C220.199 190.22 218.369 189.41 216.619 188.9C214.869 188.39 213.279 188.17 211.829 188.24C210.379 188.31 209.129 188.65 208.069 189.27C207.009 189.88 206.409 190.61 206.279 191.44C206.149 192.27 206.519 193.19 207.399 194.21C208.279 195.23 209.679 196.29 211.599 197.4C213.519 198.51 215.379 199.33 217.169 199.85C218.959 200.38 220.589 200.61 222.069 200.55C223.549 200.49 224.809 200.15 225.859 199.55C226.909 198.94 227.489 198.21 227.599 197.36C227.709 196.51 227.299 195.57 226.379 194.54C225.459 193.51 224.039 192.44 222.119 191.33ZM222.679 197.72C222.079 198.07 221.189 198.09 220.009 197.8C218.829 197.51 217.139 196.73 214.959 195.47C212.789 194.22 211.479 193.26 211.009 192.6C210.539 191.94 210.609 191.43 211.209 191.09C211.809 190.74 212.679 190.71 213.819 190.98C214.959 191.25 216.609 192.02 218.779 193.27C220.959 194.53 222.309 195.5 222.819 196.18C223.329 196.86 223.289 197.37 222.689 197.72H222.679Z" fill="#7B7B7B"/>
<path d="M141.609 218.56V243.01L241.499 300.69V276.23L162.779 230.79L141.609 218.56Z" fill="#C5C5C5"/>
<path d="M417.2 176.23C417.2 175.34 416.72 174.51 415.95 174.06L315.95 116.33C315.18 115.88 314.22 115.88 313.45 116.33L140.25 216.33C139.47 216.78 138.99 217.62 139 218.52C139 218.76 139.04 219 139.11 219.23V243.01C139.11 243.9 139.59 244.73 140.36 245.18L240.25 302.86L241.48 300.73L240.3 302.9L240.41 302.96C240.78 303.16 241.19 303.26 241.61 303.26C242.04 303.26 242.47 303.15 242.86 302.93L416.07 202.93C416.84 202.49 417.32 201.67 417.32 200.78C417.32 200.51 417.28 200.25 417.2 200.01V176.25V176.23ZM412.2 199.37L241.61 297.86L144.11 241.56V219.87L314.7 121.38L412.2 177.67V199.37Z" fill="#7B7B7B"/>
<path d="M324.919 209.59L324.699 209.46L257.149 170.46L256.909 170.33L240.929 161.09L237.679 159.22L212.029 174.03L215.279 175.9L231.279 185.15L231.499 185.27L299.049 224.27L299.279 224.4L315.269 233.64L317.769 235.08L343.419 220.27L340.919 218.83L324.919 209.59Z" fill="#EDEDED"/>
<path d="M317.77 260.31L343.42 245.38V220.27L317.77 235.08V260.31Z" fill="#ABABAB"/>
<path d="M343.919 219.4L257.629 169.58L238.179 158.35C237.869 158.17 237.489 158.17 237.179 158.35L211.529 173.16C211.219 173.34 211.029 173.67 211.029 174.03C211.029 174.39 211.219 174.72 211.529 174.9L298.559 225.14L316.769 235.66V260.31C316.769 260.67 316.959 261 317.269 261.18C317.419 261.27 317.599 261.31 317.769 261.31C317.939 261.31 318.119 261.27 318.269 261.17L343.919 246.24C344.229 246.06 344.419 245.73 344.419 245.38V220.27C344.419 219.91 344.229 219.58 343.919 219.4ZM342.419 244.8L318.769 258.57V235.08C318.769 234.72 318.579 234.39 318.269 234.21L231.979 184.39L214.029 174.03L237.679 160.38L324.189 210.33L342.419 220.86V244.82V244.8Z" fill="#7B7B7B"/>
<path d="M429.7 133.23L408.53 145.46L256.5 233.23V257.69L256.61 257.75L429.82 157.75L429.7 157.68V133.23Z" fill="#EDEDED"/>
<path d="M156.5 175.5L156.61 175.56L177.78 187.79L256.5 233.23L408.53 145.46L429.7 133.23L329.7 75.5L156.5 175.5Z" fill="#EDEDED"/>
<path d="M275.101 125.76C266.661 125.87 259.081 127.45 253.531 130.66C248.061 133.82 244.991 138.2 244.601 143.37L188.291 175.88L255.841 214.88L311.121 182.97C319.551 182.86 327.131 181.28 332.671 178.08C338.141 174.92 341.211 170.54 341.601 165.37L397.911 132.86L330.361 93.8604L275.101 125.76Z" fill="#C5C5C5"/>
<path d="M319.669 139.02C298.229 126.64 268.959 123.48 254.279 131.95C239.609 140.42 245.089 157.32 266.529 169.7C287.969 182.08 317.239 185.24 331.919 176.77C346.589 168.3 341.109 151.4 319.669 139.02Z" fill="white"/>
<path d="M192.781 180.11L178.931 172.11L176.321 173.62C176.171 174.15 175.941 174.65 175.621 175.12C175.301 175.59 174.831 176.1 174.221 176.65L176.751 178.11L179.481 176.53L189.231 182.16L186.081 183.98L189.401 185.9L198.781 180.49L195.461 178.57L192.791 180.11H192.781Z" fill="#7B7B7B"/>
<path d="M202.16 168.52C200.24 167.41 198.41 166.6 196.66 166.09C194.91 165.58 193.32 165.36 191.87 165.43C190.42 165.5 189.17 165.84 188.11 166.46C187.05 167.07 186.45 167.8 186.32 168.63C186.19 169.46 186.56 170.38 187.44 171.4C188.32 172.42 189.72 173.48 191.64 174.59C193.56 175.7 195.42 176.52 197.21 177.04C199 177.57 200.63 177.8 202.11 177.74C203.59 177.68 204.85 177.34 205.9 176.74C206.95 176.13 207.53 175.4 207.64 174.55C207.75 173.7 207.34 172.76 206.42 171.73C205.5 170.7 204.08 169.63 202.16 168.52ZM202.72 174.9C202.12 175.25 201.23 175.27 200.05 174.98C198.87 174.69 197.18 173.91 195 172.65C192.83 171.4 191.52 170.44 191.05 169.78C190.58 169.12 190.65 168.61 191.25 168.27C191.85 167.92 192.72 167.89 193.86 168.16C195 168.43 196.65 169.2 198.82 170.45C201 171.71 202.35 172.68 202.86 173.36C203.37 174.04 203.33 174.55 202.73 174.9H202.72Z" fill="#7B7B7B"/>
<path d="M213.811 161.79C211.891 160.68 210.061 159.87 208.311 159.36C206.561 158.85 204.971 158.63 203.521 158.7C202.071 158.77 200.821 159.11 199.761 159.73C198.701 160.34 198.101 161.07 197.971 161.9C197.841 162.73 198.211 163.65 199.091 164.67C199.971 165.69 201.371 166.75 203.291 167.86C205.211 168.97 207.071 169.79 208.861 170.31C210.651 170.84 212.281 171.07 213.761 171.01C215.241 170.95 216.501 170.61 217.551 170.01C218.601 169.41 219.181 168.67 219.291 167.82C219.401 166.97 218.991 166.03 218.071 165C217.151 163.97 215.731 162.9 213.811 161.79ZM214.371 168.17C213.771 168.52 212.881 168.54 211.701 168.25C210.521 167.96 208.831 167.18 206.651 165.92C204.481 164.67 203.171 163.71 202.701 163.05C202.231 162.39 202.301 161.88 202.901 161.54C203.501 161.19 204.371 161.16 205.511 161.43C206.651 161.7 208.301 162.47 210.471 163.72C212.651 164.98 214.001 165.95 214.511 166.63C215.021 167.31 214.981 167.82 214.381 168.17H214.371Z" fill="#7B7B7B"/>
<path d="M225.471 155.06C223.551 153.95 221.721 153.14 219.971 152.63C218.221 152.12 216.631 151.9 215.181 151.97C213.731 152.04 212.481 152.38 211.421 153C210.361 153.61 209.761 154.34 209.631 155.17C209.501 156 209.871 156.92 210.751 157.94C211.631 158.96 213.031 160.02 214.951 161.13C216.871 162.24 218.731 163.06 220.521 163.58C222.311 164.11 223.941 164.34 225.421 164.28C226.901 164.22 228.161 163.88 229.211 163.28C230.261 162.67 230.841 161.94 230.951 161.09C231.061 160.24 230.651 159.3 229.731 158.27C228.811 157.24 227.391 156.17 225.471 155.06ZM226.031 161.44C225.431 161.79 224.541 161.81 223.361 161.52C222.181 161.23 220.491 160.45 218.311 159.19C216.141 157.94 214.831 156.98 214.361 156.32C213.891 155.66 213.961 155.15 214.561 154.81C215.161 154.46 216.031 154.43 217.171 154.7C218.311 154.97 219.961 155.74 222.131 156.99C224.311 158.25 225.661 159.22 226.171 159.9C226.681 160.58 226.641 161.09 226.041 161.44H226.031Z" fill="#7B7B7B"/>
<path d="M237.119 148.33C235.199 147.22 233.369 146.41 231.619 145.9C229.869 145.39 228.279 145.17 226.829 145.24C225.379 145.31 224.129 145.65 223.069 146.27C222.009 146.88 221.409 147.61 221.279 148.44C221.149 149.27 221.519 150.19 222.399 151.21C223.279 152.23 224.679 153.29 226.599 154.4C228.519 155.51 230.379 156.33 232.169 156.85C233.959 157.38 235.589 157.61 237.069 157.55C238.549 157.49 239.809 157.15 240.859 156.55C241.909 155.94 242.489 155.21 242.599 154.36C242.709 153.51 242.299 152.57 241.379 151.54C240.459 150.51 239.039 149.44 237.119 148.33ZM237.679 154.72C237.079 155.07 236.189 155.09 235.009 154.8C233.829 154.51 232.139 153.73 229.959 152.47C227.789 151.22 226.479 150.26 226.009 149.6C225.539 148.94 225.609 148.43 226.209 148.09C226.809 147.74 227.679 147.71 228.819 147.98C229.959 148.25 231.609 149.02 233.779 150.27C235.959 151.53 237.309 152.5 237.819 153.18C238.329 153.86 238.289 154.37 237.689 154.72H237.679Z" fill="#7B7B7B"/>
<path d="M156.609 175.56V200.01L256.499 257.69V233.23L177.779 187.79L156.609 175.56Z" fill="#C5C5C5"/>
<path d="M432.2 133.23C432.2 132.34 431.72 131.51 430.95 131.06L330.95 73.3302C330.18 72.8802 329.22 72.8802 328.45 73.3302L155.25 173.33C154.47 173.78 153.99 174.62 154 175.52C154 175.76 154.04 176 154.11 176.23V200.01C154.11 200.9 154.59 201.73 155.36 202.18L255.25 259.86L256.48 257.73L255.3 259.9L255.41 259.96C255.78 260.16 256.19 260.26 256.61 260.26C257.04 260.26 257.47 260.15 257.86 259.93L431.07 159.93C431.84 159.49 432.32 158.67 432.32 157.78C432.32 157.51 432.28 157.25 432.2 157.01V133.25V133.23ZM427.2 156.37L256.61 254.86L159.11 198.56V176.87L329.7 78.3802L427.2 134.67V156.37Z" fill="#7B7B7B"/>
<path d="M339.919 166.59L339.699 166.46L272.149 127.46L271.909 127.33L255.929 118.09L252.679 116.22L227.029 131.03L230.279 132.9L246.279 142.15L246.499 142.27L314.049 181.27L314.279 181.4L330.269 190.64L332.769 192.08L358.419 177.27L355.919 175.83L339.919 166.59Z" fill="#EDEDED"/>
<path d="M332.77 217.31L358.42 202.38V177.27L332.77 192.08V217.31Z" fill="#ABABAB"/>
<path d="M358.919 176.4L272.629 126.58L253.179 115.35C252.869 115.17 252.489 115.17 252.179 115.35L226.529 130.16C226.219 130.34 226.029 130.67 226.029 131.03C226.029 131.39 226.219 131.72 226.529 131.9L313.559 182.14L331.769 192.66V217.31C331.769 217.67 331.959 218 332.269 218.18C332.419 218.27 332.599 218.31 332.769 218.31C332.939 218.31 333.119 218.27 333.269 218.17L358.919 203.24C359.229 203.06 359.419 202.73 359.419 202.38V177.27C359.419 176.91 359.229 176.58 358.919 176.4ZM357.419 201.8L333.769 215.57V192.08C333.769 191.72 333.579 191.39 333.269 191.21L246.979 141.39L229.029 131.03L252.679 117.38L339.189 167.33L357.419 177.86V201.82V201.8Z" fill="#7B7B7B"/>
<path d="M392.7 60.23L371.53 72.46L219.5 160.23V184.69L219.61 184.75L392.82 84.75L392.7 84.68V60.23Z" fill="#EDEDED"/>
<path d="M119.5 102.5L119.61 102.56L140.78 114.79L219.5 160.23L371.53 72.46L392.7 60.23L292.7 2.5L119.5 102.5Z" fill="#EDEDED"/>
<path d="M238.101 52.7603C229.661 52.8703 222.081 54.4504 216.531 57.6604C211.061 60.8204 207.991 65.2004 207.601 70.3704L151.291 102.88L218.841 141.88L274.121 109.97C282.551 109.86 290.131 108.28 295.671 105.08C301.141 101.92 304.211 97.5404 304.601 92.3704L360.911 59.8604L293.361 20.8604L238.101 52.7603Z" fill="#C5C5C5"/>
<path d="M282.669 66.0201C261.229 53.6401 231.959 50.4802 217.279 58.9502C202.609 67.4202 208.089 84.3201 229.529 96.7001C250.969 109.08 280.239 112.24 294.919 103.77C309.589 95.3001 304.109 78.4001 282.669 66.0201Z" fill="white"/>
<path d="M155.781 107.11L141.931 99.1104L139.321 100.62C139.171 101.15 138.941 101.65 138.621 102.12C138.301 102.59 137.831 103.1 137.221 103.65L139.751 105.11L142.481 103.53L152.231 109.16L149.081 110.98L152.401 112.9L161.781 107.49L158.461 105.57L155.791 107.11H155.781Z" fill="#7B7B7B"/>
<path d="M165.16 95.5201C163.24 94.4101 161.41 93.6001 159.66 93.0901C157.91 92.5801 156.32 92.3602 154.87 92.4302C153.42 92.5002 152.17 92.8402 151.11 93.4602C150.05 94.0702 149.45 94.8002 149.32 95.6302C149.19 96.4602 149.56 97.3802 150.44 98.4002C151.32 99.4202 152.72 100.48 154.64 101.59C156.56 102.7 158.42 103.52 160.21 104.04C162 104.57 163.63 104.8 165.11 104.74C166.59 104.68 167.85 104.34 168.9 103.74C169.95 103.13 170.53 102.4 170.64 101.55C170.75 100.7 170.34 99.7602 169.42 98.7302C168.5 97.7002 167.08 96.6301 165.16 95.5201ZM165.72 101.9C165.12 102.25 164.23 102.27 163.05 101.98C161.87 101.69 160.18 100.91 158 99.6502C155.83 98.4002 154.52 97.4402 154.05 96.7802C153.58 96.1202 153.65 95.6101 154.25 95.2701C154.85 94.9201 155.72 94.8902 156.86 95.1602C158 95.4302 159.65 96.2001 161.82 97.4501C164 98.7101 165.35 99.6802 165.86 100.36C166.37 101.04 166.33 101.55 165.73 101.9H165.72Z" fill="#7B7B7B"/>
<path d="M176.811 88.7902C174.891 87.6802 173.061 86.8702 171.311 86.3602C169.561 85.8502 167.971 85.6302 166.521 85.7002C165.071 85.7702 163.821 86.1102 162.761 86.7302C161.701 87.3402 161.101 88.0702 160.971 88.9002C160.841 89.7302 161.211 90.6502 162.091 91.6702C162.971 92.6902 164.371 93.7502 166.291 94.8602C168.211 95.9702 170.071 96.7902 171.861 97.3102C173.651 97.8402 175.281 98.0702 176.761 98.0102C178.241 97.9502 179.501 97.6102 180.551 97.0102C181.601 96.4102 182.181 95.6702 182.291 94.8202C182.401 93.9702 181.991 93.0302 181.071 92.0002C180.151 90.9702 178.731 89.9002 176.811 88.7902ZM177.371 95.1702C176.771 95.5202 175.881 95.5402 174.701 95.2502C173.521 94.9602 171.831 94.1802 169.651 92.9202C167.481 91.6702 166.171 90.7102 165.701 90.0502C165.231 89.3902 165.301 88.8802 165.901 88.5402C166.501 88.1902 167.371 88.1602 168.511 88.4302C169.651 88.7002 171.301 89.4702 173.471 90.7202C175.651 91.9802 177.001 92.9502 177.511 93.6302C178.021 94.3102 177.981 94.8202 177.381 95.1702H177.371Z" fill="#7B7B7B"/>
<path d="M188.471 82.0602C186.551 80.9502 184.721 80.1402 182.971 79.6302C181.221 79.1202 179.631 78.9002 178.181 78.9702C176.731 79.0402 175.481 79.3802 174.421 80.0002C173.361 80.6102 172.761 81.3402 172.631 82.1702C172.501 83.0002 172.871 83.9202 173.751 84.9402C174.631 85.9602 176.031 87.0202 177.951 88.1302C179.871 89.2402 181.731 90.0602 183.521 90.5802C185.311 91.1102 186.941 91.3402 188.421 91.2802C189.901 91.2202 191.161 90.8802 192.211 90.2802C193.261 89.6702 193.841 88.9402 193.951 88.0902C194.061 87.2402 193.651 86.3002 192.731 85.2702C191.811 84.2402 190.391 83.1702 188.471 82.0602ZM189.031 88.4402C188.431 88.7902 187.541 88.8102 186.361 88.5202C185.181 88.2302 183.491 87.4502 181.311 86.1902C179.141 84.9402 177.831 83.9802 177.361 83.3202C176.891 82.6602 176.961 82.1502 177.561 81.8102C178.161 81.4602 179.031 81.4302 180.171 81.7002C181.311 81.9702 182.961 82.7402 185.131 83.9902C187.311 85.2502 188.661 86.2202 189.171 86.9002C189.681 87.5802 189.641 88.0902 189.041 88.4402H189.031Z" fill="#7B7B7B"/>
<path d="M200.119 75.3302C198.199 74.2202 196.369 73.4102 194.619 72.9002C192.869 72.3902 191.279 72.1702 189.829 72.2402C188.379 72.3102 187.129 72.6502 186.069 73.2702C185.009 73.8802 184.409 74.6102 184.279 75.4402C184.149 76.2702 184.519 77.1902 185.399 78.2102C186.279 79.2302 187.679 80.2902 189.599 81.4002C191.519 82.5102 193.379 83.3302 195.169 83.8502C196.959 84.3802 198.589 84.6102 200.069 84.5502C201.549 84.4902 202.809 84.1502 203.859 83.5502C204.909 82.9402 205.489 82.2102 205.599 81.3602C205.709 80.5102 205.299 79.5702 204.379 78.5402C203.459 77.5102 202.039 76.4402 200.119 75.3302ZM200.679 81.7202C200.079 82.0702 199.189 82.0902 198.009 81.8002C196.829 81.5102 195.139 80.7302 192.959 79.4702C190.789 78.2202 189.479 77.2602 189.009 76.6002C188.539 75.9402 188.609 75.4302 189.209 75.0902C189.809 74.7402 190.679 74.7102 191.819 74.9802C192.959 75.2502 194.609 76.0202 196.779 77.2702C198.959 78.5302 200.309 79.5002 200.819 80.1802C201.329 80.8602 201.289 81.3702 200.689 81.7202H200.679Z" fill="#7B7B7B"/>
<path d="M119.609 102.56V127.01L219.499 184.69V160.23L140.779 114.79L119.609 102.56Z" fill="#C5C5C5"/>
<path d="M395.2 60.2302C395.2 59.3402 394.72 58.5102 393.95 58.0602L293.95 0.330176C293.18 -0.119824 292.22 -0.119824 291.45 0.330176L118.25 100.33C117.47 100.78 116.99 101.62 117 102.52C117 102.76 117.04 103 117.11 103.22V127C117.11 127.89 117.59 128.72 118.36 129.17L218.25 186.85L219.48 184.72L218.3 186.89L218.41 186.95C218.78 187.15 219.19 187.25 219.61 187.25C220.04 187.25 220.47 187.14 220.86 186.92L394.07 86.9202C394.84 86.4702 395.32 85.6502 395.32 84.7602C395.32 84.4902 395.28 84.2302 395.2 83.9902V60.2302ZM390.2 83.3802L219.61 181.87L122.11 125.57V103.88L292.7 5.39018L390.2 61.6802V83.3802Z" fill="#7B7B7B"/>
<path d="M302.919 93.5902L302.699 93.4602L235.149 54.4602L234.909 54.3302L218.929 45.0902L215.679 43.2202L190.029 58.0302L193.279 59.9002L209.279 69.1502L209.499 69.2702L277.049 108.27L277.279 108.4L293.269 117.64L295.769 119.08L321.419 104.27L318.919 102.83L302.919 93.5902Z" fill="#EDEDED"/>
<path d="M295.77 144.31L321.42 129.38V104.27L295.77 119.08V144.31Z" fill="#ABABAB"/>
<path d="M321.919 103.4L235.629 53.5803L216.179 42.3503C215.869 42.1703 215.489 42.1703 215.179 42.3503L189.529 57.1603C189.219 57.3403 189.029 57.6703 189.029 58.0303C189.029 58.3903 189.219 58.7203 189.529 58.9003L276.559 109.14L294.769 119.66V144.31C294.769 144.67 294.959 145 295.269 145.18C295.419 145.27 295.599 145.31 295.769 145.31C295.939 145.31 296.119 145.27 296.269 145.17L321.919 130.24C322.229 130.06 322.419 129.73 322.419 129.38V104.27C322.419 103.91 322.229 103.58 321.919 103.4ZM320.419 128.8L296.769 142.57V119.08C296.769 118.72 296.579 118.39 296.269 118.21L209.979 68.3903L192.029 58.0303L215.679 44.3803L302.189 94.3303L320.419 104.86V128.82V128.8Z" fill="#7B7B7B"/>
</g>
<defs>
<clipPath id="clip0_208_143">
<rect width="432.32" height="346.25" fill="white"/>
</clipPath>
</defs>
</svg>
